<?xml version="1.0" encoding="utf-8"?>
<!-- Generator: Adobe Illustrator 18.0.0, SVG Export Plug-In . SVG Version: 6.00 Build 0)  -->
<!DOCTYPE svg PUBLIC "-//W3C//DTD SVG 1.1//EN" "http://www.w3.org/Graphics/SVG/1.1/DTD/svg11.dtd">
<svg version="1.1" id="Layer_1" xmlns="http://www.w3.org/2000/svg" xmlns:xlink="http://www.w3.org/1999/xlink" x="0px" y="0px"
	 viewBox="0 0 350 200" enable-background="new 0 0 350 200" xml:space="preserve">
<g>
	<g>
		<g>
			<rect x="81.5" y="88.1" fill="#FFFFFF" width="187.4" height="7.3"/>
		</g>
	</g>
	<g>
		<g>
			<path fill="#AFD1D2" d="M268.4,69.9l-12.6,101c0,0.3-0.6,0.8-1,0.8H94.7c-0.3,0-0.9-0.5-1-0.8l-12.6-101H268.4L268.4,69.9z
				 M269.3,62.6H80.2c-4,0-6.9,3.2-6.4,7.2l12.7,102c0.5,4,4.2,7.2,8.2,7.2h160.1c4,0,7.7-3.2,8.2-7.2l12.7-102
				C276.2,65.8,273.3,62.6,269.3,62.6L269.3,62.6z"/>
		</g>
	</g>
	<g>
		<g>
			<rect x="69.3" y="58.9" fill="#EB5A4A" width="211" height="29.1"/>
		</g>
	</g>
	<g>
		<g>
			<circle fill="#FFFFFF" cx="233" cy="73.5" r="9.1"/>
		</g>
	</g>
	<g>
		<g>
			<circle fill="#FFFFFF" cx="116.5" cy="73.5" r="9.1"/>
		</g>
	</g>
	<g>
		<g>
			<g>
				<path fill="#0D3656" d="M189.3,29.8L233,73.5L189.3,29.8z"/>
			</g>
		</g>
		<g>
			<g>
				<path fill="#0D3656" d="M233,80.8c-1.9,0-3.7-0.7-5.1-2.1L184.2,35c-2.8-2.8-2.8-7.4,0-10.3c2.8-2.8,7.4-2.8,10.3,0l43.7,43.7
					c2.8,2.8,2.8,7.4,0,10.3C236.7,80.1,234.8,80.8,233,80.8z"/>
			</g>
		</g>
	</g>
	<g>
		<g>
			<g>
				<path fill="#0D3656" d="M116.5,73.5l43.7-43.7L116.5,73.5z"/>
			</g>
		</g>
		<g>
			<g>
				<path fill="#0D3656" d="M116.5,80.8c-1.9,0-3.7-0.7-5.1-2.1c-2.8-2.8-2.8-7.4,0-10.3l43.7-43.7c2.8-2.8,7.5-2.8,10.3,0
					c2.8,2.8,2.8,7.4,0,10.3l-43.7,43.7C120.3,80.1,118.4,80.8,116.5,80.8z"/>
			</g>
		</g>
	</g>
	<g>
		<g>
			<rect x="112.9" y="91.7" fill="#AFD1D2" width="7.3" height="87.3"/>
		</g>
	</g>
	<g>
		<g>
			<rect x="142" y="91.7" fill="#AFD1D2" width="7.3" height="87.3"/>
		</g>
	</g>
	<g>
		<g>
			<rect x="171.1" y="91.7" fill="#AFD1D2" width="7.3" height="87.3"/>
		</g>
	</g>
	<g>
		<g>
			<rect x="200.2" y="91.7" fill="#AFD1D2" width="7.3" height="87.3"/>
		</g>
	</g>
	<g>
		<g>
			<rect x="229.3" y="91.7" fill="#AFD1D2" width="7.3" height="87.3"/>
		</g>
	</g>
	<g>
		<g>
			<rect x="84.3" y="117.2" fill="#AFD1D2" width="181" height="7.3"/>
		</g>
	</g>
	<g>
		<g>
			<rect x="87.4" y="146.3" fill="#AFD1D2" width="174.6" height="7.3"/>
		</g>
	</g>
</g>
</svg>
