<?xml version="1.0" encoding="utf-8"?>
<!-- Generator: Adobe Illustrator 18.0.0, SVG Export Plug-In . SVG Version: 6.00 Build 0)  -->
<!DOCTYPE svg PUBLIC "-//W3C//DTD SVG 1.1//EN" "http://www.w3.org/Graphics/SVG/1.1/DTD/svg11.dtd">
<svg version="1.1" id="Layer_1" xmlns="http://www.w3.org/2000/svg" xmlns:xlink="http://www.w3.org/1999/xlink" x="0px" y="0px"
	 viewBox="0 0 350 200" enable-background="new 0 0 350 200" xml:space="preserve">
<g>
	<path fill="#D6DADD" d="M72.6,89c0,0.5,0,0.9,0,1.4c0,1.2,0,2.4,0.1,3.6c0.1-0.1,0.2-0.1,0.3-0.2C72.8,92.2,72.7,90.6,72.6,89z"/>
</g>
<g>
	<path fill="#D6DADD" d="M277.3,94c0.1-1.2,0.1-2.4,0.1-3.6c0-0.7,0-1.3,0-2c0,1.9-0.1,3.7-0.3,5.5C277.2,93.9,277.2,94,277.3,94z"
		/>
</g>
<g>
	<path fill="#FFFFFF" d="M98.2,189.6h51.2H175h25.6h51.2c27.8,0,50.4-22.2,51.2-49.9c0-0.4,0-0.9,0-1.3c0-19-10.3-35.5-25.7-44.4
		c-0.1,0-0.1-0.1-0.2-0.1c0.2-1.8,0.2-3.7,0.3-5.5c0-0.4,0-0.8,0-1.2c0-42.4-34.4-76.8-76.8-76.8c-9,0-17.6,1.5-25.6,4.4
		c-13.5,4.8-25.3,13.2-34.1,24.2c-5.3-1.9-11.1-2.9-17.1-2.9c-28.3,0-51.2,22.9-51.2,51.2c0,0.6,0,1.2,0,1.8
		c0.1,1.6,0.2,3.2,0.4,4.8c-0.1,0.1-0.2,0.1-0.3,0.2C57.4,102.8,47,119.4,47,138.4c0,0.5,0,0.9,0,1.3
		C47.7,167.4,70.4,189.6,98.2,189.6z M213.4,114.4c0,21.2-17.2,38.4-38.4,38.4c-21.2,0-38.4-17.2-38.4-38.4c0-0.5,0-1.1,0-1.6
		c0-0.5,0-1.1,0-1.6c0-21.2,17.2-38.4,38.4-38.4c21.2,0,38.4,17.2,38.4,38.4c0,0.5,0,1.1,0,1.6C213.4,113.3,213.4,113.9,213.4,114.4
		z"/>
</g>
<g>
	<path fill="#457A8B" d="M175,149.6c-20.7,0-37.5-16.3-38.4-36.8c0,0.5,0,1.1,0,1.6c0,21.2,17.2,38.4,38.4,38.4
		c21.2,0,38.4-17.2,38.4-38.4c0-0.5,0-1.1,0-1.6C212.5,133.3,195.7,149.6,175,149.6z"/>
</g>
<g>
	<path fill="#87CCCC" d="M175,72.8c-21.2,0-38.4,17.2-38.4,38.4c0,0.5,0,1.1,0,1.6c0.8,20.5,17.7,36.8,38.4,36.8
		s37.5-16.3,38.4-36.8c0-0.5,0-1.1,0-1.6C213.4,90,196.2,72.8,175,72.8z M194.2,121.6c-5,0-16.7-7.7-19.2-9.4
		c-2.5,1.7-14.2,9.4-19.2,9.4c-5.7,0-10.4-4.7-10.4-10.4c0-5.7,4.7-10.4,10.4-10.4c5,0,16.7,7.7,19.2,9.4c2.5-1.7,14.2-9.4,19.2-9.4
		c5.7,0,10.4,4.7,10.4,10.4C204.6,116.9,199.9,121.6,194.2,121.6z"/>
</g>
<g>
	<path fill="#87CCCC" d="M147,111.2c0,4.9,3.9,8.8,8.8,8.8c3.8,0,13.4-5.8,17.8-8.8c-4.4-3-13.9-8.8-17.8-8.8
		C150.9,102.4,147,106.3,147,111.2z"/>
</g>
<g>
	<path fill="#87CCCC" d="M194.2,102.4c-3.8,0-13.4,5.8-17.8,8.8c4.4,3,13.9,8.8,17.8,8.8c4.9,0,8.8-3.9,8.8-8.8
		C203,106.3,199.1,102.4,194.2,102.4z"/>
</g>
<g>
	<path fill="#0D3656" d="M194.2,100.8c-5,0-16.7,7.7-19.2,9.4c-2.5-1.7-14.2-9.4-19.2-9.4c-5.7,0-10.4,4.7-10.4,10.4
		c0,5.7,4.7,10.4,10.4,10.4c5,0,16.7-7.7,19.2-9.4c2.5,1.7,14.2,9.4,19.2,9.4c5.7,0,10.4-4.7,10.4-10.4
		C204.6,105.5,199.9,100.8,194.2,100.8z M155.8,120c-4.9,0-8.8-3.9-8.8-8.8c0-4.9,3.9-8.8,8.8-8.8c3.8,0,13.4,5.8,17.8,8.8
		C169.2,114.2,159.6,120,155.8,120z M194.2,120c-3.8,0-13.4-5.8-17.8-8.8c4.4-3,13.9-8.8,17.8-8.8c4.9,0,8.8,3.9,8.8,8.8
		C203,116.1,199.1,120,194.2,120z"/>
</g>
<g>
	<path fill="#D6DADD" d="M72.6,89c0,0.5,0,0.9,0,1.4c0,1.2,0,2.4,0.1,3.6c0.1-0.1,0.2-0.1,0.3-0.2C72.8,92.2,72.7,90.6,72.6,89z"/>
</g>
<g>
	<path fill="#D6DADD" d="M277.3,94c0.1-1.2,0.1-2.4,0.1-3.6c0-0.7,0-1.3,0-2c0,1.9-0.1,3.7-0.3,5.5C277.2,93.9,277.2,94,277.3,94z"
		/>
</g>
<g>
	<path fill="#87CCCC" d="M98.2,189.6h51.2H175h25.6h51.2c27.8,0,50.4-22.2,51.2-49.9c0-0.4,0-0.9,0-1.3c0-19-10.3-35.5-25.7-44.4
		c-0.1,0-0.1-0.1-0.2-0.1c0.2-1.8,0.2-3.7,0.3-5.5c0-0.4,0-0.8,0-1.2c0-42.4-34.4-76.8-76.8-76.8c-9,0-17.6,1.5-25.6,4.4
		c-13.5,4.8-25.3,13.2-34.1,24.2c-5.3-1.9-11.1-2.9-17.1-2.9c-28.3,0-51.2,22.9-51.2,51.2c0,0.6,0,1.2,0,1.8
		c0.1,1.6,0.2,3.2,0.4,4.8c-0.1,0.1-0.2,0.1-0.3,0.2C57.4,102.8,47,119.4,47,138.4c0,0.5,0,0.9,0,1.3
		C47.7,167.4,70.4,189.6,98.2,189.6z"/>
</g>
<g>
	<path fill="#EB5949" d="M175,72.8c-21.2,0-38.4,17.2-38.4,38.4c0,0.5,0,1.1,0,1.6c0.8,20.5,17.7,36.8,38.4,36.8
		s37.5-16.3,38.4-36.8c0-0.5,0-1.1,0-1.6C213.4,90,196.2,72.8,175,72.8z M194.2,121.6c-5,0-16.7-7.7-19.2-9.4
		c-2.5,1.7-14.2,9.4-19.2,9.4c-5.7,0-10.4-4.7-10.4-10.4c0-5.7,4.7-10.4,10.4-10.4c5,0,16.7,7.7,19.2,9.4c2.5-1.7,14.2-9.4,19.2-9.4
		c5.7,0,10.4,4.7,10.4,10.4C204.6,116.9,199.9,121.6,194.2,121.6z"/>
</g>
<g>
	<path fill="#87CCCC" d="M147,111.2c0,4.9,3.9,8.8,8.8,8.8c3.8,0,13.4-5.8,17.8-8.8c-4.4-3-13.9-8.8-17.8-8.8
		C150.9,102.4,147,106.3,147,111.2z"/>
</g>
<g>
	<path fill="#87CCCC" d="M194.2,102.4c-3.8,0-13.4,5.8-17.8,8.8c4.4,3,13.9,8.8,17.8,8.8c4.9,0,8.8-3.9,8.8-8.8
		C203,106.3,199.1,102.4,194.2,102.4z"/>
</g>
<g>
	<path fill="#0D3656" d="M194.2,100.8c-5,0-16.7,7.7-19.2,9.4c-2.5-1.7-14.2-9.4-19.2-9.4c-5.7,0-10.4,4.7-10.4,10.4
		c0,5.7,4.7,10.4,10.4,10.4c5,0,16.7-7.7,19.2-9.4c2.5,1.7,14.2,9.4,19.2,9.4c5.7,0,10.4-4.7,10.4-10.4
		C204.6,105.5,199.9,100.8,194.2,100.8z M155.8,120c-4.9,0-8.8-3.9-8.8-8.8c0-4.9,3.9-8.8,8.8-8.8c3.8,0,13.4,5.8,17.8,8.8
		C169.2,114.2,159.6,120,155.8,120z M194.2,120c-3.8,0-13.4-5.8-17.8-8.8c4.4-3,13.9-8.8,17.8-8.8c4.9,0,8.8,3.9,8.8,8.8
		C203,116.1,199.1,120,194.2,120z"/>
</g>
</svg>
