<?xml version="1.0" encoding="utf-8"?>
<!-- Generator: Adobe Illustrator 18.0.0, SVG Export Plug-In . SVG Version: 6.00 Build 0)  -->
<!DOCTYPE svg PUBLIC "-//W3C//DTD SVG 1.1//EN" "http://www.w3.org/Graphics/SVG/1.1/DTD/svg11.dtd">
<svg version="1.1" id="Layer_1" xmlns="http://www.w3.org/2000/svg" xmlns:xlink="http://www.w3.org/1999/xlink" x="0px" y="0px"
	 viewBox="0 0 350 200" enable-background="new 0 0 350 200" xml:space="preserve">
<g>
	<path fill="#EB5A4A" d="M126.4,63c-19,0-34.5,15.5-34.5,34.5s15.5,34.5,34.5,34.5c19,0,34.5-15.5,34.5-34.5S145.4,63,126.4,63z
		 M141.8,100.5c-1.4,7.3-7.8,12.7-15.4,12.7c-7.7,0-14-5.5-15.4-12.7c-0.2-1-0.3-2-0.3-3c0-8.7,7-15.7,15.7-15.7
		c8.7,0,15.7,7,15.7,15.7C142.1,98.5,142,99.5,141.8,100.5z"/>
</g>
<g>
	<path fill="#EB5A4A" d="M206.9,106.5c0.3-3,0.5-6,0.5-9c0-3-0.2-6-0.5-9h-20.4c-0.7-4.6-1.9-9-3.5-13.3L200.6,65
		c-2.4-5.5-5.5-10.8-9-15.6l-17.7,10.2c-2.9-3.6-6.1-6.8-9.7-9.7l10.2-17.7c-4.8-3.6-10-6.6-15.6-9L148.6,41
		c-4.2-1.7-8.6-2.9-13.3-3.5V17c-3-0.3-6-0.5-9-0.5c-3,0-6,0.2-9,0.5v20.4c-4.6,0.7-9,1.9-13.3,3.5L93.9,23.3
		c-5.5,2.4-10.8,5.5-15.6,9L88.5,50c-3.6,2.9-6.8,6.1-9.7,9.7L61.1,49.5c-3.6,4.8-6.6,10-9,15.6l17.7,10.2
		c-1.7,4.2-2.9,8.6-3.5,13.3H45.9c-0.3,3-0.5,6-0.5,9c0,3,0.2,6,0.5,9h20.4c0.7,4.6,1.9,9,3.5,13.3L52.1,130
		c2.4,5.5,5.5,10.8,9,15.6l17.7-10.2c2.9,3.6,6.1,6.8,9.7,9.7l-10.2,17.7c4.8,3.6,10,6.6,15.6,9l10.2-17.7c4.2,1.7,8.6,2.9,13.3,3.5
		V178c3,0.3,6,0.5,9,0.5c3,0,6-0.2,9-0.5v-20.4c4.6-0.7,9-1.9,13.3-3.5l10.2,17.7c5.5-2.4,10.8-5.5,15.6-9L164.2,145
		c3.6-2.9,6.8-6.1,9.7-9.7l17.7,10.2c3.6-4.8,6.6-10,9-15.6l-17.7-10.2c1.7-4.2,2.9-8.6,3.5-13.3H206.9z M126.4,135
		c-20.7,0-37.5-16.8-37.5-37.5S105.7,60,126.4,60c20.7,0,37.5,16.8,37.5,37.5S147,135,126.4,135z"/>
</g>
<g>
	<path fill="#0D3656" d="M126.4,60c-20.7,0-37.5,16.8-37.5,37.5s16.8,37.5,37.5,37.5c20.7,0,37.5-16.8,37.5-37.5S147,60,126.4,60z
		 M126.4,132c-19,0-34.5-15.5-34.5-34.5S107.3,63,126.4,63c19,0,34.5,15.5,34.5,34.5S145.4,132,126.4,132z"/>
</g>
<g>
	<path fill="#8B9BA9" d="M126.4,81.8c-8.7,0-15.7,7-15.7,15.7c0,1,0.1,2,0.3,3c1.4-7.3,7.8-12.7,15.4-12.7c7.7,0,14,5.5,15.4,12.7
		c0.2-1,0.3-2,0.3-3C142.1,88.8,135,81.8,126.4,81.8z"/>
</g>
<g>
	<path fill="#E5E5E5" d="M126.4,87.8c-7.7,0-14,5.5-15.4,12.7c1.4,7.3,7.8,12.7,15.4,12.7c7.7,0,14-5.5,15.4-12.7
		C140.4,93.3,134,87.8,126.4,87.8z"/>
</g>
<g>
	<path fill="#EB5A4A" d="M126.4,63c-19,0-34.5,15.5-34.5,34.5s15.5,34.5,34.5,34.5c19,0,34.5-15.5,34.5-34.5S145.4,63,126.4,63z
		 M141.8,100.5c-1.4,7.3-7.8,12.7-15.4,12.7c-7.7,0-14-5.5-15.4-12.7c-0.2-1-0.3-2-0.3-3c0-8.7,7-15.7,15.7-15.7
		c8.7,0,15.7,7,15.7,15.7C142.1,98.5,142,99.5,141.8,100.5z"/>
</g>
<g>
	<path fill="#EB5A4A" d="M206.9,106.5c0.3-3,0.5-6,0.5-9c0-3-0.2-6-0.5-9h-20.4c-0.7-4.6-1.9-9-3.5-13.3L200.6,65
		c-2.4-5.5-5.5-10.8-9-15.6l-17.7,10.2c-2.9-3.6-6.1-6.8-9.7-9.7l10.2-17.7c-4.8-3.6-10-6.6-15.6-9L148.6,41
		c-4.2-1.7-8.6-2.9-13.3-3.5V17c-3-0.3-6-0.5-9-0.5c-3,0-6,0.2-9,0.5v20.4c-4.6,0.7-9,1.9-13.3,3.5L93.9,23.3
		c-5.5,2.4-10.8,5.5-15.6,9L88.5,50c-3.6,2.9-6.8,6.1-9.7,9.7L61.1,49.5c-3.6,4.8-6.6,10-9,15.6l17.7,10.2
		c-1.7,4.2-2.9,8.6-3.5,13.3H45.9c-0.3,3-0.5,6-0.5,9c0,3,0.2,6,0.5,9h20.4c0.7,4.6,1.9,9,3.5,13.3L52.1,130
		c2.4,5.5,5.5,10.8,9,15.6l17.7-10.2c2.9,3.6,6.1,6.8,9.7,9.7l-10.2,17.7c4.8,3.6,10,6.6,15.6,9l10.2-17.7c4.2,1.7,8.6,2.9,13.3,3.5
		V178c3,0.3,6,0.5,9,0.5c3,0,6-0.2,9-0.5v-20.4c4.6-0.7,9-1.9,13.3-3.5l10.2,17.7c5.5-2.4,10.8-5.5,15.6-9L164.2,145
		c3.6-2.9,6.8-6.1,9.7-9.7l17.7,10.2c3.6-4.8,6.6-10,9-15.6l-17.7-10.2c1.7-4.2,2.9-8.6,3.5-13.3H206.9z M126.4,135
		c-20.7,0-37.5-16.8-37.5-37.5S105.7,60,126.4,60c20.7,0,37.5,16.8,37.5,37.5S147,135,126.4,135z"/>
</g>
<g>
	<path fill="#0D3656" d="M126.4,60c-20.7,0-37.5,16.8-37.5,37.5s16.8,37.5,37.5,37.5c20.7,0,37.5-16.8,37.5-37.5S147,60,126.4,60z
		 M126.4,132c-19,0-34.5-15.5-34.5-34.5S107.3,63,126.4,63c19,0,34.5,15.5,34.5,34.5S145.4,132,126.4,132z"/>
</g>
<g>
	<path fill="#8B9BA9" d="M126.4,81.8c-8.7,0-15.7,7-15.7,15.7c0,1,0.1,2,0.3,3c1.4-7.3,7.8-12.7,15.4-12.7c7.7,0,14,5.5,15.4,12.7
		c0.2-1,0.3-2,0.3-3C142.1,88.8,135,81.8,126.4,81.8z"/>
</g>
<g>
	<path fill="#E5E5E5" d="M126.4,87.8c-7.7,0-14,5.5-15.4,12.7c1.4,7.3,7.8,12.7,15.4,12.7c7.7,0,14-5.5,15.4-12.7
		C140.4,93.3,134,87.8,126.4,87.8z"/>
</g>
<g>
	<g>
		<g>
			<g>
				<path fill="#0D3656" d="M297.7,131.1c0.2-1.6,0.3-3.3,0.3-4.9c0-1.7-0.1-3.3-0.3-4.9h-11.2c-0.4-2.5-1-5-1.9-7.3l9.7-5.6
					c-1.3-3-3-5.9-4.9-8.5l-9.7,5.6c-1.6-2-3.4-3.8-5.3-5.3l5.6-9.7c-2.6-1.9-5.5-3.6-8.5-4.9l-5.6,9.7c-2.3-0.9-4.7-1.6-7.3-1.9
					V82.1c-1.6-0.2-3.3-0.3-4.9-0.3c-1.7,0-3.3,0.1-4.9,0.3v11.2c-2.5,0.4-5,1-7.3,1.9l-5.6-9.7c-3,1.3-5.9,3-8.5,4.9l5.6,9.7
					c-2,1.6-3.7,3.4-5.3,5.3l-9.7-5.6c-1.9,2.6-3.6,5.5-4.9,8.5l9.7,5.6c-0.9,2.3-1.6,4.7-1.9,7.3h-11.2c-0.2,1.6-0.3,3.3-0.3,4.9
					c0,1.7,0.1,3.3,0.3,4.9h11.2c0.4,2.5,1,5,1.9,7.3l-9.7,5.6c1.3,3,3,5.9,4.9,8.5l9.7-5.6c1.6,2,3.4,3.8,5.3,5.3l-5.6,9.7
					c2.6,1.9,5.5,3.6,8.5,4.9l5.6-9.7c2.3,0.9,4.7,1.6,7.3,1.9v11.2c1.6,0.2,3.3,0.3,4.9,0.3c1.7,0,3.3-0.1,4.9-0.3v-11.2
					c2.5-0.4,5-1,7.3-1.9l5.6,9.7c3-1.3,5.9-3,8.5-4.9l-5.6-9.7c2-1.6,3.7-3.4,5.3-5.3l9.7,5.6c1.9-2.6,3.6-5.5,4.9-8.5l-9.7-5.6
					c0.9-2.3,1.6-4.7,1.9-7.3H297.7z"/>
			</g>
		</g>
		<g>
			<g>
				<circle fill="#FFFFFF" cx="253.6" cy="126.2" r="19.7"/>
			</g>
		</g>
		<g>
			<g>
				<circle fill="#FAAC1F" cx="253.6" cy="126.2" r="8.6"/>
			</g>
		</g>
	</g>
</g>
</svg>
