<?xml version="1.0" encoding="utf-8"?>
<!-- Generator: Adobe Illustrator 18.0.0, SVG Export Plug-In . SVG Version: 6.00 Build 0)  -->
<!DOCTYPE svg PUBLIC "-//W3C//DTD SVG 1.1//EN" "http://www.w3.org/Graphics/SVG/1.1/DTD/svg11.dtd">
<svg version="1.1" id="Layer_1" xmlns="http://www.w3.org/2000/svg" xmlns:xlink="http://www.w3.org/1999/xlink" x="0px" y="0px"
	 viewBox="0 0 250 250" enable-background="new 0 0 250 250" xml:space="preserve">
<g>
	<polygon fill="none" points="134.5,61.8 134.5,61.8 134.6,61.9 	"/>
	<path fill="none" d="M134.3,63.4C134.3,63.5,134.3,63.5,134.3,63.4c0.1,0,0.1-0.1,0.1-0.1C134.3,63.4,134.3,63.4,134.3,63.4z"/>
	<path fill="none" d="M140.9,42.7c0,0-0.1-0.1-0.2-0.2c-2.5,0.5-5,1-7.7,1.4c0,0.8,0,1.4,0,2c0,1.9,0,3.8,0,5.8c0,0.5,0,1.1-0.3,1.3
		c-0.7,0.6-1.3,1.3-2.4,1.7c-0.1-0.7-0.1-1.2-0.1-1.7c-0.1-2.9-0.2-5.8-0.2-8.6c0-0.8-0.3-1.4-0.9-1.8c-1.2-0.9-2.3-1.9-3.5-2.8
		c-0.3-0.2-0.7-0.3-1-0.4c1.1,1.1,2.2,2.3,3.4,3.3c0.7,0.7,1,1.4,1,2.4c-0.1,2.9-0.3,5.8-0.1,8.6c0.1,1.8-0.6,2.9-2,3.8
		c-0.2,0.2-0.5,0.3-0.7,0.5c0,8,0,16,0,24.1c2.5,0.2,4.9,0,7.3,0c2.5,0.1,5,0.1,7.5-0.1c0-0.4,0.1-0.7,0.1-1c0-12.7,0-25.4-0.1-38.1
		C140.9,42.8,140.9,42.8,140.9,42.7z M126.9,58.6c0,0,0,0.1,0,0.1c0-0.1,0-0.2,0-0.2C126.8,58.5,126.9,58.6,126.9,58.6z M127.1,65.7
		c0.1,0.2,0.2,0.4,0.4,0.6c-0.1,0.1-0.2,0.1-0.3,0.2c-0.1-0.2-0.2-0.4-0.4-0.6C126.9,65.8,127.1,65.7,127.1,65.7z M128.1,72.7
		c-0.1-1-0.3-2.1-0.4-3.3c-0.3,0.6-0.5,1.1-0.8,1.6c-0.9-1.2-0.8-2,0-3.9c0.6,0.6,1.1,0.1,1.6-0.2C129.6,68.9,128.7,70.8,128.1,72.7
		z M131.1,59.6c0,0,0.1,0,0.1,0c0,0.1,0,0.1,0,0.2c0,0-0.1,0-0.1,0C131.1,59.7,131.1,59.6,131.1,59.6z M131.2,76.5l0-0.2l0.1,0
		L131.2,76.5z M131.2,75c-0.1-0.1-0.2-0.3-0.3-0.4c0,0,0.1-0.1,0.3-0.3C131.2,74.6,131.2,74.8,131.2,75z M131.1,64.3
		C131.1,64.5,131.1,64.4,131.1,64.3C131.1,64.3,131.1,64.3,131.1,64.3L131.1,64.3L131.1,64.3C131.2,64.5,131.1,64.4,131.1,64.3
		C131.1,64.3,131.1,64.3,131.1,64.3z M131.2,70.8c0,0.3,0,0.6,0,0.9c0,0-0.1,0-0.1,0C131.1,71.4,131.1,71.1,131.2,70.8
		C131.1,70.8,131.1,70.8,131.2,70.8z M131.1,73.4c0,0,0.1,0,0.1,0c0,0,0,0.1,0,0.1c-0.1,0-0.1,0-0.2,0
		C131.1,73.5,131.1,73.4,131.1,73.4z M131.2,62.3c-0.1-0.1-0.1-0.1-0.2-0.2c0,0,0-0.1,0.1-0.1c0.1,0,0.1,0,0.2,0.1
		C131.2,62.1,131.2,62.2,131.2,62.3z M137.1,50.7L137.1,50.7l0.1,0.1L137.1,50.7L137.1,50.7L137.1,50.7z M135.2,57.6
		c0.1,0,0.2,0.1,0.3,0.1c0,0.1-0.1,0.2-0.2,0.2c-0.1,0-0.2-0.1-0.3-0.1C135.1,57.8,135.1,57.7,135.2,57.6z M135.3,66.5l0-0.1
		l0.1,0.1L135.3,66.5z M135.5,65.4C135.4,65.4,135.4,65.4,135.5,65.4c-0.1-0.1,0-0.2,0-0.2c0,0,0.1,0.1,0.1,0.1
		C135.5,65.4,135.5,65.4,135.5,65.4z M136.6,67.7c0,0-0.1-0.1,0-0.1c0,0,0.1-0.1,0.1-0.1c0,0,0.1,0.1,0,0.1
		C136.6,67.6,136.6,67.7,136.6,67.7z M136.7,63.5c-0.3-0.1-0.5-0.1-0.7-0.2l0,0c0,0,0,0-0.1,0c0,0.1-0.1,0.2-0.1,0.2
		c-0.1-0.1-0.1-0.2-0.2-0.2c0,0,0,0-0.1,0l0-0.1c-0.5,0.3-1,0.6-1.4,0.9c0,0,0,0,0,0c0,0,0,0,0,0c0,0,0-0.1,0-0.1c0,0,0,0,0,0.1
		c0,0,0,0,0,0c0-0.2,0.1-0.4,0.1-0.6c0,0,0,0,0,0c0,0,0,0,0,0.1c-0.2,0.1-0.5,0.2-0.6,0.4c-0.8,1.4-0.6,3.5,0.7,4.8
		c-1,0.2-1,0.9-1,1.7c0.1,3.1,0.2,6.2,0.3,9.3c0,0.3,0,0.7,0,1.2c-0.5,0-1,0-1.5,0c0.2-7.2,0.4-14.3,0.6-21.5c0.1,0,0.1,0,0.2,0
		c0.1,0.8,0.1,1.6,0.2,2.5c0.4,0,0.9-0.1,1.3-0.1l0,0c0.1-0.2,0.4-0.5,0.3-0.7c-0.1-0.4-0.3-0.7-0.4-1.1c0.3-0.4,0.6-0.7,1-1.3
		c0.1,1.4,0.2,2.4,0.2,3.5c0.3-0.2,0.6-0.5,0.9-0.8C137.3,62,136.7,62.7,136.7,63.5z M136.5,60.2c-0.1,0-0.2-0.2-0.3-0.4
		c0.1-0.1,0.3-0.2,0.4-0.2c0.1,0,0.2,0.2,0.4,0.4C136.8,60.1,136.7,60.2,136.5,60.2z M136.7,58.8c-0.2-0.7-0.5-1.4-0.4-2
		c0.1-0.6,0.6-1.1,0.9-1.6c0,0,0,0,0-0.1c0,0,0,0,0-0.1c0-0.1,0-0.1,0-0.2c0,0,0,0.1,0,0.1c0,0,0,0.1,0,0.1c0,0,0,0.1,0,0.1
		c0,0,0,0,0,0C137.6,56.9,137.6,57,136.7,58.8z M138,52c-0.1-0.5-0.1-0.7-0.1-0.8c0.1,0,0.2,0,0.3,0C138.1,51.3,138.1,51.4,138,52z
		 M139,49.7c0-0.1,0-0.2,0-0.2c0,0,0.1,0,0.1,0C139.1,49.5,139.1,49.6,139,49.7z"/>
	<path fill="none" d="M124.1,39c-0.1-0.2-0.2-0.4-0.3-0.5c0,0,0,0,0,0C123.9,38.6,124,38.8,124.1,39c0.1,0.2,0.2,0.3,0.3,0.4
		c0,0,0.1,0,0.1,0c0,0,0,0-0.1-0.1C124.3,39.2,124.2,39.1,124.1,39z"/>
	<polygon fill="none" points="131.1,64.3 131.1,64.3 131.1,64.3 	"/>
	<path fill="none" d="M157.6,48.6c0-0.1-0.1-0.1-0.1-0.2c0,0-0.1-0.1-0.2-0.2c-1.4,0.2-2.9,0.5-4.6,0.8c0,2.8,0,5.4,0,7.8
		c-0.9,0.4-1.5,0.7-2.1,1c-0.1-0.8-0.3-1.6-0.4-2.5c0-1.9,0-3.8,0.1-5.7c0-0.7-0.2-1.3-0.7-1.7c-1.6-1.2-3.1-2.4-4.7-3.6
		c-0.2-0.2-0.6-0.1-0.9-0.2c1.7,1.6,3.5,3.2,5.2,4.9c0.3,0.3,0.4,1,0.4,1.5c0,1.8,0,3.6,0,5.4c0,0.4,0.1,0.9-0.1,1
		c-0.9,0.8-0.6,1.8-0.6,2.8c0,2,0,3.9,0,6c-1.6,0.1-3.1,0.1-4.6,0.2c0,1.6,0,2.9,0,4.3c0,0.6,0.2,1.2,0.3,1.8c0,0,0,0,0,0
		c0-0.1,0-0.1,0-0.2c0,0,0,0.1,0,0.1c0,0,0,0,0,0.1c0,0,0,0.1,0,0.1l0,0c-0.3,3.3-0.5,6.6-0.3,9.9c4.6,0.2,9,0.2,13.5,0.1
		c0-0.6,0.1-1,0.1-1.5c0-10.5,0-21.1,0-31.6C157.6,48.8,157.6,48.7,157.6,48.6z M150.9,81.1c-0.4,0-0.7,0-1,0
		c-0.4-1.5-0.1-9.2,0.4-12.3c0.6,2.9-0.2,5.7,0.7,8.4c0.2-4.2,0.3-8.4,0.5-12.7c0.1,0,0.2,0,0.3,0c0.2,5.4,0.3,10.9,0.5,16.4
		C151.7,81,151.3,81,150.9,81.1z"/>
	<path fill="none" d="M183.8,73.6C183.8,73.6,183.8,73.6,183.8,73.6C183.8,73.6,183.8,73.6,183.8,73.6
		C183.8,73.6,183.8,73.6,183.8,73.6z"/>
	<path fill="none" d="M160.2,49.2C160.2,49.2,160.2,49.2,160.2,49.2C160.2,49.2,160.2,49.2,160.2,49.2
		C160.2,49.2,160.2,49.2,160.2,49.2z"/>
	<path fill="none" d="M143.6,43.5C143.5,43.5,143.5,43.5,143.6,43.5c0.1,0.3,0.1,0.4,0.2,0.6C143.7,43.9,143.6,43.7,143.6,43.5
		C143.6,43.5,143.6,43.5,143.6,43.5z"/>
	<path fill="none" d="M174.3,67.5c-0.1,0-0.1-0.1-0.2-0.1c0,0,0,0.1,0,0.1C174.1,67.5,174.2,67.5,174.3,67.5c0,0.2,0.1,0.4,0.1,0.6
		c0,0,0.1,0,0.1,0c0,0,0,0,0,0C174.4,67.9,174.4,67.7,174.3,67.5z"/>
	<path fill="none" d="M123.7,38.4C123.7,38.4,123.8,38.4,123.7,38.4C123.8,38.4,123.8,38.4,123.7,38.4
		C123.7,38.4,123.7,38.4,123.7,38.4z"/>
	<path fill="none" d="M143.8,44C143.8,44.1,143.8,44.1,143.8,44C143.8,44.1,143.8,44.1,143.8,44C143.8,44.1,143.8,44.1,143.8,44
		C143.8,44.1,143.8,44.1,143.8,44z"/>
	<path fill="none" d="M160.1,49.2C160.1,49.2,160.2,49.2,160.1,49.2C160.2,49.2,160.2,49.2,160.1,49.2
		C160.2,49.2,160.1,49.2,160.1,49.2z"/>
	<path fill="none" d="M180.8,103.6c-0.3,2.9-0.2,12.9,0.2,14.3c1.3,0,2.5,0.2,3.9-0.1c0-4.8,0-9.5,0-14.4
		C183.3,103.5,182,103.2,180.8,103.6z"/>
	<path fill="none" d="M54.2,143.6c0.3-3.2,0.2-38.7-0.2-40.1c-1.2,0-2.4,0-3.9,0c0,13.4,0,26.8,0,40.2C52.2,144,53,144,54.2,143.6z"
		/>
	<path fill="none" d="M92.5,49.3C92.5,49.3,92.5,49.3,92.5,49.3C92.5,49.3,92.5,49.3,92.5,49.3C92.4,49.3,92.4,49.3,92.5,49.3
		C92.5,49.3,92.5,49.3,92.5,49.3z"/>
	<path fill="none" d="M92.6,49.4C92.6,49.4,92.5,49.4,92.6,49.4C92.5,49.4,92.5,49.4,92.6,49.4C92.6,49.4,92.6,49.4,92.6,49.4z"/>
	<path fill="none" d="M27.7,75.9c0.3-0.5,0.5-1,0.7-1.4c16.3-31.5,48-54.8,86.9-58.2c11.1-1,22.1-0.3,32.9,2.2
		c32.6,7.8,56.8,26.6,72.6,56.1c0.2,0.4,0.4,0.9,0.7,1.3c0.4,0.6,0.9,0.7,1.5,0.4C208,43.4,168.8,11,116.2,14.9
		c-24.2,1.8-45.4,10.9-63.7,26.8c-10.7,9.3-25,28.3-26.2,34.7C26.9,76.5,27.4,76.6,27.7,75.9z"/>
	<path fill="none" d="M78.8,63.1c-0.5-0.1-0.9-0.2-1.4-0.3c-0.1-0.8-0.2-1.6-0.2-2.3c-0.4,0-0.7,0-1,0c-1,0.2-2,0.3-3.1,0.5
		c-0.1,0.9-0.2,1.6-0.3,2.3c-0.5,0.2-1,0.3-1.4,0.5c-0.1,1-0.1,1.9-0.2,2.8c-0.5,0.2-0.9,0.4-1.4,0.7c0,1.8,0,3.6,0,5.5
		c-2.6,0.2-5.1,0.4-7.7,0.6c-0.1,1.5-0.1,3-0.2,4.4c-1.8,0.1-3.4,0.1-5,0.2c0,1.4,0,2.6,0,3.9c0.4,0,0.7,0.1,1,0.1
		c7.3,0,14.6,0,22-0.1c0,0,0.1-0.1,0.1-0.1c0,0,0.1-0.1,0.1-0.1c0-5.2,0-10.3,0-15.4c-0.4-0.1-0.8-0.2-1.2-0.3
		C78.9,65.1,78.9,64.2,78.8,63.1z"/>
	<polygon fill="none" points="111.8,67.3 111.8,67.3 111.9,67.3 	"/>
	<polygon fill="none" points="119.3,49.8 119.3,49.8 119.3,49.8 	"/>
	<path fill="none" d="M93,51.3c0,0-0.1-0.1-0.1-0.1c0,0-0.1-0.1-0.2-0.1c-0.8,0-1.6,0.1-2.5,0.1c-0.1-1.2-0.2-2.3-0.2-3.5
		c-1.6,0.3-2.9,0.5-4.3,0.7c-0.1,1.2-0.1,2.4-0.2,3.5c-1,0.2-1.9,0.4-2.9,0.6c0,3.1,0,6.2,0,9.3c-1-0.3-1.8-0.5-2.8-0.7
		c0.8,1.2,3,1,2.7,3.1c-0.6-0.1-1-0.1-1.8-0.2c0.7,0.6,1.3,0.9,1.8,1.4c0,1.8,0,3.7,0,5.5c0,1.9,0,3.7,0,5.6c0,1.8-0.1,3.7,0.1,5.6
		c3.1,0,6,0,9,0c0.4,0,0.8-0.3,1.3-0.5c0-7.9,0-15.8,0-23.6C93.1,55.7,93.1,53.5,93,51.3z M83.7,81c0.2-4.2,0.4-8.4,0.6-12.6
		c0.1,0,0.2,0,0.2,0c0.2,2.5,0.4,5,0.6,8c0.2-1.6,0.3-2.8,0.5-4c0.1,0,0.2,0,0.3,0c0.1,0.9,0.2,1.9,0.3,3c0.2-0.4,0.3-0.7,0.4-1
		c0.1,0,0.1,0,0.2,0c0.2,2.2,0.4,4.3,0.6,6.6C86.1,81,85,81,83.7,81z M92,76.5c0,0-0.1,0-0.1-0.1c0.1,0,0.1-0.1,0.2-0.1
		C92,76.4,92,76.4,92,76.5z"/>
	<path fill="none" d="M106,40.8c-0.1,0.4-0.1,0.5-0.1,0.6c0,1.7,0,3.5,0,5.2c-0.1,3.3,0.5,2.4-2.3,4.2c-0.5,0.4-1.1,0.7-1.6,1.1
		c0,2.5,0,4.9,0,7.3c-0.5,0.4-1,0.7-1.5,1c-0.5,0.3-1,0.6-1.8,1c0-2.3,0-4.3,0-6.3c0-0.5-0.1-1-0.4-1.3c-0.8-0.7-1.7-1.3-2.8-1.6
		c0.2,0.4,0.4,0.8,0.7,1.1c1,0.8,1.2,1.8,1.2,3c-0.1,3.4-0.1,6.8-0.1,10.3c0,0.6,0,1.3,0,1.8c-1.1,0.6-1.9,1.1-2.7,1.6
		c-0.3,5.1-0.2,11.1,0.2,12.4c8.8,0,17.5,0,26.4,0c0.3-3.5,0.2-43.3-0.1-44.6C116,38.6,110.9,39.7,106,40.8z M101.8,66.1
		c0,1.5-0.1,2.9-0.1,4.4c-0.1,0-0.1,0-0.2,0c-0.1-2.8-0.2-5.6-0.3-8.4c0-0.1,0.2-0.3,0.4-0.6C102.2,63.1,101.8,64.6,101.8,66.1z
		 M116.8,42.4c0.1,0,0.2,0,0.4,0c0.1,1.6,0.3,3.2,0.4,4.9c-0.6,0.2-0.7-0.3-0.8-0.7C116.8,45.2,116.8,43.8,116.8,42.4z M113,57.5
		L113,57.5c0.1,0.1,0.1,0.1,0.2,0.1c0,0-0.1,0.1-0.1,0.1C113.1,57.6,113,57.6,113,57.5C113,57.5,113,57.5,113,57.5
		C113,57.5,113,57.5,113,57.5z M112.8,55c0,0.3,0.1,0.5,0.1,0.8c-0.1,0-0.2,0.1-0.2,0.1c-0.1-0.3-0.2-0.5-0.3-0.8
		C112.5,55.1,112.7,55.1,112.8,55z M104.1,77.6l0.1-0.1l0,0.1L104.1,77.6z M104.3,75.2c-0.8-0.8-0.8-1.5-0.6-2.6
		C104.5,73.5,104.6,74.2,104.3,75.2z M107,63.1L107,63.1L107,63.1L107,63.1z M106.3,59.5c-0.1,2.3-0.3,4.7-0.4,7c-0.1,0-0.1,0-0.2,0
		c-0.2-0.7-0.5-1.5-0.7-2.3c0.1-0.6,0.4-1.3,0.4-2c-0.1-2.8-0.2-5.6-0.4-8.4c0-0.8,0-1.6,0-2.6c0.6,0,1,0,1.3,0
		c0.1,0.2,0.2,0.2,0.3,0.3c0.2,0.5-0.3,1.4,0.6,1.6c-0.1,0.3-0.1,0.6-0.2,0.8c-0.9,0.9-0.5,2.1-0.5,3.2c1.3,0.3,0.3,1.4,0.8,2
		C106.8,59.3,106.6,59.4,106.3,59.5z M107.8,76.4c0-0.1,0-0.2,0-0.2c0,0,0,0.1,0,0.1C107.8,76.3,107.8,76.4,107.8,76.4z M107.8,75.1
		C107.8,75.1,107.8,75.2,107.8,75.1c-0.1,0-0.1-0.1-0.1-0.1c0,0,0.1,0,0.1,0C107.8,75,107.8,75.1,107.8,75.1z M107.5,71.8
		c-0.1-1.2-0.2-2.1-0.2-3C107.8,69.5,108.4,70.4,107.5,71.8z M114,67c-0.2,0.8-0.9,1.5-1.4,2.2c-0.6-0.4-1-0.7-1.6-1.1
		c0.3-0.3,0.5-0.6,0.7-0.8h0c0.1-0.2,0.3-0.4,0.4-0.6c0.2-1.4,1.5-1.9,2.3-3.2C114.3,65,114.3,66,114,67z M114.5,63
		c-0.1,0-0.2,0-0.3,0c-0.1-0.4-0.1-0.7-0.2-1.3c0.4,0.2,0.6,0.3,0.8,0.4l0-0.1l0,0.1C114.8,62.3,114.7,62.6,114.5,63z M117,49.5
		c-0.5-0.1-0.3-0.5-0.2-0.8c0.1-0.2,0.2-0.3,0.4-0.7c0.2,0.5,0.4,0.8,0.3,0.9C117.5,49.1,117.2,49.5,117,49.5z M117.5,70.7
		c0-0.1,0-0.1,0.1-0.2C117.5,70.6,117.5,70.6,117.5,70.7C117.5,70.7,117.5,70.7,117.5,70.7z M117.4,56.7c-0.1-0.9-0.3-1.8,0.3-2.6
		C117.9,55,117.9,55.9,117.4,56.7z M117.8,52.5c-0.1,0-0.2,0-0.3,0c-0.1-0.3-0.2-0.7-0.3-1c0.1,0,0.1-0.1,0.2-0.1
		c0.1,0.2,0.3,0.3,0.4,0.5C117.9,52.1,117.8,52.3,117.8,52.5z M119.2,55.5c-0.1-0.1-0.2-0.1-0.3-0.2c0.1,0,0.2-0.2,0.2-0.1
		c0.1,0.1,0.1,0.1,0.2,0.2C119.3,55.5,119.2,55.5,119.2,55.5z M119.3,49.8L119.3,49.8C119.3,49.7,119.3,49.6,119.3,49.8
		C119.3,49.6,119.3,49.7,119.3,49.8C119.3,49.8,119.3,49.8,119.3,49.8z M119.6,62.3c0,0-0.1-0.1-0.1-0.1c0,0,0-0.1,0.1-0.1
		c0,0,0,0.1,0.1,0.1C119.7,62.2,119.7,62.3,119.6,62.3z M120.2,80.7c0,0.1-0.1,0.2-0.1,0.2c0-0.1-0.1-0.1-0.1-0.2
		C120,80.8,120.1,80.7,120.2,80.7C120.2,80.7,120.2,80.7,120.2,80.7l0-0.1L120.2,80.7C120.2,80.7,120.2,80.7,120.2,80.7z
		 M120.7,61.3c-0.1-0.2-0.1-0.4-0.2-0.6c0.1,0,0.2,0,0.3-0.1c0,0.2,0.1,0.4,0.1,0.6C120.8,61.2,120.7,61.2,120.7,61.3z"/>
	<path fill="none" d="M92.4,49.3c-0.2-0.8-0.8-1.2-1.8-1.3C91.5,49,91.5,49,92.4,49.3z"/>
	<path fill="none" d="M159.6,185.3c0,3-0.3,2.1,1.9,4.1c1.4,1.3,2.9,1.8,4.8,1.8c4-0.1,3.9-0.1,6.9-2.6c0.6-0.6,0.9-1.1,0.9-2
		c0-2.3,0-4.6,0-6.8c0-2.2,0-4.4,0-6.7c0-0.9-0.2-1.6-1-2.1c-0.3-0.2-0.6-0.4-0.8-0.7c-1.4-1.5-3.1-1.8-5.2-1.9
		c-2.5-0.1-4.5,0.5-6.3,2.3c-0.8,0.8-1.2,1.5-1.2,2.6C159.7,177.3,159.6,181.3,159.6,185.3z M165.8,172.8c0.7,0,1.4,0,2.3,0
		c0,4.6,0,9.2,0,14c-0.9,0-1.6,0-2.2,0C165.5,185.4,165.4,174.6,165.8,172.8z"/>
	<path fill="none" d="M113.5,189.2c-0.2,0.5-0.4,1.1-0.6,1.8c2.1,0,3.9,0,5.9,0c0.7-2,1.4-4.1,2.3-6.5c0.9,2.4,1.7,4.5,2.4,6.6
		c2,0,3.8,0,5.9,0c-0.2-0.6-0.3-1-0.5-1.4c-1.2-2.9-2.3-5.8-3.6-8.6c-0.5-1.2-0.6-2.2,0-3.4c1.1-2.4,2.1-4.8,3.1-7.3
		c0.2-0.5,0.4-1.1,0.7-1.8c-2.1,0-4,0-6,0c-0.6,2-1.2,3.9-2,6.3c-0.8-2.4-1.4-4.3-2-6.2c-2,0-3.9,0-6,0c0.2,0.6,0.4,1.1,0.6,1.6
		c1.2,2.6,2.3,5.3,3.5,7.9c0.4,0.8,0.4,1.5,0,2.4C115.9,183.3,114.7,186.3,113.5,189.2z"/>
	<path fill="none" d="M183.8,73.5C183.8,73.5,183.8,73.6,183.8,73.5C183.8,73.5,183.9,73.5,183.8,73.5
		C183.8,73.5,183.8,73.5,183.8,73.5z"/>
	<path fill="none" d="M138,191c0.1-0.3,0.2-0.4,0.2-0.6c0-6.8,0-13.7,0-20.5c0-0.4,0-0.7-0.1-1.1c0,0-0.1-0.1-0.1-0.1
		c0,0-0.1-0.1-0.1-0.1c-1.8,0-3.5,0-5.4,0c-0.3,2.5-0.2,21.1,0.1,22.5C134.4,191,136.2,191,138,191z"/>
	<path fill="none" d="M142.4,188.1c1,0.9,2.2,1.7,3.3,2.5c0.3,0.2,0.6,0.4,1,0.4c1.9,0,3.7,0,5.6,0c1.1-0.8,2.2-1.7,3.2-2.5
		c0.1-0.1,0.3-0.2,0.4-0.4c0.2-0.2,0.4-0.5,0.4-0.8c0-1.9,0-3.8,0-5.9c-2,0-3.8-0.2-5.7,0.1c-0.2,1.8,0.1,3.5-0.2,5.2
		c-0.9,0-1.5,0-2.5,0c0-4.8,0-9.3,0-14c0.9,0,1.7,0,2.6,0c0,1.5,0,2.8,0,4.2c2,0,3.8,0,5.7,0c0-1.7,0-3.3,0-4.9c0-0.3-0.4-0.7-0.7-1
		c-2.8-2.7-2.8-2.6-6.8-2.6c-0.7,0-1.4-0.1-2.2,0c-0.5,0.1-1.1,0.2-1.5,0.5c-0.9,0.7-1.8,1.5-2.6,2.2c-0.4,0.4-0.7,0.8-0.7,1.4
		c0,4.8,0,9.6,0,14.4C141.9,187.3,142.1,187.9,142.4,188.1z"/>
	<path fill="none" d="M91.7,199c0.6,0.1,1.2,0.3,1.7,0.3c4.5,0.4,9,0.8,13.4,1c11.9,0.6,23.7,0.6,35.6,0c4.4-0.2,8.8-0.7,13.3-1
		c0.3,0,0.6-0.1,0.9-0.1c0.3-0.1,0.5-0.2,1-0.4C141.3,196.6,109,196.5,91.7,199z"/>
	<path fill="none" d="M186.7,74.3c-1-0.4-1.8-1-2.8-0.7c0.7,0.3,1.4,0.7,2.1,1c0,1.2,0,2.2,0,3.3c-1.9,0.3-2.3,0.3-3.7-0.1
		c-0.3-1.6,0.2-3.3-0.3-5c-1.5,0.1-2.9,0.2-4.4,0.3c-0.1-1.3-0.1-2.4-0.2-3.6c-0.9-0.4-1.6-1.4-2.8-1.2c0.4,0.4,0.9,0.8,1.3,1.1
		c0.5,0.4,0.8,0.8,0.7,1.5c-0.1,0.8-0.1,1.5-0.2,2.3c-1.6,0.1-3,0.3-4.5,0.4c-0.6-2.2,0.1-4.3-0.5-6.3c-2.4,0.2-4.8,0.3-7.3,0.5
		c0-0.7-0.1-1.3-0.1-1.9c0-3.4-0.1-6.8-0.1-10.3c0-1.2-0.4-2.2-1.2-3.1c-1-1-1.8-2.1-2.7-3.2c0.1,0.4,0.2,0.9,0.4,1.3
		c0.5,0.9,1.1,1.9,1.7,2.7c0.5,0.7,0.6,1.4,0.6,2.2c-0.1,3-0.1,6-0.2,9c0,1,0,2,0,3c-1.3,0.8-1.3,0.8-1.3,2.1c0,3.7,0,7.4,0,11.2
		c0,0.4,0.1,0.9,0.2,1.3c2.6,0.3,27.3,0.2,28.8-0.1c0-1.2,0-2.4,0-3.8c-1.2-0.1-2.3-0.1-3.5-0.2C186.8,76.6,186.7,75.4,186.7,74.3z"
		/>
	<path fill="none" d="M110.2,186.7c-1.5,0-3.1,0-4.8,0c0-2-0.1-3.7,0.1-5.7c1.5,0,2.7,0,4,0c0-1.4,0-2.7,0-3.9
		c-1.4-0.5-2.8,0.1-4.1-0.4c0-1.3,0-2.6,0-3.8c1.7-0.5,3.3,0.2,4.8-0.4c0-1.3,0-2.6,0-3.9c-3.7,0-7.2,0-10.9,0c0,7.5,0,14.9,0,22.4
		c3.7,0,7.2,0,10.9,0C110.7,188.9,110.7,188.2,110.2,186.7z"/>
	<path fill="none" d="M82.4,191c0-1.6,0-3.2,0-4.7c0-1.5,0-3,0-4.5c0-1.5,0-3,0-4.5c0.1,0,0.3,0,0.4,0c0.8,4.6,1.6,9.1,2.5,13.7
		c0.8,0,1.5,0,2.2,0c1-4.6,1.5-9.2,2.7-13.7c0.2,2.3,0.1,4.6,0.2,6.8c0,2.3-0.1,4.5,0.1,6.8c2,0.3,4,0.3,5.2-0.1
		c0.3-3.2,0.2-20.9-0.2-22.2c-2.2,0-4.4,0-6.6,0c-0.1,0.4-0.2,0.7-0.3,1.1c-0.5,2.7-1,5.4-1.5,8.1c-0.1,0.5-0.1,1.1-0.8,1.7
		c-0.8-3.8-1.5-7.4-2.2-10.9c-2.3,0-4.5,0-6.8,0c-0.3,2.3-0.2,21,0.1,22.5C78.9,191,80.5,191,82.4,191z"/>
	<path fill="none" d="M152.5,103.6c0,4.8,0,9.5,0,14.3c1.5,0,2.7,0,3.9,0c0.3-1.9,0.3-13-0.1-14.5
		C155.1,103.5,153.8,103.2,152.5,103.6z"/>
	<path fill="none" d="M221.4,172.4c-0.2,0.5-0.5,1.1-0.8,1.6c-16.1,30.8-47.2,54-85.6,57.7c-11,1.1-22,0.6-32.7-1.8
		c-33-7.5-57.5-26.2-73.7-55.9c-0.3-0.5-0.6-1.1-0.8-1.6c-0.3-0.8-0.9-0.9-1.6-0.6c13.3,29.5,48.5,61.6,98,61.7
		c49.6,0.2,85.2-31.7,98.8-61.8C222.3,171.5,221.8,171.7,221.4,172.4z"/>
	<path fill="#4E4E4E" d="M128.7,212.1c37.9-1.6,64.7-27,74.5-48.6c-52.4,0-104.7,0-157.2,0C57.2,187.5,86.9,213.9,128.7,212.1z
		 M160.8,170.6c1.8-1.8,3.8-2.3,6.3-2.3c2,0.1,3.7,0.4,5.2,1.9c0.2,0.3,0.5,0.5,0.8,0.7c0.8,0.5,1,1.2,1,2.1c-0.1,2.2,0,4.4,0,6.7
		c0,2.3,0,4.6,0,6.8c0,0.9-0.3,1.4-0.9,2c-2.9,2.5-2.9,2.4-6.9,2.6c-1.9,0.1-3.4-0.4-4.8-1.8c-2.1-2-1.8-1.1-1.9-4.1c0-4,0-8,0-12
		C159.6,172.1,160,171.4,160.8,170.6z M156.6,199.2c-0.3,0.1-0.6,0.1-0.9,0.1c-4.4,0.4-8.8,0.8-13.3,1c-11.9,0.6-23.7,0.6-35.6,0
		c-4.5-0.2-9-0.7-13.4-1c-0.6,0-1.2-0.2-1.7-0.3c17.3-2.5,49.6-2.4,65.9-0.2C157.2,199,156.9,199.2,156.6,199.2z M142.5,171.1
		c0.9-0.7,1.7-1.5,2.6-2.2c0.4-0.3,1-0.5,1.5-0.5c0.7-0.1,1.4,0,2.2,0c4,0,4,0,6.8,2.6c0.3,0.3,0.6,0.7,0.7,1c0.1,1.6,0,3.2,0,4.9
		c-2,0-3.8,0-5.7,0c0-1.4,0-2.7,0-4.2c-1,0-1.7,0-2.6,0c0,4.6,0,9.2,0,14c1,0,1.6,0,2.5,0c0.3-1.7,0-3.4,0.2-5.2
		c1.9-0.3,3.7-0.1,5.7-0.1c0,2.1,0,4,0,5.9c0,0.3-0.2,0.5-0.4,0.8c-0.1,0.1-0.3,0.2-0.4,0.4c-1.1,0.9-2.2,1.7-3.2,2.5
		c-1.9,0-3.7,0.1-5.6,0c-0.3,0-0.7-0.2-1-0.4c-1.1-0.8-2.2-1.6-3.3-2.5c-0.3-0.3-0.5-0.8-0.5-1.2c0-4.8,0-9.6,0-14.4
		C141.9,171.9,142.1,171.5,142.5,171.1z M132.5,168.5c1.9,0,3.7,0,5.4,0c0.1,0.1,0.1,0.1,0.1,0.1c0,0,0.1,0.1,0.1,0.1
		c0,0.4,0.1,0.7,0.1,1.1c0,6.8,0,13.7,0,20.5c0,0.2-0.1,0.3-0.2,0.6c-1.8,0-3.6,0-5.4,0C132.2,189.6,132.1,171,132.5,168.5z
		 M117.1,178c-1.2-2.6-2.3-5.3-3.5-7.9c-0.2-0.5-0.4-1-0.6-1.6c2,0,3.9,0,6,0c0.6,1.9,1.3,3.9,2,6.2c0.8-2.4,1.4-4.3,2-6.3
		c2,0,3.9,0,6,0c-0.3,0.7-0.4,1.2-0.7,1.8c-1,2.4-2,4.9-3.1,7.3c-0.6,1.2-0.5,2.2,0,3.4c1.3,2.8,2.4,5.7,3.6,8.6
		c0.2,0.4,0.3,0.8,0.5,1.4c-2.1,0-3.9,0-5.9,0c-0.8-2.1-1.5-4.1-2.4-6.6c-0.9,2.4-1.6,4.5-2.3,6.5c-2,0-3.8,0-5.9,0
		c0.2-0.7,0.4-1.2,0.6-1.8c1.2-2.9,2.4-5.9,3.7-8.8C117.5,179.6,117.5,178.9,117.1,178z M99.5,168.5c3.6,0,7.2,0,10.9,0
		c0,1.3,0,2.6,0,3.9c-1.5,0.6-3.2,0-4.8,0.4c0,1.2,0,2.5,0,3.8c1.3,0.6,2.7-0.1,4.1,0.4c0,1.3,0,2.5,0,3.9c-1.3,0-2.6,0-4,0
		c-0.2,2-0.1,3.7-0.1,5.7c1.7,0,3.3,0,4.8,0c0.5,1.5,0.5,2.2,0.2,4.2c-3.7,0-7.2,0-10.9,0C99.5,183.5,99.5,176.1,99.5,168.5z
		 M77.2,168.5c2.3,0,4.5,0,6.8,0c0.7,3.6,1.4,7.1,2.2,10.9c0.7-0.6,0.7-1.2,0.8-1.7c0.5-2.7,1-5.4,1.5-8.1c0.1-0.3,0.2-0.7,0.3-1.1
		c2.3,0,4.5,0,6.6,0c0.4,1.3,0.5,19.1,0.2,22.2c-1.2,0.4-3.2,0.4-5.2,0.1c-0.2-2.2-0.1-4.5-0.1-6.8c0-2.3,0-4.5-0.2-6.8
		c-1.2,4.5-1.7,9.1-2.7,13.7c-0.7,0-1.3,0-2.2,0c-0.8-4.6-1.6-9.1-2.5-13.7c-0.1,0-0.3,0-0.4,0c0,1.5,0,3,0,4.5c0,1.5,0,3,0,4.5
		c0,1.5,0,3.1,0,4.7c-1.9,0-3.5,0-5.1,0C76.9,189.5,76.9,170.8,77.2,168.5z"/>
	<path fill="#4E4E4E" d="M31.8,84.7c0.3-0.5,0.5-1.1,0.8-1.6C51.1,41.8,94.2,18.1,139,24.4c14.5,2.1,27.9,7,40.1,15
		c16.8,10.9,29.3,25.5,37.5,43.8c0.5,1.2,1.1,1.7,2.5,1.7c8.6-0.1,17.3-0.1,25.9-0.1c0.5,0,0.9-0.1,1.4-0.2c0-2.7,0-5.3,0-8.1
		c-0.8,0-1.5,0-2.1,0c-5.4,0-10.8,0-16.2,0c-0.5,0-1,0-1.4,0c-0.5,0-0.9-0.2-1.1-0.7c-0.1-0.3-0.3-0.6-0.5-1
		c-17-34.5-51.8-60.1-94.5-62.5c-11.5-0.6-22.8,0.4-33.9,3.4c-32.9,8.9-57,28.7-72.6,58.9c-0.3,0.6-0.6,1.2-1,1.9
		c-6.8,0-13.5,0-20.3,0c-0.4,1.9-0.3,6.8,0.1,8.2C12.6,84.7,22.2,84.7,31.8,84.7z M52.5,41.6c18.3-15.9,39.5-25,63.7-26.8
		C168.8,11,208,43.4,223,76.2c-0.6,0.4-1.1,0.3-1.5-0.4c-0.2-0.4-0.4-0.9-0.7-1.3c-15.9-29.5-40-48.3-72.6-56.1
		c-10.8-2.6-21.8-3.2-32.9-2.2C76.4,19.7,44.7,43,28.4,74.5c-0.2,0.5-0.5,1-0.7,1.4c-0.3,0.6-0.8,0.5-1.4,0.4
		C27.6,69.9,41.8,50.9,52.5,41.6z"/>
	<path fill="#4E4E4E" d="M246.5,163.5c-9.8,0-19.4,0-29.1,0c-8.1,18.5-20.4,33.5-37.2,44.6c-16.8,11.1-35.3,16.7-55.5,16.7
		c-20.2,0-38.8-5.6-55.7-16.8c-16.8-11.1-29.1-26.1-37.1-44.5c-3.2-0.3-27.8-0.2-29.1,0.2c0,2.6,0,5.2,0,8c6.9,0,13.6,0,20.4,0
		c13.1,26.5,32.9,45.6,60.2,56.4c27.3,10.8,55,10.8,82.3,0c27.4-10.8,47.2-30,60.2-56.4c1.4,0,2.7,0,4.1,0c1.4,0,2.8,0,4.1,0
		c1.3,0,2.6,0,4,0c1.4,0,2.8,0,4.1,0c1.4,0,2.7,0.2,4.2-0.2c0-1.4,0-2.7,0-4C246.5,166.1,246.5,164.8,246.5,163.5z M124.2,233.6
		c-49.5-0.2-84.6-32.2-98-61.7c0.7-0.3,1.3-0.2,1.6,0.6c0.2,0.5,0.5,1.1,0.8,1.6c16.1,29.7,40.7,48.4,73.7,55.9
		c10.8,2.4,21.7,2.9,32.7,1.8c38.4-3.8,69.5-26.9,85.6-57.7c0.3-0.5,0.6-1.1,0.8-1.6c0.3-0.8,0.9-0.9,1.6-0.6
		C209.4,201.9,173.8,233.8,124.2,233.6z"/>
	<path fill="#4E4E4E" d="M203.3,84.7c-1.5-4.5-8.5-14.7-14.4-20.9c-10.7-11.3-23.5-19.3-38.3-23.9c-0.2-0.4-0.3-0.8-0.6-1.4
		c-0.2,0.4-0.3,0.7-0.4,1c-0.5-0.1-0.9-0.2-1.3-0.3c-10.2-2.8-20.5-3.8-31-2.9c-10.6,0.9-20.7,3.5-30.2,8.1
		c-17.6,8.4-31,21.2-40.2,38.3c-0.3,0.6-0.8,1.2-0.7,2.1c0.6,0,1.1,0.1,1.6,0.1c24.4,0,48.7,0,73.1,0c5.3,0,10.7,0,16,0
		c1.2,0,2.4,0,3.6,0c0.4,0,0.9,0.4,1.2,0.5c0.7-1,1.7-0.5,2.6-0.3c0.2,0.6,0.4,1.2,0.7,2c0.3-0.8,0.5-1.4,0.7-2.1c1.9,0,3.8,0,5.7,0
		c1.9,0,3.8-0.1,5.8-0.1c1.9,0,3.8,0,5.8,0c1.9,0,3.8,0,5.8,0c1.9,0,3.8,0,5.8,0c2,0,4,0,5.9,0c1.9,0,3.8,0,5.8,0c1.9,0,3.8,0,5.8,0
		c1.9,0,3.8,0,5.8,0C199.4,84.7,201.3,84.8,203.3,84.7z M92.4,49.3C92.5,49.3,92.5,49.3,92.4,49.3C92.5,49.3,92.5,49.3,92.4,49.3
		c0.1,0.1,0.1,0.1,0.1,0.1c0,0,0,0.1,0,0.1C92.5,49.4,92.5,49.4,92.4,49.3C92.5,49.3,92.5,49.3,92.4,49.3
		C92.4,49.3,92.4,49.3,92.4,49.3c-0.9-0.3-1-0.3-1.8-1.3C91.6,48.1,92.2,48.4,92.4,49.3z M80.2,81.8c0,0-0.1,0.1-0.1,0.1
		c0,0-0.1,0.1-0.1,0.1c-7.3,0-14.6,0.1-22,0.1c-0.3,0-0.6-0.1-1-0.1c0-1.3,0-2.5,0-3.9c1.6-0.1,3.2-0.1,5-0.2
		c0.1-1.5,0.1-2.9,0.2-4.4c2.6-0.2,5.1-0.4,7.7-0.6c0-1.9,0-3.7,0-5.5c0.5-0.2,0.9-0.4,1.4-0.7c0-0.9,0.1-1.8,0.2-2.8
		c0.5-0.2,0.9-0.3,1.4-0.5c0.1-0.7,0.2-1.4,0.3-2.3c1.1-0.2,2.1-0.4,3.1-0.5c0.3,0,0.6,0,1,0c0.1,0.8,0.1,1.5,0.2,2.3
		c0.5,0.1,0.9,0.2,1.4,0.3c0.1,1,0.1,2,0.2,2.9c0.4,0.1,0.7,0.2,1.2,0.3C80.2,71.5,80.2,76.7,80.2,81.8z M93.1,81.6
		c-0.5,0.2-0.9,0.5-1.3,0.5c-2.9,0-5.9,0-9,0c-0.1-2-0.1-3.8-0.1-5.6c0-1.9,0-3.7,0-5.6c0-1.9,0-3.7,0-5.5c-0.6-0.4-1.1-0.8-1.8-1.4
		c0.7,0.1,1.2,0.1,1.8,0.2c0.3-2.1-1.9-1.9-2.7-3.1c0.9,0.2,1.8,0.5,2.8,0.7c0-3.2,0-6.2,0-9.3c1-0.2,1.8-0.4,2.9-0.6
		c0.1-1.1,0.1-2.2,0.2-3.5c1.4-0.2,2.7-0.5,4.3-0.7c0.1,1.2,0.2,2.3,0.2,3.5c0.9-0.1,1.8-0.1,2.5-0.1c0.1,0.1,0.1,0.1,0.2,0.1
		c0,0,0.1,0.1,0.1,0.1c0,2.2,0.1,4.4,0.1,6.7C93.1,65.8,93.1,73.6,93.1,81.6z M121.2,82c-8.9,0-17.7,0-26.4,0
		c-0.4-1.3-0.5-7.3-0.2-12.4c0.7-0.4,1.6-0.9,2.7-1.6c0-0.5,0-1.1,0-1.8c0-3.4,0-6.8,0.1-10.3c0-1.2-0.2-2.2-1.2-3
		c-0.3-0.2-0.6-0.6-0.7-1.1c1.1,0.3,2,0.9,2.8,1.6c0.3,0.3,0.4,0.9,0.4,1.3c0,2,0,3.9,0,6.3c0.8-0.4,1.3-0.7,1.8-1
		c0.5-0.3,1-0.7,1.5-1c0-2.4,0-4.8,0-7.3c0.6-0.4,1.1-0.8,1.6-1.1c2.8-1.8,2.2-0.9,2.3-4.2c0-1.7,0-3.5,0-5.2c0-0.1,0.1-0.2,0.1-0.6
		c4.9-1.1,10-2.2,15.1-3.4C121.3,38.8,121.5,78.6,121.2,82z M140.9,82c-2.6,0.2-5.1,0.1-7.5,0.1c-2.4-0.1-4.8,0.2-7.3,0
		c0-8.1,0-16,0-24.1c0.2-0.1,0.4-0.3,0.7-0.5c1.4-0.9,2.1-2,2-3.8c-0.2-2.9,0-5.8,0.1-8.6c0-1-0.2-1.7-1-2.4
		c-1.2-1.1-2.3-2.2-3.4-3.3c0,0-0.1,0-0.1,0c-0.1-0.1-0.2-0.2-0.3-0.4c-0.1-0.2-0.2-0.4-0.3-0.6c0,0-0.1,0-0.1,0c0,0,0,0,0.1,0
		c0,0,0,0,0,0c0,0,0,0,0,0c0.1,0.2,0.2,0.4,0.3,0.5c0.1,0.1,0.2,0.2,0.3,0.4c0,0,0,0,0.1,0.1c0.3,0.1,0.7,0.2,1,0.4
		c1.2,0.9,2.3,1.9,3.5,2.8c0.6,0.5,0.9,1,0.9,1.8c0,2.9,0.1,5.8,0.2,8.6c0,0.5,0.1,1,0.1,1.7c1.1-0.4,1.8-1.1,2.4-1.7
		c0.3-0.2,0.3-0.9,0.3-1.3c0-1.9,0-3.8,0-5.8c0-0.6,0-1.2,0-2c2.6-0.5,5.2-1,7.7-1.4c0.2,0.1,0.2,0.2,0.2,0.2c0,0,0.1,0.1,0.1,0.2
		c0,12.7,0,25.4,0.1,38.1C141,81.3,141,81.6,140.9,82z M157.6,82.1c-4.5,0.1-8.9,0.1-13.5-0.1c-0.3-3.3-0.1-6.6,0.3-9.9l0,0
		c0,0,0-0.1,0-0.1c0,0,0,0,0,0c-0.1-0.6-0.3-1.2-0.3-1.8c-0.1-1.4,0-2.7,0-4.3c1.5-0.1,3-0.1,4.6-0.2c0-2.1,0-4.1,0-6
		c0-1-0.3-2,0.6-2.8c0.2-0.2,0.1-0.7,0.1-1c0-1.8,0.1-3.6,0-5.4c0-0.5-0.1-1.1-0.4-1.5c-1.7-1.7-3.4-3.3-5.2-4.9c0,0,0,0,0,0
		c0,0,0-0.1,0-0.1c-0.1-0.2-0.2-0.3-0.2-0.5c0,0,0-0.1,0-0.1c0,0,0,0.1,0,0.1c0.1,0.2,0.1,0.3,0.2,0.5c0,0,0,0,0,0.1c0,0,0,0,0,0
		c0.3,0.1,0.7,0,0.9,0.2c1.6,1.2,3.1,2.4,4.7,3.6c0.6,0.4,0.8,1,0.7,1.7c0,1.9-0.1,3.8-0.1,5.7c0,0.9,0.2,1.7,0.4,2.5
		c0.7-0.3,1.3-0.6,2.1-1c0-2.4,0-5,0-7.8c1.6-0.3,3.2-0.5,4.6-0.8c0.2,0.1,0.2,0.1,0.2,0.2c0,0,0.1,0.1,0.1,0.2
		c0,0.1,0.1,0.2,0.1,0.3c0,10.5,0,21.1,0,31.6C157.7,81,157.6,81.4,157.6,82.1z M190.4,81.9c-1.4,0.3-26.1,0.4-28.8,0.1
		c-0.1-0.4-0.2-0.9-0.2-1.3c0-3.7,0-7.4,0-11.2c0-1.3,0-1.3,1.3-2.1c0-0.9,0-2,0-3c0.1-3,0.1-6,0.2-9c0-0.8-0.1-1.5-0.6-2.2
		c-0.6-0.9-1.2-1.8-1.7-2.7c-0.2-0.4-0.3-0.8-0.4-1.3c0,0,0,0,0,0c0,0-0.1,0-0.1,0c0,0,0,0,0.1,0c0,0,0,0,0,0c0,0,0,0,0,0
		c0,0,0,0,0,0c0.9,1.1,1.8,2.2,2.7,3.2c0.8,0.9,1.2,1.8,1.2,3.1c0,3.4,0,6.8,0.1,10.3c0,0.6,0,1.2,0.1,1.9c2.5-0.2,4.8-0.3,7.3-0.5
		c0.6,2-0.1,4.2,0.5,6.3c1.5-0.1,2.9-0.2,4.5-0.4c0.1-0.8,0.1-1.6,0.2-2.3c0.1-0.7-0.2-1.1-0.7-1.5c-0.5-0.3-0.9-0.7-1.3-1.1
		c0,0-0.1,0-0.1,0c-0.1-0.2-0.1-0.4-0.2-0.6c-0.1,0-0.1,0-0.2,0c0,0,0-0.1,0-0.1c0.1,0,0.1,0.1,0.2,0.1c0.1,0.2,0.1,0.4,0.2,0.6
		c0,0,0,0,0,0c1.2-0.1,1.8,0.8,2.8,1.2c0.1,1.2,0.1,2.3,0.2,3.6c1.5-0.1,2.9-0.2,4.4-0.3c0.5,1.7,0,3.4,0.3,5
		c1.3,0.4,1.7,0.4,3.7,0.1c0-1,0-2.1,0-3.3c-0.6-0.3-1.3-0.6-2.1-1c0,0,0,0,0,0c0,0,0,0,0,0c0,0,0,0,0,0c0,0,0.1,0,0.1-0.1
		c0,0,0,0,0,0.1c0,0,0,0,0,0c1-0.3,1.8,0.3,2.8,0.7c0.1,1.2,0.1,2.3,0.2,3.7c1.2,0.1,2.3,0.1,3.5,0.2
		C190.4,79.5,190.4,80.7,190.4,81.9z"/>
	<path fill="#4E4E4E" d="M26.7,127.2c0,1.9,0,3.8,0,5.8c0,2,0,4,0,5.9c0,1.9,0,3.8,0,5.8c0,1.9,0,3.8,0,5.8c0,1.9,0,3.8,0.1,5.7
		c2.5,0.3,7.9,0.2,9.2-0.1c0-0.4,0.1-0.8,0.1-1.2c0-21.1-0.1-42.1-0.1-63.2c0-0.1,0-0.1-0.1-0.2c0,0-0.1-0.1-0.2-0.2
		c-3.8,0-7.6,0-11.6,0c-1.1,10.3-2.2,20.5-3.3,30.6c0,0.2-0.1,0.3-0.2,0.5c0,0.1-0.1,0.1-0.1,0.1c0,0-0.1,0-0.5,0.1
		c-0.6-2.5-0.7-5.1-1-7.6c-0.3-2.6-0.6-5.2-0.9-7.9c-0.3-2.7-0.6-5.4-0.9-8c-0.3-2.6-0.6-5.2-0.9-7.9c-4.1,0-7.9-0.1-11.7,0.1
		c-0.1,0.4-0.2,0.5-0.2,0.7c0,20.9,0,41.7,0,62.6c0,0.4,0.1,0.8,0.1,1.3c0,0.1,0.1,0.1,0.1,0.2c0,0,0.1,0.1,0.1,0.1
		c2.5,0.3,7.7,0.2,9-0.2c0-13.5,0-27,0-40.5c0.1,0,0.3,0,0.4,0c0.7,6.8,1.4,13.5,2.1,20.3c0.7,6.8,1.3,13.7,2.2,20.4
		c2.4,0.2,2.4,0.2,3.8-0.2c1.4-13.4,2.7-26.8,4.2-40.2c0.1,0,0.3,0,0.4,0c0,1.9,0,3.8,0,5.7C26.7,123.3,26.7,125.2,26.7,127.2z"/>
	<path fill="#4E4E4E" d="M83.4,120.8c-0.1,0-0.2,0-0.2,0c-2-9.8-4.1-19.7-6.1-29.4C74.8,91,70,91,68.7,91.4c0,0.4-0.1,0.8-0.1,1.2
		c0,21,0.1,42.1,0.1,63.1c0,0.1,0,0.1,0.1,0.2c0,0,0.1,0.1,0.1,0.1c2.3,0.3,7.8,0.2,9.2-0.2c0-10,0-20.1,0-30.2c0.1,0,0.2,0,0.3,0
		c2.1,10.1,4.2,20.3,6.2,30.3c2.2,0.3,7.1,0.3,8.4-0.1c0-0.2,0.1-0.3,0.1-0.5c0-21,0-42.1,0-63.1c0-0.2,0-0.5-0.1-0.7
		c0-0.1,0-0.1-0.1-0.2c0,0-0.1-0.1-0.2-0.2c-3,0-6,0-9.2,0c0,0.8-0.1,1.5-0.1,2.2c0,8.5,0,17,0,25.5c0,0.3,0,0.6,0,0.9
		C83.5,120.2,83.4,120.5,83.4,120.8z"/>
	<path fill="#4E4E4E" d="M156.9,156.1c3.1,0,6.2,0,9.5,0c0-0.7,0.1-1.2,0.1-1.8c0-7.5,0-15,0-22.5c0-1.1-0.3-2-1-2.8
		c-1.4-1.6-2.7-3.3-4.1-5.1c0.4-0.6,0.8-1.1,1.1-1.5c1.1-1.3,2.1-2.6,3.2-3.9c0.5-0.6,0.7-1.2,0.7-2c0-5,0-10,0-14.9
		c0-0.6-0.2-1.2-0.5-1.7c-2.1-2.9-4.2-5.8-6.3-8.7c-5.8,0-11.6,0-17.4,0c-0.3,3.4-0.2,63.4,0.1,64.8c1.7,0.3,8.4,0.3,10-0.1
		c0-8.4,0-16.9,0-25.5c1.5,0,2.8,0,4.2,0c0,0.8,0,1.4,0,2.1c0,7.3,0,14.5,0,21.8C156.6,154.9,156.4,155.6,156.9,156.1z M156.4,117.9
		c-1.2,0-2.4,0-3.9,0c0-4.8,0-9.5,0-14.3c1.3-0.3,2.6-0.1,3.8-0.1C156.6,104.9,156.7,116,156.4,117.9z"/>
	<path fill="#4E4E4E" d="M194.7,116.3c0-4.9,0-9.7,0-14.6c0-0.8-0.2-1.5-0.7-2.2c-1.8-2.5-3.6-4.9-5.4-7.4c-0.5-0.8-1.1-1.1-2.1-1.1
		c-4.9,0-9.8,0-14.8,0c-0.4,0-0.8,0.1-1.2,0.1c-0.3,2.3-0.2,63.5,0.1,64.8c2.3,0.3,8.5,0.2,9.9-0.2c0-2.1,0-4.1,0-6.2
		c0-2.2,0-4.3,0-6.5c0-2.1,0-4.2,0-6.3c0-2.1,0-4.3,0-6.5c1.5,0,2.8-0.2,4.2,0.1c0,8.6,0,17.1,0,25.8c3.3,0,6.5,0,9.7,0
		c0.1-0.6,0.1-1,0.1-1.4c0-7.8,0-15.6,0-23.4c0-0.8-0.2-1.5-0.8-2.1c-1.4-1.7-2.8-3.5-4.3-5.4c1.4-1.8,2.8-3.5,4.2-5.1
		C194.4,118.1,194.8,117.3,194.7,116.3z M184.8,117.9c-1.3,0.3-2.6,0.1-3.9,0.1c-0.3-1.5-0.4-11.5-0.2-14.3c1.2-0.4,2.5-0.2,4-0.2
		C184.8,108.3,184.8,113,184.8,117.9z"/>
	<path fill="#4E4E4E" d="M39.9,145.1c0,0.9,0,1.7,0.6,2.5c1.9,2.5,3.6,5.1,5.4,7.6c0.5,0.7,1.1,1,1.9,1c2.9,0,5.8-0.1,8.6,0
		c1.1,0,1.7-0.4,2.3-1.3c1.5-2.3,3.1-4.6,4.7-6.8c0.7-0.9,0.9-1.9,0.9-3c0-7.1,0-14.3,0-21.4c0-7.3,0-14.5,0-21.8
		c0-0.9-0.1-1.6-0.6-2.4c-1.9-2.5-3.7-5-5.5-7.5c-0.6-0.8-1.2-1-2.1-1c-2.7,0.1-5.4,0.1-8.1,0c-1,0-1.7,0.3-2.2,1.1
		c-1.7,2.5-3.4,4.9-5.2,7.3c-0.5,0.7-0.7,1.4-0.7,2.3c0,3.1,0,6.1,0,9.2C39.9,122.4,39.9,133.7,39.9,145.1z M50.1,103.5
		c1.5,0,2.7,0,3.9,0c0.3,1.4,0.5,36.9,0.2,40.1c-1.2,0.4-2,0.4-4.1,0.1C50.1,130.3,50.1,116.9,50.1,103.5z"/>
	<path fill="#4E4E4E" d="M138.9,103.3c0.1-4.1,0-8,0-12.2c-1.8,0-3.3,0-4.8,0c-1.5,0-3,0-4.5,0c-1.6,0-3.1,0-4.7,0
		c-1.5,0-3.1-0.1-4.6,0.1c0,21.7,0,43.2,0,64.7c1.7,0.3,17.2,0.3,18.7,0c0.3-1.9,0.3-10.7-0.1-12c-2.8-0.2-5.6,0.1-8.3-0.1
		c-0.3-1.9-0.3-14.4,0.1-16c1.1,0,2.2,0,3.3,0c1.1,0,2.2,0,3.3,0c0.4-2,0.3-10.8,0-12.2c-2.2-0.3-4.5,0.1-6.9-0.3
		c0-4-0.1-7.9,0.1-11.9C133.4,103.2,136.1,103.6,138.9,103.3z"/>
	<path fill="#4E4E4E" d="M217.3,155.9c0.3-2.6,0.2-10.7-0.2-12.1c-2.7,0-5.4,0-8.1,0c-0.4-1.9-0.3-14.5,0.1-15.9
		c2.2-0.2,4.5,0.1,6.8-0.2c0-4,0-8,0-12c-2.5-0.3-4.7,0.1-7.1-0.3c0-4-0.1-7.9,0-11.9c2.9-0.2,5.6,0.1,8.5-0.2c0-4.1,0.1-8,0-12.1
		c-6.3,0-12.4,0-18.4,0c-0.1,0.2-0.2,0.3-0.2,0.4c0,20.9,0,41.8-0.1,62.8c0,0.5,0.1,1,0.1,1.4c0,0.1,0,0.1,0.1,0.1
		c0,0,0.1,0.1,0.1,0.1C201.8,156.4,216.1,156.3,217.3,155.9z"/>
	<path fill="#4E4E4E" d="M236.8,91.4c-1.2,7.4-2.2,14.8-3.6,22.2c-1.4-7.5-2.4-15-3.7-22.4c-3.4,0-6.6,0-10,0
		c0.1,0.6,0.1,1.2,0.3,1.7c2.6,11.4,5.3,22.9,7.9,34.3c0.3,1.2,0.4,2.5,0.4,3.7c0,7.7,0,15.4,0,23c0,0.7,0.1,1.4,0.1,2.1
		c3.4,0,6.6,0,10.1,0c0-0.9,0-1.5,0-2.2c0-7.8,0-15.6,0-23.4c0-0.9,0.1-1.9,0.3-2.8c2.7-11.7,5.4-23.5,8.1-35.2
		c0.1-0.4,0.1-0.8,0.1-1.2C244.5,91,238.2,91.1,236.8,91.4z"/>
	<path fill="#4E4E4E" d="M101.6,156c2.3,0.3,8.7,0.3,10.1-0.1c0-2.5,0-5,0-7.5c0-2.5,0-4.9,0-7.4c0-2.5,0-5,0-7.6c0-2.5,0-4.9,0-7.4
		c0-2.5,0-5,0-7.6c0-2.5,0-4.9,0-7.4c0-2.5,0-5,0-7.7c2,0,3.7,0,5.5,0c0.4-2.2,0.3-10.8-0.1-12.1c-2.5-0.3-19.8-0.2-21.2,0.1
		c0,3.9,0,7.8,0,12c1.9,0,3.6,0,5.6,0c0,2.1,0,4,0,5.9c0,2,0,4,0,5.9c0,1.9,0,3.8,0,5.8c0,2,0,4,0,5.9c0,1.9,0,3.8,0,5.8
		c0,2,0,4,0,5.9c0,1.9,0,3.8,0,5.8c0,2,0,4,0,5.9C101.5,152.2,101.4,154.1,101.6,156z"/>
	<path fill="#4E4E4E" d="M141.3,88.1c0.1-0.3,0.2-0.7,0.3-1c-0.1,0-0.2,0-0.3-0.1c-0.1,0.4-0.1,0.7-0.2,1.1
		C141.2,88,141.2,88.1,141.3,88.1z"/>
	<path fill="#4E4E4E" d="M117.4,85.6c-0.1,0.1-0.2,0.2-0.3,0.3c0,0.1,0.1,0.2,0.1,0.3c0.1-0.1,0.2-0.2,0.4-0.2
		C117.5,85.8,117.4,85.7,117.4,85.6z"/>
	<path fill="#4E4E4E" d="M168.1,186.8c0-4.8,0-9.3,0-14c-0.9,0-1.6,0-2.3,0c-0.4,1.8-0.3,12.7,0.1,14
		C166.5,186.8,167.2,186.8,168.1,186.8z"/>
	<path fill="#4E4E4E" d="M106.4,57.2c0.1-1.1-0.4-2.2,0.5-3.2c0.2-0.2,0.2-0.5,0.2-0.8c-1-0.3-0.4-1.1-0.6-1.6
		c0-0.1-0.1-0.2-0.3-0.3c-0.3,0-0.6,0-1.3,0c0,1,0,1.8,0,2.6c0.1,2.8,0.3,5.6,0.4,8.4c0,0.7-0.3,1.4-0.4,2c0.2,0.8,0.5,1.5,0.7,2.3
		c0.1,0,0.1,0,0.2,0c0.1-2.4,0.3-4.7,0.4-7c0.3-0.1,0.5-0.2,0.9-0.3C106.7,58.6,107.7,57.5,106.4,57.2z"/>
	<path fill="#4E4E4E" d="M112.2,66.7c0,0.2-0.2,0.4-0.4,0.6h0c0,0,0,0,0,0l0.1,0l-0.1,0c-0.2,0.2-0.5,0.5-0.7,0.8
		c0.6,0.4,1,0.7,1.6,1.1c0.5-0.7,1.1-1.4,1.4-2.2c0.3-1,0.3-2.1,0.4-3.5C113.7,64.9,112.3,65.3,112.2,66.7z"/>
	<path fill="#4E4E4E" d="M101.2,62.1c0.1,2.8,0.2,5.6,0.3,8.4c0.1,0,0.1,0,0.2,0c0-1.5,0.1-2.9,0.1-4.4c0-1.5,0.3-3-0.2-4.6
		C101.4,61.8,101.2,61.9,101.2,62.1z"/>
	<path fill="#4E4E4E" d="M117.6,47.3c-0.1-1.7-0.3-3.3-0.4-4.9c-0.1,0-0.2,0-0.4,0c0,1.4,0,2.8,0,4.2C116.9,47,117,47.5,117.6,47.3z
		"/>
	<path fill="#4E4E4E" d="M107.5,71.8c0.9-1.3,0.3-2.2-0.2-3C107.4,69.6,107.4,70.5,107.5,71.8z"/>
	<path fill="#4E4E4E" d="M117.4,56.7c0.4-0.8,0.4-1.7,0.3-2.6C117.2,54.9,117.4,55.8,117.4,56.7z"/>
	<path fill="#4E4E4E" d="M104.3,75.2c0.2-1,0.1-1.7-0.6-2.6C103.5,73.7,103.6,74.4,104.3,75.2z"/>
	<path fill="#4E4E4E" d="M117.3,47.9c-0.2,0.5-0.3,0.6-0.4,0.7c-0.1,0.3-0.3,0.7,0.2,0.8c0.1,0,0.4-0.4,0.5-0.6
		C117.6,48.7,117.5,48.4,117.3,47.9z"/>
	<path fill="#4E4E4E" d="M117.5,51.4c-0.1,0-0.1,0.1-0.2,0.1c0.1,0.3,0.2,0.7,0.3,1c0.1,0,0.2,0,0.3,0c0-0.2,0.1-0.4,0.1-0.6
		C117.8,51.7,117.6,51.6,117.5,51.4z"/>
	<path fill="#4E4E4E" d="M112.9,55.8c0-0.3-0.1-0.5-0.1-0.8c-0.1,0-0.3,0-0.4,0.1c0.1,0.3,0.2,0.5,0.3,0.8
		C112.8,55.9,112.9,55.8,112.9,55.8z"/>
	
		<line fill="none" stroke="#4E4E4E" stroke-width="0" stroke-linecap="round" stroke-linejoin="round" x1="119.3" y1="49.8" x2="119.3" y2="49.8"/>
	<path fill="#4E4E4E" d="M119.3,49.8C119.3,49.8,119.3,49.8,119.3,49.8C119.3,49.7,119.3,49.6,119.3,49.8z"/>
	<path fill="#4E4E4E" d="M119.3,49.8L119.3,49.8C119.3,49.8,119.3,49.8,119.3,49.8C119.3,49.6,119.3,49.7,119.3,49.8z"/>
	<path fill="#4E4E4E" d="M119.1,55.2c0,0-0.1,0.1-0.2,0.1c0.1,0.1,0.2,0.1,0.3,0.2c0,0,0.1-0.1,0.1-0.1
		C119.2,55.4,119.2,55.3,119.1,55.2z"/>
	<path fill="#4E4E4E" d="M120.5,60.7c0.1,0.2,0.1,0.4,0.2,0.6c0.1,0,0.2,0,0.2-0.1c0-0.2-0.1-0.4-0.1-0.6
		C120.7,60.6,120.6,60.7,120.5,60.7z"/>
	<path fill="#4E4E4E" d="M107.7,75.2C107.8,75.2,107.8,75.1,107.7,75.2c0.1-0.1,0.1-0.1,0.1-0.2c0,0-0.1,0-0.1,0
		C107.7,75.1,107.7,75.1,107.7,75.2z"/>
	<path fill="#4E4E4E" d="M120.1,81c0-0.1,0.1-0.2,0.1-0.2c-0.1,0-0.1,0-0.2,0.1C120,80.8,120,80.9,120.1,81z"/>
	<path fill="#4E4E4E" d="M107.8,76.4c0,0,0.1-0.1,0.1-0.1c0,0,0-0.1,0-0.1C107.8,76.2,107.8,76.3,107.8,76.4z"/>
	<path fill="#4E4E4E" d="M117.5,70.7C117.5,70.7,117.5,70.7,117.5,70.7c0.1-0.1,0.1-0.1,0.1-0.2C117.5,70.6,117.5,70.7,117.5,70.7z"
		/>
	<path fill="#4E4E4E" d="M113.1,57.7c0,0,0.1-0.1,0.1-0.1c0,0-0.1-0.1-0.1-0.1l0,0c0,0,0,0-0.1,0c0,0,0,0,0.1,0
		C113,57.6,113.1,57.6,113.1,57.7z"/>
	<path fill="#4E4E4E" d="M119.6,62.2c0,0,0,0.1,0.1,0.1c0,0,0.1-0.1,0.1-0.1c0,0,0-0.1-0.1-0.1C119.6,62.1,119.6,62.2,119.6,62.2z"
		/>
	<polygon fill="#4E4E4E" points="107,63.1 107.1,63.1 107.1,63 	"/>
	<polygon fill="#4E4E4E" points="104.1,77.6 104.2,77.6 104.2,77.5 	"/>
	<path fill="#4E4E4E" d="M114.9,62.1c-0.2-0.1-0.4-0.2-0.8-0.4c0.1,0.6,0.1,0.9,0.2,1.3c0.1,0,0.2,0,0.3,0
		C114.7,62.6,114.8,62.3,114.9,62.1l0-0.1L114.9,62.1z"/>
	<path fill="#4E4E4E" d="M120.2,80.7C120.2,80.7,120.2,80.7,120.2,80.7C120.2,80.7,120.2,80.7,120.2,80.7L120.2,80.7L120.2,80.7z"/>
	<path fill="#4E4E4E" d="M135.6,62.2c-0.1-1.1-0.1-2.1-0.2-3.5c-0.5,0.6-0.7,0.9-1,1.3c0.1,0.3,0.4,0.7,0.4,1.1
		c0,0.2-0.2,0.5-0.3,0.7l0,0h0l0,0.1l0-0.1c-0.4,0-0.9,0.1-1.3,0.1c-0.1-0.8-0.1-1.7-0.2-2.5c-0.1,0-0.1,0-0.2,0
		c-0.2,7.1-0.4,14.2-0.6,21.5c0.6,0,1,0,1.5,0c0-0.5,0-0.8,0-1.2c-0.1-3.1-0.2-6.2-0.3-9.3c0-0.8,0-1.5,1-1.7
		c-1.2-1.3-1.5-3.4-0.7-4.8c0.1-0.2,0.4-0.2,0.6-0.4c0,0,0,0,0-0.1c0,0-0.1-0.1-0.1-0.1c0,0,0-0.1,0.1-0.1c0,0.1,0,0.1,0,0.2
		c0,0,0,0,0,0c0,0.2-0.1,0.4-0.1,0.6c0,0,0,0,0,0c0,0,0,0,0,0c0.5-0.3,1-0.6,1.4-0.9l0,0.1c0,0,0,0,0.1,0c0.1,0.1,0.1,0.2,0.2,0.2
		c0-0.1,0.1-0.2,0.1-0.2c0,0,0,0,0.1,0l0,0c0.2,0.1,0.4,0.1,0.7,0.2c0-0.8,0.6-1.5-0.1-2.1C136.2,61.6,135.9,61.9,135.6,62.2z"/>
	<path fill="#4E4E4E" d="M127,67c-0.9,1.9-0.9,2.7,0,3.9c0.2-0.5,0.4-0.9,0.8-1.6c0.2,1.3,0.3,2.3,0.4,3.3c0.6-1.9,1.5-3.8,0.4-5.9
		C128,67.1,127.6,67.6,127,67z"/>
	<path fill="#4E4E4E" d="M136.3,56.8c-0.1,0.6,0.3,1.3,0.4,2c0.9-1.8,0.9-1.9,0.5-3.6C136.9,55.8,136.4,56.3,136.3,56.8z"/>
	<path fill="#4E4E4E" d="M127.5,66.3c-0.1-0.2-0.2-0.4-0.4-0.6c0,0-0.2,0.1-0.3,0.1c0.1,0.2,0.2,0.4,0.4,0.6
		C127.3,66.4,127.4,66.4,127.5,66.3z"/>
	<path fill="#4E4E4E" d="M131.1,71.6C131.1,71.7,131.1,71.7,131.1,71.6c0.1-0.3,0.1-0.6,0.1-0.9c0,0-0.1,0-0.1,0
		C131.1,71.1,131.1,71.4,131.1,71.6z"/>
	<path fill="#4E4E4E" d="M131,74.6c0.1,0.2,0.2,0.3,0.3,0.4c0-0.2,0-0.4,0-0.7C131.1,74.4,130.9,74.5,131,74.6z"/>
	<path fill="#4E4E4E" d="M136.7,59.6c-0.1,0-0.3,0.1-0.4,0.2c0.1,0.1,0.2,0.4,0.3,0.4c0.1,0,0.3-0.1,0.5-0.2
		C136.9,59.8,136.8,59.6,136.7,59.6z"/>
	
		<line fill="none" stroke="#4E4E4E" stroke-width="0" stroke-linecap="round" stroke-linejoin="round" x1="131.1" y1="64.3" x2="131.1" y2="64.3"/>
	<path fill="#4E4E4E" d="M131.1,64.3C131.1,64.3,131.1,64.3,131.1,64.3C131.1,64.3,131.1,64.3,131.1,64.3
		C131.1,64.3,131.1,64.3,131.1,64.3z"/>
	<path fill="#4E4E4E" d="M131.1,64.3L131.1,64.3C131.1,64.3,131.1,64.3,131.1,64.3C131.1,64.4,131.2,64.5,131.1,64.3z"/>
	<path fill="#4E4E4E" d="M131.1,64.3C131.1,64.4,131.1,64.5,131.1,64.3L131.1,64.3z"/>
	<path fill="#4E4E4E" d="M138,52c0.1-0.5,0.1-0.7,0.2-0.8c-0.1,0-0.2,0-0.3,0C137.9,51.3,137.9,51.4,138,52z"/>
	<path fill="#4E4E4E" d="M126.9,58.6c0,0,0-0.1,0-0.1c0,0.1,0,0.2,0,0.2C126.9,58.7,126.9,58.6,126.9,58.6z"/>
	<path fill="#4E4E4E" d="M139,49.7c0-0.1,0.1-0.2,0.1-0.2c0,0-0.1,0-0.1,0C139,49.5,139,49.6,139,49.7z"/>
	<path fill="#4E4E4E" d="M131,62.1c0,0.1,0.1,0.1,0.2,0.2c0-0.1,0.1-0.2,0.1-0.3c-0.1,0-0.1-0.1-0.2-0.1C131,62,131,62.1,131,62.1z"
		/>
	<path fill="#4E4E4E" d="M135.3,58c0.1,0,0.1-0.2,0.2-0.2c-0.1,0-0.2-0.1-0.3-0.1c0,0.1-0.1,0.2-0.1,0.3
		C135.1,57.9,135.2,58,135.3,58z"/>
	<polygon fill="#4E4E4E" points="135.3,66.5 135.5,66.4 135.3,66.4 	"/>
	<polygon fill="#4E4E4E" points="131.2,76.5 131.2,76.3 131.1,76.3 	"/>
	<path fill="#4E4E4E" d="M136.5,67.6c0,0,0,0.1,0,0.1c0,0,0.1-0.1,0.1-0.1C136.7,67.6,136.6,67.5,136.5,67.6
		C136.6,67.5,136.5,67.5,136.5,67.6z"/>
	<path fill="#4E4E4E" d="M137.2,55.1C137.2,55.1,137.2,55.2,137.2,55.1c0,0.1,0,0.1,0,0.1c0,0,0,0,0,0
		C137.2,55.2,137.2,55.1,137.2,55.1z"/>
	<path fill="#4E4E4E" d="M137.2,54.9c0,0.1,0,0.1,0,0.2c0,0,0-0.1,0-0.1C137.2,55,137.2,54.9,137.2,54.9z"/>
	<path fill="#4E4E4E" d="M131.2,59.6c0,0-0.1,0-0.1,0c0,0,0,0.1,0,0.1c0,0,0.1,0,0.1,0C131.2,59.7,131.2,59.7,131.2,59.6z"/>
	<path fill="#4E4E4E" d="M131.2,73.5c0,0,0-0.1,0-0.1c0,0-0.1,0-0.1,0c0,0,0,0.1,0,0.1C131.1,73.5,131.2,73.5,131.2,73.5z"/>
	<path fill="#4E4E4E" d="M135.5,65.2c0,0-0.1,0.1-0.1,0.1c0,0,0.1,0.1,0.1,0.1C135.5,65.4,135.5,65.4,135.5,65.2
		C135.6,65.3,135.5,65.2,135.5,65.2z"/>
	<path fill="#4E4E4E" d="M134.2,64.2C134.2,64.2,134.2,64.2,134.2,64.2C134.2,64.1,134.2,64.1,134.2,64.2
		C134.2,64.1,134.2,64.2,134.2,64.2z"/>
	<polygon fill="#4E4E4E" points="137.2,50.8 137.1,50.8 137.1,50.7 137,50.8 137.1,50.8 	"/>
	<path fill="#4E4E4E" d="M151.5,64.5c-0.2,4.2-0.3,8.5-0.5,12.7c-1-2.6-0.2-5.5-0.7-8.4c-0.5,3.1-0.8,10.8-0.4,12.3c0.3,0,0.7,0,1,0
		c0.4,0,0.8-0.1,1.4-0.1c-0.2-5.5-0.4-11-0.5-16.4C151.7,64.5,151.6,64.5,151.5,64.5z"/>
	<path fill="#4E4E4E" d="M144.4,71.8c0,0.1,0,0.1,0,0.2c0,0,0,0,0-0.1C144.4,71.9,144.4,71.9,144.4,71.8z"/>
	<path fill="#4E4E4E" d="M86.5,74.3c-0.1,0.3-0.2,0.6-0.4,1c-0.1-1.1-0.2-2.1-0.3-3c-0.1,0-0.2,0-0.3,0c-0.1,1.2-0.3,2.4-0.5,4
		c-0.2-2.9-0.4-5.5-0.6-8c-0.1,0-0.2,0-0.2,0c-0.2,4.2-0.4,8.3-0.6,12.6c1.3,0,2.4,0,3.7,0c-0.2-2.3-0.4-4.5-0.6-6.6
		C86.6,74.3,86.6,74.3,86.5,74.3z"/>
	<path fill="#4E4E4E" d="M92,76.5c0,0,0-0.1,0-0.1c-0.1,0-0.1,0.1-0.2,0.1C91.9,76.4,91.9,76.5,92,76.5z"/>
</g>
</svg>
