<?xml version="1.0" encoding="utf-8"?>
<!-- Generator: Adobe Illustrator 18.0.0, SVG Export Plug-In . SVG Version: 6.00 Build 0)  -->
<!DOCTYPE svg PUBLIC "-//W3C//DTD SVG 1.1//EN" "http://www.w3.org/Graphics/SVG/1.1/DTD/svg11.dtd">
<svg version="1.1" id="Layer_1" xmlns="http://www.w3.org/2000/svg" xmlns:xlink="http://www.w3.org/1999/xlink" x="0px" y="0px"
	 viewBox="0 0 500 400" enable-background="new 0 0 500 400" xml:space="preserve">
<g>
	<polygon fill="none" points="265.4,99.5 265.4,99.5 265.4,99.6 	"/>
	<path fill="none" d="M265,102c0,0,0.1,0.1,0.1,0.1c0-0.1,0-0.2,0-0.3C265,101.9,265,101.9,265,102z"/>
	<path fill="none" d="M275.5,68.8c-0.1-0.1-0.1-0.1-0.4-0.3c-3.9,0.7-8,1.5-12.3,2.3c0,1.3,0,2.2,0,3.2c0,3.1,0,6.1,0,9.2
		c0,0.7,0,1.8-0.5,2.1c-1.1,1-2.1,2.1-3.9,2.7c-0.1-1.1-0.2-1.9-0.2-2.7c-0.1-4.6-0.3-9.2-0.3-13.8c0-1.3-0.4-2.2-1.4-2.9
		c-1.9-1.5-3.7-3-5.6-4.5c-0.4-0.3-1-0.4-1.6-0.6c1.8,1.8,3.6,3.6,5.4,5.3c1.2,1.1,1.6,2.2,1.5,3.8c-0.2,4.6-0.4,9.2-0.2,13.8
		c0.2,2.9-1,4.7-3.3,6.1c-0.4,0.2-0.8,0.5-1.1,0.8c0,12.8,0,25.6,0,38.5c4,0.3,7.9-0.1,11.8,0c4,0.1,8,0.2,12.1-0.1
		c0.1-0.7,0.1-1.2,0.1-1.6c0-20.3-0.1-40.7-0.1-61C275.6,69,275.6,68.9,275.5,68.8z M253.1,94.3c0,0.1,0,0.1-0.1,0.2
		c0-0.1,0-0.3,0-0.4C253.1,94.1,253.1,94.2,253.1,94.3z M253.5,105.6c0.2,0.3,0.4,0.7,0.6,1c-0.2,0.1-0.3,0.2-0.5,0.2
		c-0.2-0.3-0.4-0.7-0.6-1C253.2,105.8,253.5,105.6,253.5,105.6z M255.1,116.9c-0.2-1.7-0.4-3.3-0.7-5.3c-0.5,1-0.8,1.7-1.2,2.5
		c-1.4-2-1.4-3.2,0.1-6.3c1,0.9,1.7,0.1,2.5-0.3C257.6,110.7,256.1,113.8,255.1,116.9z M259.9,95.8c0.1,0,0.2,0,0.2,0.1
		c0,0.1,0,0.2-0.1,0.2c-0.1,0-0.2,0-0.2-0.1C259.9,96,259.9,95.9,259.9,95.8z M260,122.9l-0.1-0.3l0.2,0L260,122.9z M260.1,120.5
		c-0.1-0.2-0.3-0.4-0.4-0.7c0-0.1,0.2-0.2,0.5-0.5C260.1,119.8,260.1,120.1,260.1,120.5z M259.9,103.4
		C259.9,103.7,259.9,103.6,259.9,103.4C259.9,103.4,259.9,103.4,259.9,103.4L259.9,103.4L259.9,103.4
		C260,103.8,260,103.6,259.9,103.4C259.9,103.4,259.9,103.4,259.9,103.4z M260,113.7c0,0.5,0,1,0,1.5c0,0-0.1,0-0.1,0
		c0-0.5,0-0.9,0-1.4C259.9,113.7,260,113.7,260,113.7z M259.9,117.9c0,0,0.1,0,0.2-0.1c0,0.1,0.1,0.1,0.1,0.2c-0.1,0-0.2,0-0.3,0.1
		C259.8,118.1,259.8,118,259.9,117.9z M260,100.2c-0.1-0.1-0.2-0.2-0.3-0.3c0,0,0.1-0.2,0.1-0.2c0.1,0,0.2,0.1,0.3,0.1
		C260.1,99.9,260.1,100.1,260,100.2z M269.4,81.6l0,0.1l0.1,0l-0.1,0L269.4,81.6L269.4,81.6z M266.4,92.7c0.1,0.1,0.3,0.1,0.4,0.2
		c-0.1,0.1-0.1,0.3-0.2,0.4c-0.1,0-0.3-0.1-0.4-0.2C266.3,93,266.3,92.9,266.4,92.7z M266.7,106.9l0-0.2l0.2,0.1L266.7,106.9z
		 M266.9,105.2c-0.1,0-0.1-0.1-0.1-0.2c0.1,0,0.1-0.1,0.2-0.1c0.1,0,0.1,0.1,0.1,0.2C267,105.1,267,105.2,266.9,105.2z M268.6,108.8
		c0-0.1-0.1-0.1-0.1-0.2c0-0.1,0.1-0.1,0.1-0.2c0,0.1,0.1,0.1,0.1,0.2C268.8,108.7,268.7,108.8,268.6,108.8z M268.8,102.1
		c-0.4-0.1-0.7-0.2-1.1-0.3l0.1,0.1c0,0-0.1,0-0.1,0c-0.1,0.1-0.1,0.3-0.2,0.4c-0.1-0.1-0.2-0.3-0.3-0.4c0,0-0.1,0-0.1,0l0-0.1
		c-0.8,0.5-1.5,0.9-2.3,1.4c0,0,0,0,0,0c0,0,0,0-0.1,0c0-0.1,0-0.1,0-0.2c0,0,0,0.1,0.1,0.1c0,0,0,0,0.1-0.1
		c0.1-0.3,0.1-0.6,0.2-0.9c0,0,0,0-0.1-0.1c0,0,0,0.1,0,0.1c-0.3,0.2-0.8,0.3-1,0.6c-1.3,2.2-0.9,5.6,1,7.8
		c-1.5,0.3-1.6,1.4-1.5,2.7c0.2,5,0.3,10,0.4,15c0,0.6,0,1.1,0,1.9c-0.9,0-1.5,0-2.5,0c0.4-11.6,0.7-22.9,1-34.3c0.1,0,0.2,0,0.3,0
		c0.1,1.3,0.2,2.6,0.3,4c0.7-0.1,1.4-0.1,2.1-0.2l0-0.1c0.2-0.4,0.6-0.8,0.5-1.1c-0.1-0.6-0.5-1.2-0.7-1.7c0.5-0.6,0.9-1.2,1.7-2.1
		c0.1,2.2,0.2,3.8,0.4,5.6c0.4-0.4,0.9-0.8,1.4-1.3C269.8,99.8,268.9,100.8,268.8,102.1z M268.6,96.8c-0.2,0-0.3-0.4-0.4-0.6
		c0.2-0.1,0.5-0.4,0.7-0.4c0.2,0,0.4,0.4,0.6,0.6C269.1,96.6,268.8,96.8,268.6,96.8z M268.9,94.6c-0.3-1.1-0.8-2.2-0.7-3.2
		c0.1-0.9,0.9-1.7,1.4-2.6c0,0,0-0.1,0-0.1c0,0,0-0.1,0-0.1c0-0.1,0-0.2,0-0.3c0,0.1,0.1,0.1,0.1,0.2c0,0,0,0.1,0,0.1
		c0,0.1,0,0.1,0,0.2c0,0,0,0,0,0C270.4,91.6,270.3,91.7,268.9,94.6z M270.9,83.7c-0.1-0.9-0.1-1.1-0.2-1.4c0.1,0,0.3,0,0.4,0
		C271.2,82.6,271.1,82.8,270.9,83.7z M272.6,80c0-0.2,0-0.3,0-0.4c0,0,0.1,0,0.1,0C272.7,79.7,272.6,79.8,272.6,80z"/>
	<path fill="none" d="M248.7,62.9c-0.2-0.3-0.3-0.6-0.5-0.8c0,0,0,0,0,0C248.4,62.3,248.5,62.6,248.7,62.9c0.1,0.3,0.3,0.5,0.5,0.6
		c0.1,0,0.1,0,0.2,0c0,0-0.1-0.1-0.1-0.1C249.1,63.2,248.9,63.1,248.7,62.9z"/>
	<polygon fill="none" points="259.9,103.4 259.9,103.4 259.9,103.4 	"/>
	<path fill="none" d="M302.2,78.3c0-0.1-0.1-0.2-0.1-0.2c-0.1-0.1-0.1-0.1-0.4-0.3c-2.3,0.4-4.7,0.8-7.3,1.2c0,4.5,0,8.7,0,12.5
		c-1.4,0.6-2.4,1.1-3.4,1.6c-0.2-1.2-0.6-2.6-0.6-4c-0.1-3,0-6.1,0.1-9.1c0-1.1-0.2-2-1.2-2.8c-2.5-1.9-5-3.9-7.5-5.8
		c-0.4-0.3-1-0.2-1.5-0.3c2.8,2.6,5.6,5.1,8.3,7.8c0.5,0.5,0.7,1.5,0.7,2.3c0.1,2.9,0,5.7-0.1,8.6c0,0.6,0.1,1.4-0.2,1.7
		c-1.5,1.3-1,3-1,4.5c-0.1,3.1,0,6.3,0,9.6c-2.6,0.1-4.9,0.2-7.3,0.4c0,2.5-0.1,4.7,0,6.9c0,1,0.3,1.9,0.5,2.9c0,0,0,0,0,0
		c0-0.1,0-0.2-0.1-0.3c0,0.1,0.1,0.1,0.1,0.2c0,0,0,0.1,0,0.1c0,0.1,0,0.1,0,0.2l0-0.1c-0.6,5.3-0.8,10.5-0.4,15.8
		c7.3,0.3,14.4,0.3,21.6,0.1c0-1,0.1-1.7,0.1-2.3c0-16.9,0-33.7,0-50.6C302.4,78.6,302.3,78.5,302.2,78.3z M291.5,130.2
		c-0.6,0-1.1,0-1.7,0c-0.6-2.3-0.2-14.7,0.6-19.6c0.9,4.6-0.4,9.2,1.2,13.4c0.3-6.7,0.5-13.5,0.8-20.3c0.1,0,0.3,0,0.4,0
		c0.3,8.7,0.6,17.4,0.8,26.3C292.8,130.1,292.2,130.2,291.5,130.2z"/>
	<path fill="none" d="M344.3,118.2C344.3,118.2,344.3,118.2,344.3,118.2C344.3,118.2,344.3,118.2,344.3,118.2
		C344.3,118.2,344.3,118.2,344.3,118.2z"/>
	<path fill="none" d="M306.5,79.2C306.5,79.2,306.5,79.3,306.5,79.2C306.5,79.3,306.5,79.2,306.5,79.2
		C306.5,79.2,306.5,79.2,306.5,79.2z"/>
	<path fill="none" d="M279.8,70.1c0,0,0,0.1,0,0.1c0.1,0.3,0.3,0.5,0.4,0.8c-0.1-0.3-0.2-0.5-0.3-0.8
		C279.8,70.1,279.8,70.1,279.8,70.1z"/>
	<path fill="none" d="M329,108.5c-0.1-0.1-0.2-0.1-0.3-0.2c0,0.1-0.1,0.1-0.1,0.2C328.8,108.6,328.9,108.6,329,108.5
		c0.1,0.4,0.1,0.7,0.2,1c0,0,0.1,0,0.1,0c0,0,0,0-0.1-0.1C329.2,109.1,329.1,108.8,329,108.5z"/>
	<path fill="none" d="M248.1,61.9c0,0,0.1,0,0.1,0.1c0,0,0,0,0-0.1C248.1,61.9,248.1,61.9,248.1,61.9z"/>
	<path fill="none" d="M280.2,71c0,0,0,0.1,0.1,0.1c0,0,0,0,0,0c0,0,0,0,0,0C280.2,71,280.2,71,280.2,71z"/>
	<path fill="none" d="M306.3,79.2c0.1,0,0.1,0,0.2,0c0,0,0,0,0-0.1C306.4,79.2,306.4,79.2,306.3,79.2z"/>
	<path fill="none" d="M339.4,166.3c-0.4,4.6-0.3,20.6,0.3,22.9c2,0,4,0.3,6.2-0.1c0-7.7,0-15.2,0-23.1
		C343.4,166,341.4,165.6,339.4,166.3z"/>
	<path fill="none" d="M136.9,230.3c0.5-5.2,0.3-61.9-0.3-64.2c-1.9,0-3.9,0-6.3,0c0,21.5,0,42.8,0,64.4
		C133.7,230.9,134.9,230.9,136.9,230.3z"/>
	<path fill="none" d="M198.2,79.5C198.1,79.4,198.1,79.4,198.2,79.5c-0.1-0.1-0.1-0.1-0.1-0.1C198,79.4,198,79.4,198.2,79.5
		C198.1,79.4,198.1,79.5,198.2,79.5z"/>
	<path fill="none" d="M198.2,79.5C198.2,79.5,198.2,79.5,198.2,79.5c-0.1,0,0,0.1,0,0.1C198.2,79.6,198.3,79.5,198.2,79.5z"/>
	<path fill="none" d="M94.5,122c0.4-0.8,0.8-1.5,1.2-2.3c26-50.4,76.8-87.7,139-93.2c17.7-1.6,35.3-0.6,52.6,3.6
		c52.2,12.4,90.9,42.6,116.2,89.8c0.4,0.7,0.7,1.4,1.1,2c0.6,1,1.4,1.2,2.4,0.6C382.9,69.9,320.2,18,236.1,24.3
		c-38.7,2.9-72.7,17.4-101.9,42.8C117,82,94.3,112.3,92.3,122.7C93.1,122.9,93.9,123,94.5,122z"/>
	<path fill="none" d="M176.3,101.5c-0.8-0.2-1.5-0.3-2.2-0.5c-0.1-1.3-0.2-2.5-0.4-3.7c-0.7,0-1.2-0.1-1.6,0c-1.6,0.3-3.2,0.6-5,0.9
		c-0.2,1.4-0.3,2.5-0.4,3.6c-0.8,0.3-1.5,0.5-2.3,0.8c-0.1,1.6-0.2,3.1-0.2,4.5c-0.8,0.4-1.4,0.7-2.2,1.1c0,2.9,0,5.8,0,8.8
		c-4.2,0.3-8.2,0.7-12.3,1c-0.1,2.5-0.2,4.7-0.3,7.1c-2.8,0.1-5.4,0.2-7.9,0.3c0,2.3,0,4.2,0,6.3c0.7,0.1,1.1,0.2,1.6,0.2
		c11.7,0,23.4-0.1,35.1-0.1c0.1,0,0.1-0.1,0.2-0.2c0.1-0.1,0.1-0.1,0.2-0.2c0-8.3,0-16.5,0-24.7c-0.7-0.2-1.2-0.4-1.9-0.6
		C176.4,104.7,176.4,103.2,176.3,101.5z"/>
	<path fill="none" d="M229.1,108.2C229.1,108.3,229.1,108.3,229.1,108.2l0.1,0L229.1,108.2z"/>
	<path fill="none" d="M241,80.1C241,80.1,241,80.1,241,80.1C241,80.1,241,80.1,241,80.1C241,80.1,241,80.1,241,80.1z"/>
	<path fill="none" d="M199,82.6c0-0.1-0.1-0.2-0.2-0.2c-0.1-0.1-0.1-0.1-0.3-0.2c-1.2,0.1-2.6,0.1-4,0.2c-0.1-1.9-0.2-3.7-0.4-5.6
		c-2.5,0.4-4.6,0.8-6.8,1.2c-0.1,2-0.2,3.8-0.3,5.6c-1.6,0.4-3,0.6-4.6,1c0,5,0,9.9,0,14.9c-1.6-0.4-2.9-0.8-4.4-1.1
		c1.3,2,4.7,1.6,4.3,5c-0.9-0.1-1.7-0.2-2.8-0.3c1.2,0.9,2,1.5,2.9,2.2c0,2.9,0,5.9,0,8.9c0,3,0,5.9,0,8.9c0,2.9-0.1,5.9,0.1,9
		c5,0,9.7,0,14.4,0c0.7,0,1.3-0.5,2.1-0.9c0-12.7,0-25.2,0-37.8C199.1,89.7,199.1,86.1,199,82.6z M184,130
		c0.3-6.8,0.6-13.5,0.9-20.1c0.1,0,0.2,0,0.4,0c0.3,4,0.6,8.1,0.9,12.8c0.3-2.6,0.5-4.5,0.7-6.5c0.2,0,0.3,0,0.5,0
		c0.1,1.5,0.3,3,0.4,4.8c0.3-0.7,0.4-1.2,0.6-1.6c0.1,0,0.2,0,0.4,0c0.3,3.5,0.7,6.9,1,10.6C187.9,130,186.1,130,184,130z
		 M197.3,122.9c-0.1,0-0.1-0.1-0.2-0.1c0.1,0,0.2-0.1,0.3-0.1C197.3,122.7,197.3,122.8,197.3,122.9z"/>
	<path fill="none" d="M219.7,65.8c-0.1,0.6-0.2,0.8-0.2,0.9c0,2.8,0,5.6,0,8.3c-0.1,5.3,0.8,3.9-3.7,6.8c-0.9,0.6-1.7,1.2-2.6,1.8
		c0,3.9,0,7.8,0,11.7c-0.9,0.6-1.6,1.1-2.5,1.6c-0.8,0.5-1.6,0.9-2.9,1.6c0-3.7,0-6.9,0-10c0-0.7-0.1-1.7-0.6-2.1
		c-1.3-1.2-2.7-2.1-4.4-2.6c0.3,0.7,0.7,1.3,1.2,1.7c1.6,1.2,2,2.8,1.9,4.8c-0.2,5.5-0.1,10.9-0.2,16.4c0,1,0,2.1,0,2.8
		c-1.7,1-3.1,1.8-4.3,2.5c-0.5,8.1-0.3,17.7,0.4,19.8c14,0,28.1,0,42.3,0c0.5-5.5,0.3-69.2-0.2-71.4C235.7,62.2,227.6,64,219.7,65.8
		z M213.1,106.2c0,2.3-0.1,4.7-0.2,7c-0.1,0-0.2,0-0.3,0c-0.2-4.5-0.4-8.9-0.5-13.4c0-0.2,0.3-0.4,0.6-1
		C213.6,101.5,213,103.9,213.1,106.2z M237.1,68.4c0.2,0,0.4-0.1,0.6-0.1c0.2,2.6,0.5,5.2,0.7,7.9c-1,0.4-1.2-0.5-1.2-1
		C237,72.9,237.1,70.7,237.1,68.4z M230.9,92.5L230.9,92.5c0.1,0.1,0.2,0.1,0.3,0.2c0,0.1-0.1,0.1-0.1,0.2
		C231,92.7,231,92.6,230.9,92.5C230.9,92.5,230.9,92.5,230.9,92.5C230.9,92.5,230.9,92.5,230.9,92.5z M230.6,88.6
		c0.1,0.4,0.2,0.8,0.2,1.2c-0.1,0-0.3,0.1-0.4,0.1c-0.2-0.4-0.3-0.8-0.5-1.2C230.2,88.7,230.4,88.6,230.6,88.6z M216.7,124.7
		l0.1-0.2l0.1,0.2L216.7,124.7z M217.1,120.8c-1.2-1.3-1.3-2.4-0.9-4.2C217.3,118.1,217.5,119.2,217.1,120.8z M221.4,101.4l0.1-0.1
		l0,0.2L221.4,101.4z M220.2,95.7c-0.2,3.7-0.4,7.5-0.6,11.3c-0.1,0-0.2,0-0.3,0c-0.4-1.2-0.7-2.3-1.1-3.6c0.2-0.9,0.6-2,0.6-3.1
		c-0.1-4.5-0.4-9-0.6-13.5c-0.1-1.3,0-2.6,0-4.2c1,0,1.5,0,2,0c0.2,0.2,0.3,0.4,0.4,0.5c0.4,0.9-0.5,2.2,1,2.6
		c-0.1,0.4-0.1,0.9-0.4,1.2c-1.4,1.5-0.7,3.3-0.9,5.1c2.2,0.5,0.5,2.3,1.2,3.3C221,95.4,220.7,95.5,220.2,95.7z M222.5,122.7
		c0-0.1,0-0.2,0-0.4c0,0.1,0.1,0.1,0.1,0.2C222.6,122.6,222.6,122.7,222.5,122.7z M222.7,120.7c0,0-0.1,0-0.2,0.1
		c0-0.1,0-0.1-0.1-0.2c0.1,0,0.2,0,0.2-0.1C222.7,120.6,222.7,120.6,222.7,120.7z M222.2,115.3c-0.1-2-0.2-3.4-0.3-4.9
		C222.7,111.8,223.6,113.2,222.2,115.3z M232.6,107.7c-0.4,1.3-1.4,2.3-2.2,3.5c-0.9-0.6-1.6-1.1-2.5-1.7c0.5-0.5,0.8-0.9,1.2-1.3
		H229c0.2-0.3,0.6-0.6,0.6-1c0.3-2.3,2.4-3,3.6-5.1C233,104.4,233.1,106.2,232.6,107.7z M233.4,101.2c-0.2,0-0.3,0-0.5,0
		c-0.1-0.6-0.2-1.2-0.3-2.1c0.6,0.3,1,0.5,1.3,0.7l0-0.2l0.1,0.1C233.8,100.2,233.6,100.7,233.4,101.2z M237.4,79.6
		c-0.8-0.2-0.5-0.8-0.3-1.3c0.1-0.2,0.3-0.5,0.6-1.2c0.3,0.8,0.6,1.2,0.5,1.5C238.1,79,237.6,79.7,237.4,79.6z M238.1,113.6
		c0-0.1,0.1-0.2,0.1-0.3c0,0.1,0,0.1,0.1,0.2C238.2,113.6,238.1,113.6,238.1,113.6z M238,91.2c-0.1-1.4-0.4-2.9,0.5-4.2
		C238.7,88.5,238.7,89.9,238,91.2z M238.6,84.6c-0.1,0-0.3,0-0.4,0c-0.1-0.5-0.3-1.1-0.4-1.6c0.1-0.1,0.2-0.1,0.3-0.2
		c0.2,0.3,0.5,0.5,0.6,0.8C238.8,83.9,238.6,84.2,238.6,84.6z M240.8,89.4c-0.1-0.1-0.3-0.2-0.4-0.3c0.1-0.1,0.2-0.2,0.3-0.2
		c0.1,0.1,0.2,0.2,0.3,0.3C241,89.3,240.9,89.3,240.8,89.4z M241,80.1L241,80.1C241,80,241,79.8,241,80.1C241,79.8,241,80,241,80.1
		C241,80.1,241,80.1,241,80.1z M241.6,100.2c0-0.1-0.1-0.1-0.1-0.2c0-0.1,0.1-0.1,0.1-0.2c0,0.1,0.1,0.1,0.1,0.2
		C241.6,100.1,241.6,100.2,241.6,100.2z M242.4,129.7c0,0.1-0.1,0.2-0.1,0.4c-0.1-0.1-0.1-0.2-0.2-0.3
		C242.2,129.7,242.3,129.7,242.4,129.7C242.4,129.6,242.4,129.6,242.4,129.7l0.1-0.2l0,0.1C242.5,129.6,242.4,129.7,242.4,129.7z
		 M243.2,98.5c-0.1-0.3-0.2-0.6-0.3-0.9c0.2,0,0.3-0.1,0.5-0.1c0.1,0.3,0.1,0.6,0.2,0.9C243.4,98.5,243.3,98.5,243.2,98.5z"/>
	<path fill="none" d="M198,79.3c-0.4-1.3-1.3-1.9-2.9-2.1C196.5,78.9,196.5,78.9,198,79.3z"/>
	<path fill="none" d="M305.6,297c0,4.8-0.4,3.3,3,6.5c2.2,2.1,4.7,2.9,7.7,2.8c6.3-0.2,6.3-0.1,11-4.1c1-0.9,1.5-1.8,1.5-3.2
		c-0.1-3.6,0-7.3,0-10.9c0-3.5-0.1-7.1,0-10.6c0-1.5-0.3-2.6-1.6-3.4c-0.5-0.3-1-0.7-1.4-1.1c-2.3-2.4-5-2.9-8.3-3
		c-4-0.1-7.2,0.7-10.1,3.6c-1.2,1.3-2,2.3-1.9,4.2C305.6,284.1,305.5,290.5,305.6,297z M315.4,277c1.1,0,2.2,0,3.6,0
		c0,7.4,0,14.7,0,22.4c-1.5,0-2.5,0-3.5,0C314.9,297.2,314.8,279.9,315.4,277z"/>
	<path fill="none" d="M231.7,303.2c-0.4,0.8-0.6,1.7-1,2.8c3.3,0,6.2,0,9.4,0c1.1-3.3,2.3-6.6,3.7-10.5c1.5,3.9,2.7,7.2,3.9,10.5
		c3.2,0,6.1,0,9.4,0c-0.3-1-0.5-1.7-0.8-2.3c-1.9-4.6-3.7-9.2-5.8-13.8c-0.8-1.9-0.9-3.5,0-5.5c1.8-3.8,3.3-7.8,5-11.6
		c0.4-0.9,0.7-1.7,1.1-2.8c-3.4,0-6.4,0-9.6,0c-1,3.1-2,6.2-3.2,10c-1.2-3.8-2.3-6.9-3.3-10c-3.3,0-6.3,0-9.5,0c0.4,1,0.7,1.8,1,2.6
		c1.8,4.2,3.6,8.5,5.6,12.6c0.6,1.3,0.6,2.5,0.1,3.8C235.6,293.8,233.7,298.5,231.7,303.2z"/>
	<path fill="none" d="M344.2,118.2C344.2,118.2,344.2,118.2,344.2,118.2c0.1,0,0.1,0,0.1-0.1C344.3,118.1,344.2,118.1,344.2,118.2z"
		/>
	<path fill="none" d="M271,306.1c0.1-0.4,0.3-0.7,0.3-1c0-10.9,0-21.9,0-32.8c0-0.6-0.1-1.1-0.1-1.7c0-0.1-0.1-0.2-0.2-0.2
		c-0.1-0.1-0.1-0.1-0.2-0.2c-2.8,0-5.7,0-8.7,0c-0.5,4-0.4,33.7,0.2,35.9C265.1,306.1,268.1,306.1,271,306.1z"/>
	<path fill="none" d="M278,301.5c1.7,1.4,3.5,2.7,5.2,4c0.4,0.3,1,0.6,1.6,0.6c3,0,5.9,0,8.9,0c1.7-1.4,3.5-2.7,5.2-4.1
		c0.2-0.2,0.5-0.3,0.6-0.6c0.3-0.4,0.6-0.8,0.6-1.2c0.1-3,0-6.1,0-9.4c-3.2-0.1-6.1-0.3-9.1,0.1c-0.4,2.9,0.1,5.6-0.4,8.3
		c-1.4,0-2.4,0-4,0c0-7.6,0-14.9,0-22.4c1.5,0,2.7,0,4.2,0c0,2.3,0,4.5,0,6.7c3.2,0,6,0,9.2,0c0-2.7,0.1-5.3,0-7.8
		c0-0.6-0.6-1.2-1.1-1.6c-4.5-4.2-4.5-4.2-10.9-4.2c-1.2,0-2.3-0.1-3.4,0c-0.8,0.1-1.7,0.4-2.3,0.8c-1.5,1.1-2.8,2.3-4.2,3.5
		c-0.7,0.6-1.1,1.2-1.1,2.2c0,7.7,0,15.3,0.1,23C277.2,300.2,277.5,301.1,278,301.5z"/>
	<path fill="none" d="M196.9,319c0.9,0.2,1.9,0.4,2.8,0.5c7.2,0.6,14.3,1.3,21.5,1.7c19,1,38,1,57,0c7.1-0.4,14.1-1.1,21.2-1.7
		c0.5,0,1-0.1,1.4-0.2c0.5-0.1,0.9-0.3,1.6-0.6C276.2,315.1,224.6,315,196.9,319z"/>
	<path fill="none" d="M348.8,119.3c-1.6-0.6-2.9-1.5-4.5-1.1c1.2,0.5,2.3,1.1,3.3,1.6c0,1.9,0,3.6,0,5.2c-3.1,0.5-3.7,0.5-5.9-0.2
		c-0.5-2.6,0.3-5.3-0.6-8c-2.4,0.1-4.6,0.3-7,0.4c-0.1-2.1-0.2-3.9-0.3-5.8c-1.5-0.7-2.6-2.2-4.5-2c0.7,0.6,1.4,1.2,2.2,1.7
		c0.9,0.6,1.3,1.3,1.2,2.4c-0.1,1.2-0.2,2.4-0.3,3.8c-2.6,0.2-4.8,0.4-7.2,0.6c-0.9-3.5,0.2-6.9-0.7-10.1c-3.9,0.3-7.6,0.5-11.6,0.8
		c0-1.1-0.1-2.1-0.1-3c-0.1-5.5-0.2-10.9-0.1-16.4c0-2-0.6-3.5-1.9-4.9c-1.5-1.6-2.9-3.4-4.3-5.1c0.2,0.7,0.3,1.4,0.6,2.1
		c0.8,1.5,1.8,3,2.7,4.4c0.8,1.1,1,2.2,1,3.5c-0.2,4.8-0.2,9.6-0.3,14.4c0,1.6,0,3.2,0,4.8c-2.1,1.3-2.1,1.3-2.1,3.4
		c0,6,0,11.9,0,17.9c0,0.7,0.2,1.4,0.3,2.1c4.2,0.4,43.7,0.3,46-0.2c0-1.9,0-3.9,0-6c-1.9-0.1-3.7-0.2-5.5-0.3
		C349,123,348.9,121.2,348.8,119.3z"/>
	<path fill="none" d="M226.5,299.3c-2.4,0-5,0-7.7,0c0-3.2-0.2-6,0.2-9.1c2.3,0,4.4,0,6.5,0c0-2.3,0-4.3,0-6.3
		c-2.2-0.8-4.5,0.2-6.5-0.7c0-2.1,0-4.1,0-6.1c2.6-0.7,5.3,0.3,7.7-0.7c0-2.1,0-4.1,0-6.2c-5.9,0-11.5,0-17.4,0c0,12,0,23.9,0,35.9
		c5.9,0,11.6,0,17.5,0C227.2,302.8,227.2,301.6,226.5,299.3z"/>
	<path fill="none" d="M182,306.1c0-2.6,0-5.1,0-7.5c0-2.4,0-4.8,0-7.2c0-2.4,0-4.8,0-7.2c0.2,0,0.4,0,0.6,0c1.3,7.3,2.6,14.6,4,21.9
		c1.3,0,2.3,0,3.4,0c1.6-7.4,2.5-14.7,4.4-21.9c0.2,3.7,0.2,7.3,0.3,10.9c0,3.6-0.2,7.2,0.2,10.8c3.2,0.5,6.3,0.5,8.3-0.1
		c0.5-5.1,0.3-33.5-0.3-35.6c-3.5,0-7,0-10.6,0c-0.2,0.6-0.4,1.2-0.5,1.7c-0.8,4.3-1.6,8.7-2.4,13c-0.2,0.9-0.2,1.8-1.3,2.7
		c-1.2-6.1-2.4-11.8-3.5-17.5c-3.7,0-7.3,0-10.9,0c-0.5,3.7-0.4,33.6,0.1,35.9C176.4,306.1,179,306.1,182,306.1z"/>
	<path fill="none" d="M294.1,166.2c0,7.7,0,15.2,0,22.9c2.3,0,4.3,0,6.3,0c0.5-3,0.4-20.7-0.1-23.1
		C298.2,166,296.2,165.7,294.1,166.2z"/>
	<path fill="none" d="M404.4,276.4c-0.4,0.9-0.9,1.7-1.3,2.6c-25.7,49.3-75.4,86.4-136.9,92.4c-17.6,1.7-35.1,1-52.4-2.9
		c-52.8-11.9-92-41.9-117.8-89.4c-0.5-0.8-0.9-1.7-1.3-2.6c-0.5-1.2-1.4-1.5-2.5-0.9c21.3,47.2,77.5,98.5,156.7,98.8
		c79.4,0.3,136.4-50.8,158.1-98.8C405.8,275,405,275.2,404.4,276.4z"/>
	<path fill="#4E4E4E" d="M256.1,339.9c60.7-2.6,103.5-43.1,119.2-77.8c-83.8,0-167.6,0-251.6,0C141.6,300.5,189.2,342.8,256.1,339.9
		z M307.4,273.5c2.8-2.9,6.1-3.8,10.1-3.6c3.3,0.1,6,0.6,8.3,3c0.4,0.4,0.9,0.8,1.4,1.1c1.3,0.8,1.6,1.9,1.6,3.4
		c-0.1,3.5,0,7.1,0,10.6c0,3.6-0.1,7.3,0,10.9c0,1.4-0.4,2.3-1.5,3.2c-4.7,4-4.6,3.9-11,4.1c-3.1,0.1-5.5-0.7-7.7-2.8
		c-3.4-3.2-3-1.7-3-6.5c0-6.4,0.1-12.9,0-19.3C305.5,275.9,306.2,274.8,307.4,273.5z M300.7,319.3c-0.5,0.1-0.9,0.2-1.4,0.2
		c-7.1,0.6-14.1,1.3-21.2,1.7c-19,1-38,1-57,0c-7.2-0.4-14.3-1.1-21.5-1.7c-0.9-0.1-1.9-0.3-2.8-0.5c27.8-4,79.4-3.9,105.5-0.3
		C301.6,319,301.2,319.2,300.7,319.3z M278.2,274.3c1.4-1.2,2.7-2.4,4.2-3.5c0.6-0.5,1.5-0.7,2.3-0.8c1.1-0.1,2.3,0,3.4,0
		c6.4,0,6.4,0,10.9,4.2c0.5,0.4,1,1,1.1,1.6c0.1,2.6,0,5.1,0,7.8c-3.2,0-6,0-9.2,0c0-2.2,0-4.4,0-6.7c-1.5,0-2.7,0-4.2,0
		c-0.1,7.4,0,14.8,0,22.4c1.6,0,2.6,0,4,0c0.5-2.7,0-5.5,0.4-8.3c3-0.4,5.9-0.2,9.1-0.1c0,3.3,0,6.3,0,9.4c0,0.4-0.4,0.8-0.6,1.2
		c-0.2,0.2-0.4,0.4-0.6,0.6c-1.7,1.4-3.5,2.7-5.2,4.1c-3,0-5.9,0.1-8.9,0c-0.5,0-1.1-0.3-1.6-0.6c-1.8-1.3-3.6-2.6-5.2-4
		c-0.5-0.4-0.9-1.3-0.9-2c-0.1-7.7,0-15.3-0.1-23C277.1,275.6,277.5,274.9,278.2,274.3z M262.1,270.1c3,0,5.9,0,8.7,0
		c0.1,0.1,0.2,0.2,0.2,0.2c0.1,0.1,0.2,0.1,0.2,0.2c0,0.6,0.1,1.1,0.1,1.7c0,10.9,0,21.9,0,32.8c0,0.3-0.1,0.5-0.3,1
		c-2.9,0-5.8,0-8.7,0C261.7,303.9,261.5,274.1,262.1,270.1z M237.6,285.4c-1.9-4.2-3.7-8.4-5.6-12.6c-0.3-0.8-0.6-1.6-1-2.6
		c3.3,0,6.3,0,9.5,0c1,3.1,2,6.2,3.3,10c1.2-3.8,2.2-6.9,3.2-10c3.2,0,6.2,0,9.6,0c-0.4,1.1-0.7,2-1.1,2.8c-1.6,3.9-3.2,7.8-5,11.6
		c-0.9,1.9-0.8,3.6,0,5.5c2,4.6,3.9,9.2,5.8,13.8c0.3,0.6,0.4,1.2,0.8,2.3c-3.3,0-6.3,0-9.4,0c-1.2-3.3-2.5-6.6-3.9-10.5
		c-1.4,3.9-2.5,7.2-3.7,10.5c-3.2,0-6.1,0-9.4,0c0.4-1.1,0.6-2,1-2.8c1.9-4.7,3.9-9.4,5.9-14.1C238.2,287.8,238.2,286.7,237.6,285.4
		z M209.3,270.2c5.8,0,11.5,0,17.4,0c0,2.1,0,4.1,0,6.2c-2.5,0.9-5.1-0.1-7.7,0.7c0,2,0,4,0,6.1c2,0.9,4.3-0.1,6.5,0.7
		c0,2,0,4,0,6.3c-2.1,0-4.2,0-6.5,0c-0.4,3.1-0.2,6-0.2,9.1c2.7,0,5.2,0,7.7,0c0.7,2.4,0.8,3.5,0.3,6.8c-5.9,0-11.6,0-17.5,0
		C209.3,294,209.3,282.2,209.3,270.2z M173.6,270.1c3.7,0,7.2,0,10.9,0c1.2,5.8,2.3,11.4,3.5,17.5c1.1-0.9,1.2-1.9,1.3-2.7
		c0.8-4.3,1.6-8.7,2.4-13c0.1-0.5,0.3-1.1,0.5-1.7c3.6,0,7.1,0,10.6,0c0.6,2.1,0.8,30.5,0.3,35.6c-2,0.6-5.1,0.7-8.3,0.1
		c-0.4-3.6-0.1-7.2-0.2-10.8c0-3.6,0-7.3-0.3-10.9c-1.9,7.2-2.7,14.5-4.4,21.9c-1.1,0-2.1,0-3.4,0c-1.3-7.3-2.6-14.6-4-21.9
		c-0.2,0-0.4,0-0.6,0c0,2.4,0,4.8,0,7.2c0,2.4,0,4.8,0,7.2c0,2.5,0,4.9,0,7.5c-3,0-5.6,0-8.2,0C173.2,303.8,173.1,273.8,173.6,270.1
		z"/>
	<path fill="#4E4E4E" d="M101.1,136.1c0.4-0.9,0.9-1.7,1.2-2.6c29.6-66,98.6-104.1,170.2-93.9c23.2,3.3,44.6,11.3,64.2,24
		c26.9,17.4,46.9,40.8,60,70c0.9,1.9,1.8,2.8,4,2.7c13.8-0.1,27.6-0.1,41.5-0.2c0.7,0,1.5-0.2,2.3-0.3c0-4.3,0-8.4,0-13
		c-1.3,0-2.3,0-3.4,0c-8.6,0-17.3,0-25.9,0c-0.8,0-1.5,0-2.3,0c-0.8,0-1.5-0.3-1.8-1.1c-0.2-0.5-0.5-1-0.8-1.5
		c-27.1-55.3-82.9-96.2-151.1-100c-18.3-1-36.5,0.6-54.2,5.4c-52.6,14.3-91.2,45.9-116.1,94.3c-0.5,0.9-1,1.9-1.6,3
		c-10.8,0-21.7,0-32.4,0c-0.6,3-0.5,10.9,0.1,13.2C70.3,136.1,85.6,136.1,101.1,136.1z M134.2,67.1c29.3-25.4,63.3-39.9,101.9-42.8
		C320.2,18,382.9,69.9,407,122.5c-1,0.6-1.8,0.5-2.4-0.6c-0.4-0.7-0.7-1.4-1.1-2c-25.4-47.2-64-77.3-116.2-89.8
		C270,26,252.4,25,234.7,26.5c-62.3,5.5-113,42.8-139,93.2c-0.4,0.8-0.8,1.5-1.2,2.3c-0.5,1-1.3,0.9-2.2,0.7
		C94.3,112.3,117,82,134.2,67.1z"/>
	<path fill="#4E4E4E" d="M444.5,262c-15.7,0-31.1,0-46.6,0c-12.9,29.6-32.6,53.5-59.5,71.3c-26.9,17.8-56.6,26.7-88.8,26.7
		c-32.4,0-62.1-8.9-89.1-26.8c-26.9-17.8-46.5-41.8-59.3-71.2c-5.2-0.5-44.5-0.3-46.5,0.3c0,4.2,0,8.4,0,12.8c11,0,21.8,0,32.6,0
		c20.9,42.3,52.6,73,96.4,90.3c43.7,17.3,88,17.3,131.7,0c43.8-17.3,75.5-48,96.4-90.2c2.2,0,4.4,0,6.6,0c2.2,0,4.4,0,6.6,0
		c2.1,0,4.2,0,6.3,0c2.2,0,4.4,0.1,6.6,0c2.2-0.1,4.4,0.4,6.7-0.4c0-2.2,0-4.3,0-6.4C444.6,266.3,444.6,264.2,444.5,262z
		 M248.9,374.3c-79.2-0.3-135.4-51.6-156.7-98.8c1.2-0.5,2-0.3,2.5,0.9c0.4,0.9,0.9,1.7,1.3,2.6c25.8,47.5,65.1,77.5,117.8,89.4
		c17.3,3.9,34.8,4.7,52.4,2.9c61.4-6,111.2-43.1,136.9-92.4c0.4-0.9,0.9-1.7,1.3-2.6c0.6-1.2,1.4-1.4,2.6-0.9
		C385.3,323.5,328.3,374.6,248.9,374.3z"/>
	<path fill="#4E4E4E" d="M375.3,136c-2.3-7.2-13.6-23.6-23-33.5c-17.1-18.1-37.6-30.8-61.2-38.3c-0.3-0.7-0.5-1.3-0.9-2.2
		c-0.3,0.7-0.4,1.1-0.7,1.7c-0.8-0.2-1.5-0.3-2.1-0.5c-16.3-4.5-32.8-6-49.6-4.6c-16.9,1.4-33,5.6-48.3,12.9
		c-28.1,13.4-49.5,33.9-64.4,61.3c-0.5,1-1.3,1.9-1.2,3.3c0.9,0,1.7,0.1,2.6,0.1c39,0,77.9,0,116.9,0c8.5,0,17.1,0,25.6,0
		c1.9,0,3.8-0.1,5.8,0c0.7,0,1.4,0.6,2,0.8c1.1-1.6,2.6-0.8,4.2-0.5c0.3,1,0.6,1.9,1.1,3.2c0.4-1.3,0.8-2.3,1.1-3.4c3,0,6,0,9.1,0
		c3.1,0,6.1-0.1,9.2-0.1c3.1,0,6.1,0,9.2,0c3.1,0,6.1,0,9.2,0c3.1,0,6.1,0,9.2,0c3.2,0,6.3,0,9.5,0c3.1,0,6.1,0,9.2,0
		c3.1,0,6.1,0,9.2,0c3.1,0,6.1,0,9.2,0C369.2,136.1,372.2,136.2,375.3,136z M198,79.3C198.1,79.4,198.1,79.4,198,79.3
		c0.1,0.1,0.1,0.1,0.1,0.1c0,0,0.1,0,0.1,0c0,0,0,0.1,0,0.1c0-0.1-0.1-0.1-0.1-0.2C198.1,79.5,198.1,79.4,198,79.3
		C198,79.4,198,79.4,198,79.3c-1.5-0.4-1.5-0.4-2.9-2.1C196.7,77.4,197.6,78,198,79.3z M178.4,131.5c0,0-0.1,0.1-0.2,0.2
		c-0.1,0.1-0.1,0.2-0.2,0.2c-11.7,0-23.4,0.1-35.1,0.1c-0.5,0-0.9-0.1-1.6-0.2c0-2,0-4,0-6.3c2.6-0.1,5.1-0.2,7.9-0.3
		c0.1-2.4,0.2-4.6,0.3-7.1c4.1-0.3,8.1-0.7,12.3-1c0-3,0-5.9,0-8.8c0.8-0.4,1.5-0.7,2.2-1.1c0.1-1.4,0.2-3,0.2-4.5
		c0.8-0.3,1.5-0.5,2.3-0.8c0.1-1.1,0.3-2.2,0.4-3.6c1.8-0.3,3.4-0.6,5-0.9c0.5-0.1,0.9,0,1.6,0c0.1,1.2,0.2,2.4,0.4,3.7
		c0.8,0.2,1.5,0.3,2.2,0.5c0.1,1.6,0.2,3.1,0.3,4.7c0.6,0.2,1.2,0.4,1.9,0.6C178.4,115,178.4,123.2,178.4,131.5z M199.1,131
		c-0.8,0.3-1.5,0.9-2.1,0.9c-4.7,0.1-9.4,0-14.4,0c-0.2-3.1-0.1-6.1-0.1-9c0-3,0-5.9,0-8.9c0-3,0-5.9,0-8.9
		c-0.9-0.7-1.8-1.3-2.9-2.2c1.2,0.1,1.9,0.2,2.8,0.3c0.4-3.3-3.1-3-4.3-5c1.5,0.4,2.8,0.7,4.4,1.1c0-5.1,0-9.9,0-14.9
		c1.6-0.3,2.9-0.6,4.6-1c0.1-1.8,0.2-3.6,0.3-5.6c2.2-0.4,4.4-0.8,6.8-1.2c0.1,1.9,0.2,3.7,0.4,5.6c1.5-0.1,2.8-0.2,4-0.2
		c0.1,0.1,0.2,0.2,0.3,0.2c0.1,0.1,0.2,0.2,0.2,0.2c0,3.5,0.1,7.1,0.1,10.6C199.1,105.8,199.1,118.3,199.1,131z M244,131.8
		c-14.2,0-28.2,0-42.3,0c-0.6-2.1-0.8-11.7-0.4-19.8c1.2-0.7,2.6-1.5,4.3-2.5c0-0.8,0-1.8,0-2.8c0-5.5,0-10.9,0.2-16.4
		c0.1-2-0.3-3.6-1.9-4.8c-0.5-0.4-0.9-1-1.2-1.7c1.7,0.5,3.2,1.5,4.4,2.6c0.5,0.4,0.6,1.4,0.6,2.1c0.1,3.2,0,6.3,0,10
		c1.3-0.7,2.1-1.1,2.9-1.6c0.8-0.5,1.6-1,2.5-1.6c0-3.9,0-7.7,0-11.7c0.9-0.6,1.8-1.2,2.6-1.8c4.5-2.9,3.6-1.4,3.7-6.8
		c0.1-2.8,0-5.6,0-8.3c0-0.2,0.1-0.4,0.2-0.9c7.9-1.8,16-3.6,24.1-5.4C244.3,62.5,244.5,126.3,244,131.8z M275.6,131.7
		c-4.1,0.3-8.1,0.2-12.1,0.1c-3.9-0.1-7.7,0.2-11.8,0c0-13,0-25.7,0-38.5c0.3-0.2,0.7-0.5,1.1-0.8c2.3-1.4,3.4-3.2,3.3-6.1
		c-0.2-4.6,0-9.2,0.2-13.8c0.1-1.6-0.4-2.7-1.5-3.8c-1.9-1.7-3.6-3.5-5.4-5.3c-0.1,0-0.1,0-0.2,0c-0.2-0.2-0.3-0.4-0.5-0.6
		c-0.2-0.3-0.3-0.6-0.5-0.9c0,0-0.1,0-0.1-0.1c0,0,0.1,0,0.1,0c0,0,0,0,0,0.1c0,0,0,0,0,0c0.2,0.3,0.3,0.6,0.5,0.8
		c0.2,0.2,0.3,0.4,0.5,0.6c0,0,0.1,0.1,0.1,0.1c0.6,0.2,1.2,0.3,1.6,0.6c1.9,1.5,3.7,3,5.6,4.5c1,0.8,1.4,1.7,1.4,2.9
		c0,4.6,0.2,9.2,0.3,13.8c0,0.8,0.1,1.6,0.2,2.7c1.8-0.6,2.8-1.8,3.9-2.7c0.4-0.4,0.5-1.4,0.5-2.1c0-3.1,0-6.1,0-9.2
		c0-1,0-1.9,0-3.2c4.2-0.8,8.3-1.6,12.3-2.3c0.3,0.2,0.3,0.3,0.4,0.3c0.1,0.1,0.1,0.2,0.1,0.3c0,20.3,0.1,40.7,0.1,61
		C275.7,130.6,275.7,131,275.6,131.7z M302.3,131.8c-7.2,0.2-14.3,0.2-21.6-0.1c-0.4-5.3-0.1-10.6,0.4-15.8l0,0.1c0-0.1,0-0.1,0-0.2
		c0,0,0,0,0,0c-0.2-1-0.5-1.9-0.5-2.9c-0.1-2.2,0-4.4,0-6.9c2.4-0.1,4.7-0.2,7.3-0.4c0-3.4,0-6.5,0-9.6c0-1.5-0.5-3.2,1-4.5
		c0.3-0.3,0.2-1.1,0.2-1.7c0-2.9,0.1-5.7,0.1-8.6c0-0.8-0.2-1.8-0.7-2.3c-2.7-2.7-5.5-5.2-8.3-7.8c0,0,0,0,0,0c0,0,0-0.1-0.1-0.1
		c-0.1-0.3-0.3-0.5-0.4-0.8c0,0,0-0.1,0-0.1c0,0,0,0.1,0,0.1c0.1,0.3,0.2,0.5,0.3,0.8c0,0,0,0.1,0.1,0.1c0,0,0,0,0,0
		c0.5,0.1,1.1,0.1,1.5,0.3c2.5,1.9,5,3.9,7.5,5.8c0.9,0.7,1.2,1.6,1.2,2.8c-0.1,3-0.2,6.1-0.1,9.1c0,1.4,0.4,2.8,0.6,4
		c1-0.5,2.1-1,3.4-1.6c0-3.9,0-8.1,0-12.5c2.6-0.4,5-0.9,7.3-1.2c0.2,0.2,0.3,0.2,0.4,0.3c0.1,0.1,0.1,0.2,0.1,0.2
		c0.1,0.2,0.1,0.4,0.1,0.6c0,16.9,0,33.7,0,50.6C302.4,130.1,302.3,130.8,302.3,131.8z M354.7,131.5c-2.3,0.5-41.8,0.6-46,0.2
		c-0.1-0.7-0.3-1.4-0.3-2.1c0-6,0-11.9,0-17.9c0-2.1,0-2.1,2.1-3.4c0-1.5,0-3.1,0-4.8c0.1-4.8,0.2-9.6,0.3-14.4c0-1.3-0.2-2.4-1-3.5
		c-1-1.4-1.9-2.9-2.7-4.4c-0.3-0.6-0.4-1.4-0.6-2.1c0,0,0,0-0.1-0.1c-0.1,0-0.1,0-0.2,0c0,0,0.1-0.1,0.1-0.1c0,0,0,0,0,0.1
		c0,0,0,0,0,0c0,0,0,0.1,0,0.1c1.4,1.7,2.8,3.5,4.3,5.1c1.3,1.4,1.9,2.9,1.9,4.9c-0.1,5.5,0.1,10.9,0.1,16.4c0,0.9,0.1,1.9,0.1,3
		c4-0.3,7.7-0.5,11.6-0.8c0.9,3.3-0.2,6.7,0.7,10.1c2.3-0.2,4.6-0.4,7.2-0.6c0.1-1.3,0.1-2.6,0.3-3.8c0.1-1.1-0.3-1.8-1.2-2.4
		c-0.8-0.5-1.4-1.2-2.2-1.7c0,0-0.1,0-0.1,0c-0.1-0.3-0.2-0.6-0.3-0.9c-0.1,0-0.2,0-0.3,0c0-0.1,0.1-0.1,0.1-0.2
		c0.1,0.1,0.2,0.1,0.3,0.2c0.1,0.3,0.2,0.6,0.3,0.9c0,0,0,0,0.1,0.1c1.9-0.2,3,1.3,4.5,2c0.1,1.9,0.2,3.7,0.3,5.8
		c2.4-0.1,4.6-0.3,7-0.4c0.9,2.7,0,5.4,0.6,8c2.1,0.6,2.8,0.7,5.9,0.2c0-1.6,0-3.3,0-5.2c-1-0.5-2.2-1-3.3-1.6c0,0,0,0-0.1,0
		c0,0,0,0,0,0c0,0-0.1,0-0.1,0c0,0,0.1-0.1,0.1-0.1c0,0,0,0.1-0.1,0.1c0,0,0,0,0,0c1.6-0.4,2.9,0.5,4.5,1.1c0.1,1.8,0.2,3.7,0.4,5.9
		c1.9,0.1,3.6,0.2,5.5,0.3C354.7,127.6,354.7,129.6,354.7,131.5z"/>
	<path fill="#4E4E4E" d="M92.9,203.9c0,3.1,0,6.1,0,9.2c0,3.2,0,6.3,0,9.5c0,3.1,0,6.1,0,9.2c0,3.1,0,6.1,0,9.2c0,3,0.1,6.1,0.1,9.1
		c4,0.5,12.6,0.4,14.7-0.2c0-0.6,0.1-1.3,0.1-2c0-33.7-0.1-67.4-0.1-101c0-0.1-0.1-0.2-0.1-0.2c-0.1-0.1-0.1-0.1-0.3-0.3
		c-6,0-12.1,0-18.5,0c-1.8,16.5-3.5,32.8-5.2,49c0,0.3-0.1,0.5-0.2,0.8c0,0.1-0.1,0.2-0.2,0.2c-0.1,0-0.2,0-0.8,0.2
		c-0.9-4-1.1-8.1-1.6-12.2c-0.5-4.2-0.9-8.4-1.4-12.6c-0.5-4.3-1-8.6-1.5-12.9c-0.5-4.2-1-8.3-1.5-12.6c-6.5,0-12.7-0.2-18.8,0.1
		c-0.1,0.6-0.3,0.9-0.3,1.1c0,33.4,0,66.8,0,100.2c0,0.7,0.1,1.3,0.1,2c0,0.1,0.1,0.2,0.1,0.2c0.1,0.1,0.1,0.2,0.2,0.2
		c4.1,0.5,12.3,0.3,14.5-0.3c0-21.5,0-43.2,0-64.8c0.2,0,0.4,0,0.7,0c1.1,10.8,2.2,21.6,3.3,32.4c1.2,10.9,2.1,21.9,3.5,32.7
		c3.8,0.4,3.9,0.4,6-0.3c2.3-21.4,4.3-42.9,6.7-64.3c0.2,0,0.4,0,0.6,0c0,3.1,0,6.1,0,9.2C92.9,197.8,92.9,200.9,92.9,203.9z"/>
	<path fill="#4E4E4E" d="M183.6,193.7c-0.1,0-0.2,0-0.4,0c-3.2-15.7-6.5-31.5-9.7-47.1c-3.8-0.5-11.4-0.4-13.5,0.2
		c0,0.6-0.1,1.3-0.1,2c0,33.7,0.1,67.3,0.1,101c0,0.1,0.1,0.2,0.1,0.3c0.1,0.1,0.1,0.1,0.2,0.2c3.8,0.5,12.5,0.3,14.8-0.3
		c0-16,0-32.2,0-48.3c0.2,0,0.3,0,0.5,0c3.3,16.2,6.7,32.4,10,48.5c3.6,0.5,11.3,0.4,13.4-0.1c0.1-0.3,0.2-0.5,0.2-0.8
		c0-33.7,0-67.4,0-101c0-0.4-0.1-0.8-0.1-1.1c0-0.1-0.1-0.2-0.1-0.2c-0.1-0.1-0.1-0.1-0.3-0.3c-4.8,0-9.6,0-14.7,0
		c0,1.3-0.1,2.4-0.1,3.5c0,13.6,0,27.3,0,40.9c0,0.5,0,1,0,1.4C183.8,192.8,183.7,193.2,183.6,193.7z"/>
	<path fill="#4E4E4E" d="M301.2,250.3c5,0,9.9,0,15.1,0c0.1-1.1,0.2-2,0.2-2.9c0-12,0-24,0-36c0-1.7-0.4-3.1-1.6-4.5
		c-2.2-2.6-4.3-5.3-6.5-8.1c0.7-0.9,1.2-1.7,1.8-2.4c1.7-2.1,3.4-4.2,5.1-6.2c0.8-0.9,1.1-1.9,1.1-3.1c0-8,0-15.9-0.1-23.9
		c0-0.9-0.3-1.9-0.8-2.7c-3.3-4.7-6.7-9.4-10-14c-9.3,0-18.5,0-27.9,0c-0.5,5.4-0.3,101.4,0.2,103.6c2.7,0.5,13.5,0.5,16-0.1
		c0-13.5,0-27.1,0-40.8c2.4,0,4.4,0,6.7,0c0,1.2,0,2.2,0,3.3c0,11.6,0,23.2,0,34.8C300.7,248.3,300.3,249.4,301.2,250.3z
		 M300.3,189.1c-1.9,0-3.9,0-6.3,0c0-7.7,0-15.2,0-22.9c2.1-0.5,4.1-0.2,6.1-0.2C300.8,168.4,300.9,186.1,300.3,189.1z"/>
	<path fill="#4E4E4E" d="M361.7,186.7c-0.1-7.8-0.1-15.5,0-23.3c0-1.3-0.3-2.4-1.1-3.5c-2.9-3.9-5.8-7.9-8.6-11.9
		c-0.9-1.2-1.8-1.7-3.3-1.7c-7.9,0.1-15.7,0-23.6,0c-0.6,0-1.3,0.2-1.9,0.2c-0.5,3.7-0.4,101.5,0.1,103.6c3.7,0.5,13.7,0.4,15.8-0.3
		c0-3.3,0-6.6,0-10c0-3.5,0-6.9,0-10.4c0-3.4,0-6.7,0-10.1c0-3.4-0.1-6.8,0.1-10.4c2.4,0,4.4-0.2,6.8,0.2c0,13.7,0,27.3,0,41.2
		c5.3,0,10.3,0,15.5,0c0.1-1,0.2-1.6,0.2-2.3c0-12.5,0-24.9,0-37.4c0-1.3-0.4-2.4-1.2-3.4c-2.3-2.7-4.4-5.5-6.9-8.6
		c2.3-2.8,4.5-5.5,6.7-8.2C361.2,189.4,361.7,188.2,361.7,186.7z M345.8,189.1c-2.2,0.4-4.2,0.2-6.2,0.1c-0.5-2.3-0.7-18.4-0.3-22.9
		c2-0.7,4.1-0.3,6.5-0.3C345.8,173.8,345.8,181.4,345.8,189.1z"/>
	<path fill="#4E4E4E" d="M114,232.6c0,1.4,0,2.8,1,4.1c3,4,5.8,8.1,8.7,12.2c0.8,1.1,1.7,1.6,3.1,1.6c4.6-0.1,9.2-0.1,13.8,0
		c1.8,0,2.8-0.6,3.7-2.1c2.4-3.7,4.9-7.3,7.5-10.9c1.1-1.5,1.5-3,1.5-4.8c-0.1-11.4,0-22.8,0-34.2c0-11.6,0-23.2,0-34.8
		c0-1.4-0.1-2.6-1-3.8c-3-4-6-8-8.9-12.1c-0.9-1.3-1.9-1.6-3.4-1.6c-4.3,0.1-8.6,0.1-12.9,0c-1.6,0-2.6,0.5-3.6,1.8
		c-2.7,4-5.5,7.9-8.3,11.7c-0.8,1.1-1.2,2.3-1.2,3.7c0.1,4.9,0,9.8,0,14.7C114,196.3,114,214.5,114,232.6z M130.3,166.1
		c2.4,0,4.3,0,6.3,0c0.5,2.3,0.7,59,0.3,64.2c-1.9,0.6-3.1,0.7-6.5,0.2C130.3,208.9,130.3,187.6,130.3,166.1z"/>
	<path fill="#4E4E4E" d="M272.4,165.7c0.1-6.6,0-12.8,0-19.5c-2.8,0-5.3,0-7.8,0c-2.4,0-4.8,0-7.2,0c-2.5,0-5,0-7.5,0
		c-2.4,0-4.9-0.2-7.3,0.2c0,34.8,0,69.2,0,103.6c2.7,0.5,27.5,0.5,29.9,0c0.5-3,0.4-17.1-0.2-19.2c-4.4-0.3-8.9,0.1-13.3-0.2
		c-0.5-3.1-0.5-23,0.1-25.5c1.7,0,3.5,0,5.3,0c1.8,0,3.6,0,5.3,0c0.6-3.2,0.5-17.2-0.1-19.5c-3.5-0.5-7.2,0.2-11-0.4
		c0-6.4-0.1-12.7,0.1-19.1C263.5,165.7,267.9,166.2,272.4,165.7z"/>
	<path fill="#4E4E4E" d="M397.9,250c0.5-4.2,0.3-17.2-0.4-19.3c-4.3,0-8.7,0-13,0c-0.6-3.1-0.5-23.2,0.1-25.5
		c3.5-0.3,7.2,0.2,10.9-0.3c0-6.5,0-12.7,0-19.2c-3.9-0.5-7.6,0.2-11.3-0.4c-0.1-6.4-0.1-12.7,0-19.1c4.6-0.4,9,0.1,13.5-0.4
		c0-6.6,0.1-12.8-0.1-19.3c-10,0-19.8,0-29.4,0c-0.2,0.3-0.3,0.5-0.3,0.7c0,33.5-0.1,67-0.1,100.4c0,0.8,0.1,1.5,0.1,2.3
		c0,0.1,0.1,0.2,0.1,0.2c0.1,0.1,0.1,0.1,0.2,0.2C373.1,250.7,395.8,250.5,397.9,250z"/>
	<path fill="#4E4E4E" d="M429,146.8c-2,11.8-3.6,23.7-5.8,35.6c-2.2-12-3.8-24-5.9-35.9c-5.5,0-10.6,0-16,0c0.2,1,0.2,1.9,0.4,2.7
		c4.2,18.3,8.5,36.6,12.6,54.9c0.4,1.9,0.7,4,0.7,6c0.1,12.3,0,24.6,0,36.9c0,1.1,0.1,2.2,0.2,3.4c5.5,0,10.6,0,16.1,0
		c0-1.4,0-2.5,0-3.5c0-12.5,0-25,0-37.4c0-1.5,0.1-3.1,0.5-4.6c4.3-18.8,8.7-37.6,13-56.3c0.1-0.6,0.2-1.2,0.2-1.9
		C441.3,146.1,431.2,146.2,429,146.8z"/>
	<path fill="#4E4E4E" d="M212.7,250.1c3.6,0.6,14,0.4,16.1-0.2c0-4,0-8,0-12c0-3.9,0-7.9,0-11.8c0-4,0-8.1,0-12.1
		c0-3.9,0-7.9,0-11.8c0-4,0-8.1,0-12.1c0-3.9,0-7.9,0-11.8c0-4,0-8,0-12.3c3.2,0,6,0,8.7,0c0.6-3.6,0.5-17.3-0.1-19.4
		c-3.9-0.5-31.7-0.3-33.9,0.2c0,6.3,0,12.5,0,19.2c3,0,5.8,0,9,0c0,3.4,0,6.4,0,9.5c0,3.2,0,6.3,0,9.5c0,3.1,0,6.1,0,9.2
		c0,3.2,0,6.3,0,9.5c0,3.1,0,6.1,0,9.2c0,3.2,0,6.3,0,9.5c0,3.1,0,6.1,0,9.2c0,3.2,0,6.3,0,9.5C212.6,244.1,212.4,247.1,212.7,250.1
		z"/>
	<path fill="#4E4E4E" d="M276.2,141.4c0.2-0.5,0.3-1.1,0.5-1.6c-0.2,0-0.3-0.1-0.5-0.1c-0.1,0.6-0.2,1.1-0.3,1.7
		C276,141.4,276.1,141.4,276.2,141.4z"/>
	<path fill="#4E4E4E" d="M237.9,137.5c-0.2,0.2-0.4,0.3-0.5,0.5c-0.1,0.1,0.1,0.3,0.2,0.5c0.2-0.1,0.4-0.3,0.6-0.4
		C238.1,137.8,238,137.7,237.9,137.5z"/>
	<path fill="#4E4E4E" d="M319.1,299.3c0-7.6,0-14.9,0-22.4c-1.4,0-2.5,0-3.6,0c-0.6,2.9-0.5,20.3,0.1,22.4
		C316.6,299.3,317.6,299.3,319.1,299.3z"/>
	<path fill="#4E4E4E" d="M220.4,92c0.1-1.7-0.6-3.5,0.9-5.1c0.3-0.3,0.3-0.8,0.4-1.2c-1.5-0.4-0.6-1.8-1-2.6
		c-0.1-0.2-0.2-0.3-0.4-0.5c-0.5,0-1,0-2,0c0,1.6,0,2.9,0,4.2c0.2,4.5,0.5,9,0.6,13.5c0,1.1-0.4,2.2-0.6,3.1
		c0.4,1.3,0.8,2.4,1.1,3.6c0.1,0,0.2,0,0.3,0c0.2-3.8,0.4-7.6,0.6-11.3c0.5-0.2,0.8-0.3,1.4-0.5C220.9,94.2,222.5,92.5,220.4,92z"/>
	<path fill="#4E4E4E" d="M229.6,107.3c0,0.3-0.4,0.6-0.6,1h0.1c0,0,0,0,0,0l0.1,0l-0.1,0c-0.4,0.4-0.7,0.8-1.2,1.3
		c0.9,0.6,1.7,1.1,2.5,1.7c0.8-1.2,1.8-2.3,2.2-3.5c0.5-1.6,0.4-3.3,0.6-5.5C232,104.3,229.9,105,229.6,107.3z"/>
	<path fill="#4E4E4E" d="M212.1,99.8c0.1,4.5,0.3,8.9,0.5,13.4c0.1,0,0.2,0,0.3,0c0.1-2.3,0.2-4.7,0.2-7c0-2.3,0.5-4.7-0.4-7.4
		C212.3,99.4,212.1,99.6,212.1,99.8z"/>
	<path fill="#4E4E4E" d="M238.3,76.2c-0.2-2.7-0.5-5.3-0.7-7.9c-0.2,0-0.4,0.1-0.6,0.1c0,2.2,0,4.5,0,6.7
		C237.1,75.7,237.3,76.5,238.3,76.2z"/>
	<path fill="#4E4E4E" d="M222.2,115.3c1.4-2.1,0.5-3.6-0.3-4.9C221.9,111.9,222,113.4,222.2,115.3z"/>
	<path fill="#4E4E4E" d="M238,91.2c0.7-1.3,0.7-2.7,0.5-4.2C237.6,88.4,237.9,89.8,238,91.2z"/>
	<path fill="#4E4E4E" d="M217.1,120.8c0.4-1.6,0.2-2.7-0.9-4.2C215.8,118.4,215.9,119.5,217.1,120.8z"/>
	<path fill="#4E4E4E" d="M237.8,77.1c-0.4,0.7-0.5,1-0.6,1.2c-0.2,0.5-0.5,1.1,0.3,1.3c0.2,0,0.7-0.6,0.9-1
		C238.4,78.4,238.1,78,237.8,77.1z"/>
	<path fill="#4E4E4E" d="M238.1,82.8c-0.1,0.1-0.2,0.1-0.3,0.2c0.1,0.5,0.3,1.1,0.4,1.6c0.1,0,0.3,0,0.4,0c0-0.3,0.2-0.7,0.1-1
		C238.6,83.3,238.3,83.1,238.1,82.8z"/>
	<path fill="#4E4E4E" d="M230.8,89.8c-0.1-0.4-0.2-0.8-0.2-1.2c-0.2,0-0.4,0.1-0.6,0.1c0.2,0.4,0.3,0.8,0.5,1.2
		C230.6,89.9,230.7,89.9,230.8,89.8z"/>
	
		<line fill="none" stroke="#4E4E4E" stroke-width="0" stroke-linecap="round" stroke-linejoin="round" x1="241" y1="80.1" x2="241" y2="80.1"/>
	<path fill="#4E4E4E" d="M241,80.1C241,80.1,241,80.1,241,80.1C241,80,241,79.8,241,80.1z"/>
	<path fill="#4E4E4E" d="M241,80.1L241,80.1C241,80.1,241,80.1,241,80.1C241,79.8,241,80,241,80.1z"/>
	<path fill="#4E4E4E" d="M240.7,88.9c0,0-0.2,0.1-0.3,0.2c0.1,0.1,0.3,0.2,0.4,0.3c0.1-0.1,0.1-0.1,0.2-0.2
		C240.9,89.1,240.8,89,240.7,88.9z"/>
	<path fill="#4E4E4E" d="M242.9,97.6c0.1,0.3,0.2,0.6,0.3,0.9c0.1,0,0.3-0.1,0.4-0.1c-0.1-0.3-0.1-0.6-0.2-0.9
		C243.2,97.5,243.1,97.6,242.9,97.6z"/>
	<path fill="#4E4E4E" d="M222.5,120.8c0.1,0,0.1,0,0.2-0.1c0-0.1,0-0.1,0-0.2c-0.1,0-0.2,0-0.2,0.1
		C222.5,120.6,222.5,120.7,222.5,120.8z"/>
	<path fill="#4E4E4E" d="M242.3,130c0-0.1,0.1-0.2,0.1-0.4c-0.1,0-0.2,0.1-0.3,0.1C242.1,129.9,242.2,129.9,242.3,130z"/>
	<path fill="#4E4E4E" d="M222.5,122.7c0-0.1,0.1-0.1,0.1-0.2c0-0.1-0.1-0.1-0.1-0.2C222.6,122.5,222.6,122.6,222.5,122.7z"/>
	<path fill="#4E4E4E" d="M238.1,113.6c0.1,0,0.1,0,0.2-0.1c0-0.1,0-0.1-0.1-0.2C238.1,113.5,238.1,113.6,238.1,113.6z"/>
	<path fill="#4E4E4E" d="M231.1,92.8c0-0.1,0.1-0.1,0.1-0.2c-0.1,0-0.1-0.1-0.2-0.1l-0.1-0.1c0,0-0.1,0-0.1,0c0,0,0.1,0,0.1,0
		C231,92.6,231,92.7,231.1,92.8z"/>
	<path fill="#4E4E4E" d="M241.5,100c0,0.1,0.1,0.1,0.1,0.2c0-0.1,0.1-0.1,0.1-0.2c0-0.1-0.1-0.1-0.1-0.2
		C241.6,99.9,241.5,100,241.5,100z"/>
	<polygon fill="#4E4E4E" points="221.4,101.4 221.5,101.4 221.5,101.3 	"/>
	<polygon fill="#4E4E4E" points="216.7,124.7 216.9,124.7 216.9,124.5 	"/>
	<path fill="#4E4E4E" d="M233.9,99.8c-0.3-0.2-0.6-0.3-1.3-0.7c0.1,0.9,0.2,1.5,0.3,2.1c0.2,0,0.3,0,0.5,0
		C233.6,100.7,233.8,100.2,233.9,99.8l0-0.2L233.9,99.8z"/>
	<path fill="#4E4E4E" d="M242.4,129.6C242.4,129.6,242.4,129.6,242.4,129.6C242.4,129.7,242.5,129.6,242.4,129.6L242.4,129.6
		L242.4,129.6z"/>
	<path fill="#4E4E4E" d="M267.2,100c-0.1-1.7-0.2-3.4-0.4-5.6c-0.7,1-1.2,1.5-1.7,2.1c0.2,0.5,0.6,1.1,0.7,1.7
		c0.1,0.3-0.3,0.8-0.5,1.1l0,0.1h0l0,0.1l0-0.1c-0.7,0.1-1.4,0.1-2.1,0.2c-0.1-1.3-0.2-2.7-0.3-4c-0.1,0-0.2,0-0.3,0
		c-0.3,11.4-0.7,22.8-1,34.3c0.9,0,1.6,0,2.5,0c0-0.7,0-1.3,0-1.9c-0.1-5-0.2-10-0.4-15c0-1.2,0-2.3,1.5-2.7c-1.9-2.1-2.4-5.5-1-7.8
		c0.2-0.3,0.6-0.4,1-0.6c0,0,0-0.1,0-0.1c0,0-0.1-0.1-0.1-0.1c0,0,0.1-0.1,0.1-0.2c0,0.1,0,0.2,0,0.3c0,0,0,0,0.1,0.1
		c-0.1,0.3-0.1,0.6-0.2,0.9c0,0,0,0-0.1,0.1c0,0,0,0,0,0c0.8-0.5,1.5-0.9,2.3-1.4l0,0.1c0,0,0.1,0,0.1,0c0.1,0.1,0.2,0.3,0.3,0.4
		c0.1-0.1,0.1-0.3,0.2-0.4c0,0,0.1,0,0.1,0l-0.1-0.1c0.3,0.1,0.6,0.2,1.1,0.3c0.1-1.2,1-2.3-0.2-3.4
		C268.1,99.1,267.6,99.6,267.2,100z"/>
	<path fill="#4E4E4E" d="M253.3,107.8c-1.4,3-1.4,4.3-0.1,6.3c0.4-0.8,0.7-1.5,1.2-2.5c0.3,2,0.5,3.7,0.7,5.3c1-3.1,2.5-6.1,0.7-9.4
		C255,107.9,254.3,108.7,253.3,107.8z"/>
	<path fill="#4E4E4E" d="M268.2,91.4c-0.1,1,0.4,2.1,0.7,3.2c1.4-2.9,1.4-3,0.7-5.8C269.1,89.7,268.3,90.5,268.2,91.4z"/>
	<path fill="#4E4E4E" d="M254.1,106.7c-0.2-0.3-0.4-0.7-0.6-1c0,0-0.3,0.1-0.5,0.2c0.2,0.3,0.4,0.7,0.6,1
		C253.8,106.8,253.9,106.7,254.1,106.7z"/>
	<path fill="#4E4E4E" d="M259.9,115.1c0,0,0.1,0,0.1,0c0-0.5,0-1,0-1.5c0,0-0.1,0-0.1,0C259.9,114.2,259.9,114.7,259.9,115.1z"/>
	<path fill="#4E4E4E" d="M259.7,119.8c0.1,0.2,0.3,0.4,0.4,0.7c0-0.3,0-0.7,0.1-1.1C259.9,119.6,259.7,119.8,259.7,119.8z"/>
	<path fill="#4E4E4E" d="M268.8,95.8c-0.2,0-0.4,0.2-0.7,0.4c0.1,0.2,0.2,0.6,0.4,0.6c0.2,0,0.5-0.2,0.8-0.3
		C269.2,96.2,269,95.9,268.8,95.8z"/>
	
		<line fill="none" stroke="#4E4E4E" stroke-width="0" stroke-linecap="round" stroke-linejoin="round" x1="259.9" y1="103.4" x2="259.9" y2="103.4"/>
	<path fill="#4E4E4E" d="M259.9,103.4C259.9,103.4,259.9,103.4,259.9,103.4C259.9,103.4,259.9,103.4,259.9,103.4
		C259.9,103.4,259.9,103.4,259.9,103.4z"/>
	<path fill="#4E4E4E" d="M259.9,103.4L259.9,103.4C259.9,103.4,259.9,103.4,259.9,103.4C260,103.6,260,103.8,259.9,103.4z"/>
	<path fill="#4E4E4E" d="M259.9,103.4C259.9,103.6,259.9,103.7,259.9,103.4L259.9,103.4z"/>
	<path fill="#4E4E4E" d="M270.9,83.7c0.2-0.9,0.2-1.1,0.3-1.4c-0.1,0-0.3,0-0.4,0C270.8,82.6,270.8,82.8,270.9,83.7z"/>
	<path fill="#4E4E4E" d="M253.1,94.3c0-0.1,0-0.1-0.1-0.2c0,0.1,0,0.3,0,0.4C253.1,94.4,253.1,94.3,253.1,94.3z"/>
	<path fill="#4E4E4E" d="M272.6,80c0.1-0.2,0.1-0.3,0.2-0.4c-0.1,0-0.1,0-0.1,0C272.6,79.7,272.6,79.8,272.6,80z"/>
	<path fill="#4E4E4E" d="M259.7,99.9c0.1,0.1,0.2,0.2,0.3,0.3c0.1-0.1,0.1-0.3,0.2-0.4c-0.1,0-0.2-0.1-0.3-0.1
		C259.8,99.7,259.7,99.9,259.7,99.9z"/>
	<path fill="#4E4E4E" d="M266.6,93.3c0.1-0.1,0.2-0.3,0.2-0.4c-0.1-0.1-0.3-0.1-0.4-0.2c-0.1,0.1-0.1,0.3-0.2,0.4
		C266.3,93.2,266.5,93.3,266.6,93.3z"/>
	<polygon fill="#4E4E4E" points="266.7,106.9 266.9,106.8 266.7,106.7 	"/>
	<polygon fill="#4E4E4E" points="260,122.9 260.1,122.7 259.9,122.6 	"/>
	<path fill="#4E4E4E" d="M268.6,108.6c0,0.1,0,0.1,0.1,0.2c0-0.1,0.1-0.1,0.1-0.2c0-0.1,0-0.1-0.1-0.2
		C268.7,108.5,268.6,108.6,268.6,108.6z"/>
	<path fill="#4E4E4E" d="M269.7,88.7c0,0,0,0.1,0,0.1c0,0,0,0.1,0,0.1c0,0,0,0,0,0C269.7,88.8,269.7,88.7,269.7,88.7z"/>
	<path fill="#4E4E4E" d="M269.6,88.3c0,0.1,0,0.2,0,0.3c0,0,0-0.1,0-0.1C269.7,88.5,269.7,88.4,269.6,88.3z"/>
	<path fill="#4E4E4E" d="M260.1,95.9c0,0-0.1,0-0.2-0.1c0,0.1-0.1,0.2-0.1,0.2c0,0,0.1,0,0.2,0.1C260.1,96.1,260.1,96,260.1,95.9z"
		/>
	<path fill="#4E4E4E" d="M260.1,118.1c0-0.1-0.1-0.1-0.1-0.2c-0.1,0-0.1,0-0.2,0.1c0,0.1,0,0.2-0.1,0.2
		C259.9,118.1,260,118.1,260.1,118.1z"/>
	<path fill="#4E4E4E" d="M266.9,104.9c-0.1,0-0.1,0.1-0.2,0.1c0,0.1,0.1,0.2,0.1,0.2c0.1,0,0.1-0.1,0.2-0.1
		C267,105,267,104.9,266.9,104.9z"/>
	<path fill="#4E4E4E" d="M264.8,103.2C264.8,103.2,264.9,103.2,264.8,103.2c0-0.1,0-0.1,0-0.2C264.8,103.1,264.8,103.2,264.8,103.2z
		"/>
	<polygon fill="#4E4E4E" points="269.6,81.8 269.4,81.8 269.4,81.6 269.4,81.7 269.5,81.8 	"/>
	<path fill="#4E4E4E" d="M292.5,103.7c-0.3,6.8-0.6,13.6-0.8,20.3c-1.5-4.2-0.2-8.8-1.2-13.4c-0.9,4.9-1.3,17.3-0.6,19.6
		c0.5,0,1.1,0,1.7,0c0.6,0,1.3-0.1,2.2-0.2c-0.3-8.9-0.6-17.6-0.8-26.3C292.8,103.8,292.6,103.8,292.5,103.7z"/>
	<path fill="#4E4E4E" d="M281.1,115.4c0,0.1,0,0.2,0.1,0.3c0,0,0-0.1,0-0.1C281.2,115.5,281.1,115.5,281.1,115.4z"/>
	<path fill="#4E4E4E" d="M188.5,119.4c-0.2,0.5-0.3,0.9-0.6,1.6c-0.2-1.8-0.3-3.3-0.4-4.8c-0.2,0-0.3,0-0.5,0
		c-0.2,1.9-0.4,3.9-0.7,6.5c-0.3-4.7-0.6-8.7-0.9-12.8c-0.1,0-0.2,0-0.4,0c-0.3,6.7-0.6,13.3-0.9,20.1c2.1,0,3.9,0,5.8,0
		c-0.3-3.7-0.7-7.1-1-10.6C188.8,119.4,188.6,119.4,188.5,119.4z"/>
	<path fill="#4E4E4E" d="M197.3,122.9c0-0.1,0-0.1,0.1-0.2c-0.1,0-0.2,0.1-0.3,0.1C197.2,122.8,197.2,122.8,197.3,122.9z"/>
</g>
</svg>
