<?xml version="1.0" encoding="utf-8"?>
<!-- Generator: Adobe Illustrator 18.0.0, SVG Export Plug-In . SVG Version: 6.00 Build 0)  -->
<!DOCTYPE svg PUBLIC "-//W3C//DTD SVG 1.1//EN" "http://www.w3.org/Graphics/SVG/1.1/DTD/svg11.dtd">
<svg version="1.1" id="Layer_1" xmlns="http://www.w3.org/2000/svg" xmlns:xlink="http://www.w3.org/1999/xlink" x="0px" y="0px"
	 viewBox="0 0 350 200" enable-background="new 0 0 350 200" xml:space="preserve">
<g>
	<path fill="#426079" d="M204.4,186.8h-58.8c-3.4,0-6.5-1.4-8.7-3.6l0,0c0,0,0,0,0,0c0,0,0,0,0,0l0,0c-2.2-2.2-3.6-5.3-3.6-8.7v5
		c0,3.4,1.4,6.5,3.6,8.7c2.2,2.2,5.3,3.6,8.7,3.6h58.8c6.8,0,12.3-5.6,12.3-12.3v-5C216.7,181.3,211.2,186.8,204.4,186.8z"/>
</g>
<g>
	<polygon fill="#426079" points="136.9,188.2 136.9,188.2 136.9,188.2 136.9,188.2 	"/>
</g>
<g>
	<path fill="#0D3656" d="M204.4,7.7h-58.8c-6.8,0-12.3,5.6-12.3,12.3v5v149.5c0,3.4,1.4,6.5,3.6,8.7c2.2,2.2,5.3,3.6,8.7,3.6h58.8
		c6.8,0,12.3-5.6,12.3-12.3V25v-5C216.7,13.3,211.2,7.7,204.4,7.7z M175,179.3c-2.3,0-4.2-1.9-4.2-4.2c0-2.3,1.9-4.2,4.2-4.2
		c2.3,0,4.2,1.9,4.2,4.2C179.2,177.4,177.3,179.3,175,179.3z M211.6,162.3h-73.2V32.2h73.2V162.3z"/>
</g>
<g>
	<path fill="#FFFFFF" d="M175,170.8c-2.3,0-4.2,1.9-4.2,4.2c0,2.3,1.9,4.2,4.2,4.2c2.3,0,4.2-1.9,4.2-4.2
		C179.2,172.7,177.3,170.8,175,170.8z"/>
</g>
<g>
	<path fill="#F0EEEE" d="M138.4,162.3h73.2V32.2h-73.2V162.3z M144,42.4h62.1v50H144V42.4z M143.9,102.1h62.3v10h-62.3V102.1z
		 M143.9,122.1h62.2v10h-62.2V122.1z M143.9,142.1h62.2v10h-62.2V142.1z"/>
</g>
<g>
	<polygon fill="#3D9988" points="136.9,183.2 136.9,183.2 136.9,183.2 136.9,183.2 	"/>
</g>
<g>
	<rect x="143.9" y="102.1" fill="#0D3656" width="62.3" height="10"/>
</g>
<g>
	<rect x="143.9" y="122.1" fill="#7ABCBF" width="62.2" height="10"/>
</g>
<g>
	<rect x="143.9" y="142.1" fill="#7ABCBF" width="62.2" height="10"/>
</g>
<g>
	<rect x="144" y="42.4" fill="#EB5A4A" width="62.1" height="50"/>
</g>
<polygon fill="#426079" points="136.9,188.2 136.9,188.2 136.9,188.2 136.9,188.2 "/>
<path fill="#0D3656" d="M204.4,7.7h-58.8c-6.8,0-12.3,5.6-12.3,12.3v5v149.5c0,3.4,1.4,6.5,3.6,8.7c2.2,2.2,5.3,3.6,8.7,3.6h58.8
	c6.8,0,12.3-5.6,12.3-12.3V25v-5C216.7,13.3,211.2,7.7,204.4,7.7z M175,179.3c-2.3,0-4.2-1.9-4.2-4.2c0-2.3,1.9-4.2,4.2-4.2
	c2.3,0,4.2,1.9,4.2,4.2C179.2,177.4,177.3,179.3,175,179.3z M211.6,162.3h-73.2V32.2h73.2V162.3z"/>
<path fill="#FFFFFF" d="M175,170.8c-2.3,0-4.2,1.9-4.2,4.2c0,2.3,1.9,4.2,4.2,4.2c2.3,0,4.2-1.9,4.2-4.2
	C179.2,172.7,177.3,170.8,175,170.8z"/>
<path fill="#F0EEEE" d="M138.4,162.3h73.2V32.2h-73.2V162.3z M144,42.4h62.1v50H144V42.4z M143.9,102.1h62.3v10h-62.3V102.1z
	 M143.9,122.1h62.2v10h-62.2V122.1z M143.9,142.1h62.2v10h-62.2V142.1z"/>
<polygon fill="#3D9988" points="136.9,183.2 136.9,183.2 136.9,183.2 136.9,183.2 "/>
<rect x="143.9" y="102.1" fill="#0D3656" width="62.3" height="10"/>
<rect x="143.9" y="122.1" fill="#7ABCBF" width="62.2" height="10"/>
<rect x="143.9" y="142.1" fill="#7ABCBF" width="62.2" height="10"/>
<rect x="144" y="42.4" fill="#EB5A4A" width="62.1" height="50"/>
</svg>
