<?xml version="1.0" encoding="utf-8"?>
<!-- Generator: Adobe Illustrator 18.0.0, SVG Export Plug-In . SVG Version: 6.00 Build 0)  -->
<!DOCTYPE svg PUBLIC "-//W3C//DTD SVG 1.1//EN" "http://www.w3.org/Graphics/SVG/1.1/DTD/svg11.dtd">
<svg version="1.1" id="Layer_1" xmlns="http://www.w3.org/2000/svg" xmlns:xlink="http://www.w3.org/1999/xlink" x="0px" y="0px"
	 viewBox="0 0 350 200" enable-background="new 0 0 350 200" xml:space="preserve">
<g>
	<path fill="#426079" d="M234.4,195.4H115.6c-5.9,0-10.8-4.9-10.8-10.8v3.6c0,5.9,4.9,10.8,10.8,10.8h118.8
		c5.9,0,10.8-4.9,10.8-10.8v-3.6C245.2,190.5,240.3,195.4,234.4,195.4z"/>
</g>
<g>
	<path fill="#0D3656" d="M234.4,1H115.6c-5.9,0-10.8,4.9-10.8,10.8v3.6v18V37v126v3.6v18c0,5.9,4.9,10.8,10.8,10.8h118.8
		c5.9,0,10.8-4.9,10.8-10.8v-18V163V37v-3.6v-18v-3.6C245.2,5.9,240.3,1,234.4,1z M175,184.6c-3,0-5.4-2.4-5.4-5.4s2.4-5.4,5.4-5.4
		c3,0,5.4,2.4,5.4,5.4S178,184.6,175,184.6z M239.8,79.2V163H110.2v-61.6V21.9h129.6V79.2z"/>
</g>
<g>
	<path fill="#F0EEEE" d="M110.2,101.4l17.1,17.1c1.2-1.2,2.8-1.9,4.5-1.9c1.3,0,2.6,0.4,3.6,1.1L150,95.9c-1.7-1.2-2.8-3.1-2.8-5.3
		c0-3.5,2.9-6.4,6.4-6.4c3.5,0,6.4,2.9,6.4,6.4c0,1-0.3,2-0.7,2.9l10,5c1.1-2.1,3.2-3.5,5.7-3.5c1.2,0,2.4,0.4,3.4,1l14.8-23.9
		c-1.8-1.1-3-3.1-3-5.4c0-3.5,2.9-6.4,6.4-6.4c2.8,0,5.1,1.7,6,4.2l10.8-4c-0.3-0.7-0.4-1.4-0.4-2.2c0-3.5,2.9-6.4,6.4-6.4
		c3.5,0,6.4,2.9,6.4,6.4c0,1.8-0.8,3.4-2,4.6l15.9,16.4V21.9H110.2V101.4z"/>
</g>
<g>
	<circle fill="#FFFFFF" cx="175" cy="179.2" r="5.4"/>
</g>
<g>
	<path fill="#EB5A4A" d="M219.4,64.6c-2.8,0-5.1-1.7-6-4.2l-10.8,4c0.3,0.7,0.4,1.4,0.4,2.2c0,3.5-2.9,6.4-6.4,6.4
		c-1.2,0-2.4-0.4-3.4-1L178.4,96c1.8,1.1,3,3.1,3,5.4c0,3.5-2.9,6.4-6.4,6.4c-3.5,0-6.4-2.9-6.4-6.4c0-1,0.3-2,0.7-2.9l-10-5
		c-1.1,2.1-3.2,3.5-5.7,3.5c-1.3,0-2.6-0.4-3.6-1.1l-14.6,21.8c1.7,1.2,2.8,3.1,2.8,5.3c0,3.5-2.9,6.4-6.4,6.4
		c-3.5,0-6.4-2.9-6.4-6.4c0-1.8,0.7-3.4,1.9-4.5l-17.1-17.1V163h129.6V79.2l-15.9-16.4C222.7,63.9,221.2,64.6,219.4,64.6z"/>
</g>
<g>
	<path fill="#0D3656" d="M175,107.8c3.5,0,6.4-2.9,6.4-6.4c0-2.3-1.2-4.3-3-5.4c-1-0.6-2.1-1-3.4-1c-2.5,0-4.7,1.4-5.7,3.5
		c-0.4,0.9-0.7,1.8-0.7,2.9C168.6,104.9,171.5,107.8,175,107.8z"/>
</g>
<g>
	<path fill="#0D3656" d="M203,66.6c0-0.8-0.1-1.5-0.4-2.2c-0.9-2.4-3.2-4.2-6-4.2c-3.5,0-6.4,2.9-6.4,6.4c0,2.3,1.2,4.3,3,5.4
		c1,0.6,2.1,1,3.4,1C200.1,73.1,203,70.2,203,66.6z"/>
</g>
<g>
	<path fill="#0D3656" d="M219.4,64.6c1.7,0,3.3-0.7,4.5-1.8c1.2-1.2,2-2.8,2-4.6c0-3.5-2.9-6.4-6.4-6.4c-3.5,0-6.4,2.9-6.4,6.4
		c0,0.8,0.1,1.5,0.4,2.2C214.3,62.9,216.7,64.6,219.4,64.6z"/>
</g>
<g>
	<path fill="#0D3656" d="M159.3,93.5c0.4-0.9,0.7-1.8,0.7-2.9c0-3.5-2.9-6.4-6.4-6.4c-3.5,0-6.4,2.9-6.4,6.4c0,2.2,1.1,4.2,2.8,5.3
		c1,0.7,2.3,1.1,3.6,1.1C156.1,97,158.2,95.6,159.3,93.5z"/>
</g>
<g>
	<path fill="#0D3656" d="M131.8,129.4c3.5,0,6.4-2.9,6.4-6.4c0-2.2-1.1-4.2-2.8-5.3c-1-0.7-2.3-1.1-3.6-1.1c-1.8,0-3.4,0.7-4.5,1.9
		c-1.2,1.2-1.9,2.8-1.9,4.5C125.4,126.5,128.3,129.4,131.8,129.4z"/>
</g>
<path fill="#426079" d="M234.4,195.4H115.6c-5.9,0-10.8-4.9-10.8-10.8v3.6c0,5.9,4.9,10.8,10.8,10.8h118.8c5.9,0,10.8-4.9,10.8-10.8
	v-3.6C245.2,190.5,240.3,195.4,234.4,195.4z"/>
<path fill="#0D3656" d="M234.4,1H115.6c-5.9,0-10.8,4.9-10.8,10.8v3.6v18V37v126v3.6v18c0,5.9,4.9,10.8,10.8,10.8h118.8
	c5.9,0,10.8-4.9,10.8-10.8v-18V163V37v-3.6v-18v-3.6C245.2,5.9,240.3,1,234.4,1z M175,184.6c-3,0-5.4-2.4-5.4-5.4s2.4-5.4,5.4-5.4
	c3,0,5.4,2.4,5.4,5.4S178,184.6,175,184.6z M239.8,79.2V163H110.2v-61.6V21.9h129.6V79.2z"/>
<path fill="#F0EEEE" d="M110.2,101.4l17.1,17.1c1.2-1.2,2.8-1.9,4.5-1.9c1.3,0,2.6,0.4,3.6,1.1L150,95.9c-1.7-1.2-2.8-3.1-2.8-5.3
	c0-3.5,2.9-6.4,6.4-6.4c3.5,0,6.4,2.9,6.4,6.4c0,1-0.3,2-0.7,2.9l10,5c1.1-2.1,3.2-3.5,5.7-3.5c1.2,0,2.4,0.4,3.4,1l14.8-23.9
	c-1.8-1.1-3-3.1-3-5.4c0-3.5,2.9-6.4,6.4-6.4c2.8,0,5.1,1.7,6,4.2l10.8-4c-0.3-0.7-0.4-1.4-0.4-2.2c0-3.5,2.9-6.4,6.4-6.4
	c3.5,0,6.4,2.9,6.4,6.4c0,1.8-0.8,3.4-2,4.6l15.9,16.4V21.9H110.2V101.4z"/>
<circle fill="#FFFFFF" cx="175" cy="179.2" r="5.4"/>
<path fill="#EB5A4A" d="M219.4,64.6c-2.8,0-5.1-1.7-6-4.2l-10.8,4c0.3,0.7,0.4,1.4,0.4,2.2c0,3.5-2.9,6.4-6.4,6.4
	c-1.2,0-2.4-0.4-3.4-1L178.4,96c1.8,1.1,3,3.1,3,5.4c0,3.5-2.9,6.4-6.4,6.4c-3.5,0-6.4-2.9-6.4-6.4c0-1,0.3-2,0.7-2.9l-10-5
	c-1.1,2.1-3.2,3.5-5.7,3.5c-1.3,0-2.6-0.4-3.6-1.1l-14.6,21.8c1.7,1.2,2.8,3.1,2.8,5.3c0,3.5-2.9,6.4-6.4,6.4
	c-3.5,0-6.4-2.9-6.4-6.4c0-1.8,0.7-3.4,1.9-4.5l-17.1-17.1V163h129.6V79.2l-15.9-16.4C222.7,63.9,221.2,64.6,219.4,64.6z"/>
<path fill="#0D3656" d="M175,107.8c3.5,0,6.4-2.9,6.4-6.4c0-2.3-1.2-4.3-3-5.4c-1-0.6-2.1-1-3.4-1c-2.5,0-4.7,1.4-5.7,3.5
	c-0.4,0.9-0.7,1.8-0.7,2.9C168.6,104.9,171.5,107.8,175,107.8z"/>
<path fill="#0D3656" d="M203,66.6c0-0.8-0.1-1.5-0.4-2.2c-0.9-2.4-3.2-4.2-6-4.2c-3.5,0-6.4,2.9-6.4,6.4c0,2.3,1.2,4.3,3,5.4
	c1,0.6,2.1,1,3.4,1C200.1,73.1,203,70.2,203,66.6z"/>
<path fill="#0D3656" d="M219.4,64.6c1.7,0,3.3-0.7,4.5-1.8c1.2-1.2,2-2.8,2-4.6c0-3.5-2.9-6.4-6.4-6.4c-3.5,0-6.4,2.9-6.4,6.4
	c0,0.8,0.1,1.5,0.4,2.2C214.3,62.9,216.7,64.6,219.4,64.6z"/>
<path fill="#0D3656" d="M159.3,93.5c0.4-0.9,0.7-1.8,0.7-2.9c0-3.5-2.9-6.4-6.4-6.4c-3.5,0-6.4,2.9-6.4,6.4c0,2.2,1.1,4.2,2.8,5.3
	c1,0.7,2.3,1.1,3.6,1.1C156.1,97,158.2,95.6,159.3,93.5z"/>
<path fill="#0D3656" d="M131.8,129.4c3.5,0,6.4-2.9,6.4-6.4c0-2.2-1.1-4.2-2.8-5.3c-1-0.7-2.3-1.1-3.6-1.1c-1.8,0-3.4,0.7-4.5,1.9
	c-1.2,1.2-1.9,2.8-1.9,4.5C125.4,126.5,128.3,129.4,131.8,129.4z"/>
</svg>
