<?xml version="1.0" encoding="utf-8"?>
<!-- Generator: Adobe Illustrator 18.0.0, SVG Export Plug-In . SVG Version: 6.00 Build 0)  -->
<!DOCTYPE svg PUBLIC "-//W3C//DTD SVG 1.1//EN" "http://www.w3.org/Graphics/SVG/1.1/DTD/svg11.dtd">
<svg version="1.1" id="Layer_1" xmlns="http://www.w3.org/2000/svg" xmlns:xlink="http://www.w3.org/1999/xlink" x="0px" y="0px"
	 viewBox="0 0 612 792" enable-background="new 0 0 612 792" xml:space="preserve">
<g>
	<path fill="#D6DADD" d="M417,505H193c-8.8,0-16-7.2-16-16v4c0,8.8,7.2,16,16,16h224c8.8,0,16-7.2,16-16v-4
		C433,497.8,425.8,505,417,505z"/>
</g>
<g>
	<path fill="#F0EEEE" d="M177,489c0,8.8,7.2,16,16,16h224c8.8,0,16-7.2,16-16V317H177V489z M261,473h-56v-72h56V473z M369.5,473
		h-96.6v-8h96.6V473z M400.8,457H272.8v-8h127.9V457z M400.8,441H272.8v-8h127.9V441z M400.9,425H272.8v-8h128.1V425z M273.1,409v-8
		h127.7v8H273.1z M365.2,345h40v40h-40V345z M311.7,345h40v40h-40V345z M258.3,345h40v40h-40V345z M204.8,345h40v40h-40V345z"/>
</g>
<g>
	<rect x="177" y="313" fill="#426079" width="256" height="4"/>
</g>
<g>
	<path fill="#0D3656" d="M417,281H193c-8.8,0-16,7.2-16,16v16h256v-16C433,288.2,425.8,281,417,281z"/>
</g>
<g>
	<rect x="273.1" y="401" fill="#0D3656" width="127.7" height="8"/>
</g>
<g>
	<rect x="272.8" y="417" fill="#7ABCBF" width="128.1" height="8"/>
</g>
<g>
	<rect x="272.8" y="433" fill="#7ABCBF" width="127.9" height="8"/>
</g>
<g>
	<rect x="272.8" y="449" fill="#7ABCBF" width="127.9" height="8"/>
</g>
<g>
	<rect x="272.8" y="465" fill="#7ABCBF" width="96.6" height="8"/>
</g>
<g>
	<rect x="205" y="401" fill="#7ABCBF" width="56" height="72"/>
</g>
<g>
	<rect x="204.8" y="345" fill="#7ABCBF" width="40" height="40"/>
</g>
<g>
	<rect x="258.3" y="345" fill="#0D3656" width="40" height="40"/>
</g>
<g>
	<rect x="365.2" y="345" fill="#FAAC1F" width="40" height="40"/>
</g>
<g>
	<rect x="311.7" y="345" fill="#EB5A4A" width="40" height="40"/>
</g>
<path fill="#D6DADD" d="M417,505H193c-8.8,0-16-7.2-16-16v4c0,8.8,7.2,16,16,16h224c8.8,0,16-7.2,16-16v-4
	C433,497.8,425.8,505,417,505z"/>
<path fill="#F0EEEE" d="M177,489c0,8.8,7.2,16,16,16h224c8.8,0,16-7.2,16-16V317H177V489z M261,473h-56v-72h56V473z M369.5,473
	h-96.6v-8h96.6V473z M400.8,457H272.8v-8h127.9V457z M400.8,441H272.8v-8h127.9V441z M400.9,425H272.8v-8h128.1V425z M273.1,409v-8
	h127.7v8H273.1z M365.2,345h40v40h-40V345z M311.7,345h40v40h-40V345z M258.3,345h40v40h-40V345z M204.8,345h40v40h-40V345z"/>
<rect x="177" y="313" fill="#426079" width="256" height="4"/>
<path fill="#0D3656" d="M417,281H193c-8.8,0-16,7.2-16,16v16h256v-16C433,288.2,425.8,281,417,281z"/>
<rect x="273.1" y="401" fill="#0D3656" width="127.7" height="8"/>
<rect x="272.8" y="417" fill="#7ABCBF" width="128.1" height="8"/>
<rect x="272.8" y="433" fill="#7ABCBF" width="127.9" height="8"/>
<rect x="272.8" y="449" fill="#7ABCBF" width="127.9" height="8"/>
<rect x="272.8" y="465" fill="#7ABCBF" width="96.6" height="8"/>
<rect x="205" y="401" fill="#7ABCBF" width="56" height="72"/>
<rect x="204.8" y="345" fill="#7ABCBF" width="40" height="40"/>
<rect x="258.3" y="345" fill="#0D3656" width="40" height="40"/>
<rect x="365.2" y="345" fill="#FAAC1F" width="40" height="40"/>
<rect x="311.7" y="345" fill="#EB5A4A" width="40" height="40"/>
</svg>
