<?xml version="1.0" encoding="utf-8"?>
<!-- Generator: Adobe Illustrator 18.0.0, SVG Export Plug-In . SVG Version: 6.00 Build 0)  -->
<!DOCTYPE svg PUBLIC "-//W3C//DTD SVG 1.1//EN" "http://www.w3.org/Graphics/SVG/1.1/DTD/svg11.dtd">
<svg version="1.1" id="Layer_1" xmlns="http://www.w3.org/2000/svg" xmlns:xlink="http://www.w3.org/1999/xlink" x="0px" y="0px"
	 viewBox="0 0 350 200" enable-background="new 0 0 350 200" xml:space="preserve">
<g>
	<path fill="#D6DADD" d="M271.3,194.6H78.7c-7.6,0-13.8-6.2-13.8-13.8v3.4c0,7.6,6.2,13.8,13.8,13.8h192.6c7.6,0,13.8-6.2,13.8-13.8
		v-3.4C285.1,188.4,278.9,194.6,271.3,194.6z"/>
</g>
<g>
	<path fill="#F0EEEE" d="M64.9,180.8c0,7.6,6.2,13.8,13.8,13.8h192.6c7.6,0,13.8-6.2,13.8-13.8V32.9H64.9V180.8z M137.1,167.1H89
		v-61.9h48.2V167.1z M230.4,167.1h-83.1v-6.9h83.1V167.1z M257.4,153.3h-110v-6.9h110V153.3z M257.4,139.6h-110v-6.9h110V139.6z
		 M257.5,125.8H147.3v-6.9h110.1V125.8z M147.6,112v-6.9h109.8v6.9H147.6z M226.7,57h34.4v34.4h-34.4V57z M180.8,57h34.4v34.4h-34.4
		V57z M134.8,57h34.4v34.4h-34.4V57z M88.9,57h34.4v34.4H88.9V57z"/>
</g>
<g>
	<rect x="64.9" y="29.5" fill="#426079" width="220.2" height="3.4"/>
</g>
<g>
	<path fill="#0D3656" d="M271.3,2H78.7c-7.6,0-13.8,6.2-13.8,13.8v13.8h220.2V15.7C285.1,8.2,278.9,2,271.3,2z"/>
</g>
<g>
	<rect x="147.6" y="105.2" fill="#0D3656" width="109.8" height="6.9"/>
</g>
<g>
	<rect x="147.3" y="118.9" fill="#7ABCBF" width="110.1" height="6.9"/>
</g>
<g>
	<rect x="147.3" y="132.7" fill="#7ABCBF" width="110" height="6.9"/>
</g>
<g>
	<rect x="147.3" y="146.4" fill="#7ABCBF" width="110" height="6.9"/>
</g>
<g>
	<rect x="147.3" y="160.2" fill="#7ABCBF" width="83.1" height="6.9"/>
</g>
<g>
	<rect x="89" y="105.2" fill="#7ABCBF" width="48.2" height="61.9"/>
</g>
<g>
	<rect x="88.9" y="57" fill="#7ABCBF" width="34.4" height="34.4"/>
</g>
<g>
	<rect x="134.8" y="57" fill="#0D3656" width="34.4" height="34.4"/>
</g>
<g>
	<rect x="226.7" y="57" fill="#FAAC1F" width="34.4" height="34.4"/>
</g>
<g>
	<rect x="180.8" y="57" fill="#EB5A4A" width="34.4" height="34.4"/>
</g>
<path fill="#D6DADD" d="M271.3,194.6H78.7c-7.6,0-13.8-6.2-13.8-13.8v3.4c0,7.6,6.2,13.8,13.8,13.8h192.6c7.6,0,13.8-6.2,13.8-13.8
	v-3.4C285.1,188.4,278.9,194.6,271.3,194.6z"/>
<path fill="#F0EEEE" d="M64.9,180.8c0,7.6,6.2,13.8,13.8,13.8h192.6c7.6,0,13.8-6.2,13.8-13.8V32.9H64.9V180.8z M137.1,167.1H89
	v-61.9h48.2V167.1z M230.4,167.1h-83.1v-6.9h83.1V167.1z M257.4,153.3h-110v-6.9h110V153.3z M257.4,139.6h-110v-6.9h110V139.6z
	 M257.5,125.8H147.3v-6.9h110.1V125.8z M147.6,112v-6.9h109.8v6.9H147.6z M226.7,57h34.4v34.4h-34.4V57z M180.8,57h34.4v34.4h-34.4
	V57z M134.8,57h34.4v34.4h-34.4V57z M88.9,57h34.4v34.4H88.9V57z"/>
<rect x="64.9" y="29.5" fill="#426079" width="220.2" height="3.4"/>
<path fill="#0D3656" d="M271.3,2H78.7c-7.6,0-13.8,6.2-13.8,13.8v13.8h220.2V15.7C285.1,8.2,278.9,2,271.3,2z"/>
<rect x="147.6" y="105.2" fill="#0D3656" width="109.8" height="6.9"/>
<rect x="147.3" y="118.9" fill="#7ABCBF" width="110.1" height="6.9"/>
<rect x="147.3" y="132.7" fill="#7ABCBF" width="110" height="6.9"/>
<rect x="147.3" y="146.4" fill="#7ABCBF" width="110" height="6.9"/>
<rect x="147.3" y="160.2" fill="#7ABCBF" width="83.1" height="6.9"/>
<rect x="89" y="105.2" fill="#7ABCBF" width="48.2" height="61.9"/>
<rect x="88.9" y="57" fill="#7ABCBF" width="34.4" height="34.4"/>
<rect x="134.8" y="57" fill="#0D3656" width="34.4" height="34.4"/>
<rect x="226.7" y="57" fill="#FAAC1F" width="34.4" height="34.4"/>
<rect x="180.8" y="57" fill="#EB5A4A" width="34.4" height="34.4"/>
</svg>
